<svg width="1257" height="473" viewBox="0 0 1257 473" fill="none" xmlns="http://www.w3.org/2000/svg">
<path d="M1203.57 8C1204.93 8 1206 9.14202 1206 10.5C1206 32.3458 1222.1 50.427 1243.09 53.5267C1246.34 54.0071 1249 56.6386 1249 59.926V81.8024C1249 84.0557 1247.71 86.0795 1245.84 87.3309C1237.49 92.9062 1232 102.322 1232 113C1232 123.748 1237.56 133.216 1246 138.777C1247.78 139.95 1249 141.867 1249 143.999C1249 146.132 1247.78 148.049 1246 149.222C1237.56 154.783 1232 164.252 1232 175C1232 185.897 1237.71 195.479 1246.35 201.007C1247.93 202.017 1249 203.704 1249 205.578C1249 207.428 1247.96 209.099 1246.41 210.115C1237.74 215.815 1232 225.726 1232 237C1232 248.108 1237.57 257.893 1246.03 263.63C1247.8 264.826 1249 266.746 1249 268.877C1249 271.048 1247.75 272.997 1245.93 274.182C1237.53 279.659 1232 288.954 1232 299.5C1232 310.074 1237.56 319.39 1246 324.862C1247.78 326.015 1249 327.919 1249 330.04C1249 332.147 1247.79 334.042 1246.03 335.2C1237.57 340.758 1232 350.238 1232 361C1232 371.678 1237.49 381.093 1245.84 386.668C1247.71 387.919 1249 389.943 1249 392.197V415.073C1249 418.36 1246.34 420.992 1243.09 421.472C1222.1 424.572 1206 442.654 1206 464.5C1206 464.775 1205.78 465 1205.51 465H667.616C665.633 465 663.801 464.002 662.567 462.451C654.598 452.427 642.3 446 628.5 446C614.7 446 602.402 452.427 594.433 462.451C593.199 464.002 591.367 465 589.384 465H52.4932C52.218 465 52 464.775 52 464.5C52 440.476 32.5244 421 8.5 421C8.22475 421 8 420.781 8 420.506V54.4932C8 54.218 8.22474 54 8.5 54C32.5244 54 52 34.5244 52 10.5C52 9.14202 53.0702 8 54.4282 8H589.384C591.367 8 593.199 8.99767 594.433 10.5495C602.402 20.5729 614.7 27 628.5 27C642.3 27 654.598 20.5729 662.567 10.5495C663.801 8.99767 665.633 8 667.616 8H1203.57Z" fill="white"/>
</svg>
