<svg width="1257" height="473" viewBox="0 0 1257 473" fill="none" xmlns="http://www.w3.org/2000/svg">
<mask id="path-1-outside-1_193_697" maskUnits="userSpaceOnUse" x="0" y="0" width="1257" height="473" fill="black">
<rect fill="white" width="1257" height="473"/>
<path d="M1203.57 8C1204.93 8 1206 9.14202 1206 10.5C1206 32.3458 1222.1 50.427 1243.09 53.5267C1246.34 54.0071 1249 56.6386 1249 59.926V81.8024C1249 84.0557 1247.71 86.0795 1245.84 87.3309C1237.49 92.9062 1232 102.322 1232 113C1232 123.748 1237.56 133.216 1246 138.777C1247.78 139.95 1249 141.867 1249 143.999C1249 146.132 1247.78 148.049 1246 149.222C1237.56 154.783 1232 164.252 1232 175C1232 185.897 1237.71 195.479 1246.35 201.007C1247.93 202.017 1249 203.704 1249 205.578C1249 207.428 1247.96 209.099 1246.41 210.115C1237.74 215.815 1232 225.726 1232 237C1232 248.108 1237.57 257.893 1246.03 263.63C1247.8 264.826 1249 266.746 1249 268.877C1249 271.048 1247.75 272.997 1245.93 274.182C1237.53 279.659 1232 288.954 1232 299.5C1232 310.074 1237.56 319.39 1246 324.862C1247.78 326.015 1249 327.919 1249 330.04C1249 332.147 1247.79 334.042 1246.03 335.2C1237.57 340.758 1232 350.238 1232 361C1232 371.678 1237.49 381.093 1245.84 386.668C1247.71 387.919 1249 389.943 1249 392.197V415.073C1249 418.36 1246.34 420.992 1243.09 421.472C1222.1 424.572 1206 442.654 1206 464.5C1206 464.775 1205.78 465 1205.51 465H667.616C665.633 465 663.801 464.002 662.567 462.451C654.598 452.427 642.3 446 628.5 446C614.7 446 602.402 452.427 594.433 462.451C593.199 464.002 591.367 465 589.384 465H52.4932C52.218 465 52 464.775 52 464.5C52 440.476 32.5244 421 8.5 421C8.22475 421 8 420.781 8 420.506V54.4932C8 54.218 8.22474 54 8.5 54C32.5244 54 52 34.5244 52 10.5C52 9.14202 53.0702 8 54.4282 8H589.384C591.367 8 593.199 8.99767 594.433 10.5495C602.402 20.5729 614.7 27 628.5 27C642.3 27 654.598 20.5729 662.567 10.5495C663.801 8.99767 665.633 8 667.616 8H1203.57Z"/>
</mask>
<path d="M1203.57 8C1204.93 8 1206 9.14202 1206 10.5C1206 32.3458 1222.1 50.427 1243.09 53.5267C1246.34 54.0071 1249 56.6386 1249 59.926V81.8024C1249 84.0557 1247.71 86.0795 1245.84 87.3309C1237.49 92.9062 1232 102.322 1232 113C1232 123.748 1237.56 133.216 1246 138.777C1247.78 139.95 1249 141.867 1249 143.999C1249 146.132 1247.78 148.049 1246 149.222C1237.56 154.783 1232 164.252 1232 175C1232 185.897 1237.71 195.479 1246.35 201.007C1247.93 202.017 1249 203.704 1249 205.578C1249 207.428 1247.96 209.099 1246.41 210.115C1237.74 215.815 1232 225.726 1232 237C1232 248.108 1237.57 257.893 1246.03 263.63C1247.8 264.826 1249 266.746 1249 268.877C1249 271.048 1247.75 272.997 1245.93 274.182C1237.53 279.659 1232 288.954 1232 299.5C1232 310.074 1237.56 319.39 1246 324.862C1247.78 326.015 1249 327.919 1249 330.04C1249 332.147 1247.79 334.042 1246.03 335.2C1237.57 340.758 1232 350.238 1232 361C1232 371.678 1237.49 381.093 1245.84 386.668C1247.71 387.919 1249 389.943 1249 392.197V415.073C1249 418.36 1246.34 420.992 1243.09 421.472C1222.1 424.572 1206 442.654 1206 464.5C1206 464.775 1205.78 465 1205.51 465H667.616C665.633 465 663.801 464.002 662.567 462.451C654.598 452.427 642.3 446 628.5 446C614.7 446 602.402 452.427 594.433 462.451C593.199 464.002 591.367 465 589.384 465H52.4932C52.218 465 52 464.775 52 464.5C52 440.476 32.5244 421 8.5 421C8.22475 421 8 420.781 8 420.506V54.4932C8 54.218 8.22474 54 8.5 54C32.5244 54 52 34.5244 52 10.5C52 9.14202 53.0702 8 54.4282 8H589.384C591.367 8 593.199 8.99767 594.433 10.5495C602.402 20.5729 614.7 27 628.5 27C642.3 27 654.598 20.5729 662.567 10.5495C663.801 8.99767 665.633 8 667.616 8H1203.57Z" fill="white"/>
<path d="M662.567 462.451L668.829 457.472L662.567 462.451ZM1243.09 421.472L1244.26 429.386L1243.09 421.472ZM1245.84 386.668L1241.39 393.321L1245.84 386.668ZM1246.03 335.2L1241.64 328.513L1246.03 335.2ZM1245.93 274.182L1241.56 267.48L1245.93 274.182ZM594.433 10.5495L600.695 5.5709L594.433 10.5495ZM1246.41 210.115L1250.81 216.801L1246.41 210.115ZM1246.35 201.007L1250.66 194.268L1246.35 201.007ZM1246 149.222L1241.6 142.541L1246 149.222ZM1246 324.862L1241.65 331.575L1246 324.862ZM1245.84 87.3309L1250.28 93.9839L1245.84 87.3309ZM1246 138.777L1241.6 145.458L1246 138.777ZM662.567 10.5495L656.305 5.5709L662.567 10.5495ZM1246.03 263.63L1250.52 257.01L1246.03 263.63ZM594.433 462.451L588.171 457.472L594.433 462.451ZM1206 10.5H1198C1198 36.3712 1217.07 57.77 1241.92 61.4408L1243.09 53.5267L1244.26 45.6126C1227.14 43.0839 1214 28.3203 1214 10.5H1206ZM1249 59.926H1241V81.8024H1249H1257V59.926H1249ZM1245.84 87.3309L1241.39 80.6779C1230.95 87.6534 1224 99.5018 1224 113H1232H1240C1240 105.143 1244.03 98.1589 1250.28 93.9839L1245.84 87.3309ZM1232 113H1224C1224 126.587 1231.04 138.501 1241.6 145.458L1246 138.777L1250.4 132.097C1244.08 127.932 1240 120.908 1240 113H1232ZM1246 149.222L1241.6 142.541C1231.04 149.499 1224 161.413 1224 175H1232H1240C1240 167.092 1244.08 160.067 1250.4 155.902L1246 149.222ZM1232 175H1224C1224 188.777 1231.23 200.831 1242.04 207.746L1246.35 201.007L1250.66 194.268C1244.19 190.127 1240 183.017 1240 175H1232ZM1246.41 210.115L1242.02 203.43C1231.16 210.567 1224 222.956 1224 237H1232H1240C1240 228.496 1244.32 221.064 1250.81 216.801L1246.41 210.115ZM1232 237H1224C1224 250.838 1230.95 263.069 1241.54 270.251L1246.03 263.63L1250.52 257.01C1244.19 252.717 1240 245.379 1240 237H1232ZM1245.93 274.182L1241.56 267.48C1231.06 274.329 1224 286.063 1224 299.5H1232H1240C1240 291.845 1244 284.99 1250.3 280.884L1245.93 274.182ZM1232 299.5H1224C1224 312.974 1231.09 324.734 1241.65 331.575L1246 324.862L1250.35 318.148C1244.02 314.047 1240 307.175 1240 299.5H1232ZM1246.03 335.2L1241.64 328.513C1231.06 335.467 1224 347.395 1224 361H1232H1240C1240 353.081 1244.09 346.049 1250.43 341.886L1246.03 335.2ZM1232 361H1224C1224 374.498 1230.95 386.346 1241.39 393.321L1245.84 386.668L1250.28 380.015C1244.03 375.84 1240 368.857 1240 361H1232ZM1249 392.197H1241V415.073H1249H1257V392.197H1249ZM1243.09 421.472L1241.92 413.558C1217.07 417.229 1198 438.629 1198 464.5H1206H1214C1214 446.68 1227.14 431.915 1244.26 429.386L1243.09 421.472ZM1205.51 465V457H667.616V465V473H1205.51V465ZM662.567 462.451L668.829 457.472C659.408 445.622 644.843 438 628.5 438V446V454C639.758 454 649.788 459.232 656.305 467.429L662.567 462.451ZM628.5 446V438C612.157 438 597.592 445.622 588.171 457.472L594.433 462.451L600.695 467.429C607.212 459.232 617.242 454 628.5 454V446ZM589.384 465V457H52.4932V465V473H589.384V465ZM52 464.5H60C60 436.057 36.9427 413 8.5 413V421V429C28.1061 429 44 444.894 44 464.5H52ZM8 420.506H16V54.4932H8H0V420.506H8ZM8.5 54V62C36.9427 62 60 38.9427 60 10.5H52H44C44 30.1061 28.1061 46 8.5 46V54ZM54.4282 8V16H589.384V8V0H54.4282V8ZM594.433 10.5495L588.171 15.528C597.592 27.3779 612.157 35 628.5 35V27V19C617.242 19 607.212 13.7679 600.695 5.5709L594.433 10.5495ZM628.5 27V35C644.843 35 659.408 27.3779 668.829 15.528L662.567 10.5495L656.305 5.5709C649.788 13.7679 639.758 19 628.5 19V27ZM667.616 8V16H1203.57V8V0H667.616V8ZM8.5 421V413C12.5204 413 16 416.241 16 420.506H8H0C0 425.321 3.92909 429 8.5 429V421ZM52.4932 465V457C56.7781 457 60 460.5 60 464.5H52H44C44 469.05 47.6578 473 52.4932 473V465ZM667.616 465V457C668.376 457 668.745 457.367 668.829 457.472L662.567 462.451L656.305 467.429C658.856 470.638 662.89 473 667.616 473V465ZM1206 464.5H1198C1198 460.5 1201.22 457 1205.51 457V465V473C1210.34 473 1214 469.05 1214 464.5H1206ZM1249 415.073H1241C1241 414.475 1241.26 414.03 1241.46 413.817C1241.63 413.636 1241.79 413.577 1241.92 413.558L1243.09 421.472L1244.26 429.386C1250.76 428.426 1257 422.975 1257 415.073H1249ZM1245.84 386.668L1241.39 393.321C1241.39 393.318 1241.37 393.307 1241.35 393.281C1241.32 393.255 1241.28 393.205 1241.23 393.122C1241.13 392.949 1241 392.627 1241 392.197H1249H1257C1257 386.783 1253.94 382.457 1250.28 380.015L1245.84 386.668ZM1249 330.04H1241C1241 329.541 1241.15 329.147 1241.29 328.904C1241.43 328.676 1241.56 328.566 1241.64 328.513L1246.03 335.2L1250.43 341.886C1254.03 339.52 1257 335.3 1257 330.04H1249ZM1249 268.877H1241C1241 268.398 1241.14 268.027 1241.27 267.807C1241.4 267.603 1241.51 267.515 1241.56 267.48L1245.93 274.182L1250.3 280.884C1253.96 278.5 1257 274.224 1257 268.877H1249ZM589.384 8V16C588.624 16 588.255 15.6334 588.171 15.528L594.433 10.5495L600.695 5.5709C598.144 2.36192 594.11 0 589.384 0V8ZM1249 205.578H1241C1241 204.328 1241.67 203.655 1242.02 203.43L1246.41 210.115L1250.81 216.801C1254.24 214.543 1257 210.528 1257 205.578H1249ZM52 10.5H60C60 13.2538 57.7889 16 54.4282 16V8V0C48.3515 0 44 5.03025 44 10.5H52ZM1246.35 201.007L1242.04 207.746C1241.69 207.521 1241 206.844 1241 205.578H1249H1257C1257 200.565 1254.17 196.512 1250.66 194.268L1246.35 201.007ZM1249 143.999H1241C1241 143.512 1241.14 143.131 1241.28 142.899C1241.41 142.684 1241.53 142.584 1241.6 142.541L1246 149.222L1250.4 155.902C1254.01 153.524 1257 149.286 1257 143.999H1249ZM1246 324.862L1241.65 331.575C1241.57 331.522 1241.43 331.411 1241.29 331.183C1241.15 330.938 1241 330.542 1241 330.04H1249H1257C1257 324.746 1253.99 320.507 1250.35 318.148L1246 324.862ZM1249 81.8024H1241C1241 81.3721 1241.13 81.0504 1241.23 80.8772C1241.28 80.7944 1241.32 80.7441 1241.35 80.7182C1241.37 80.6923 1241.39 80.6812 1241.39 80.6779L1245.84 87.3309L1250.28 93.9839C1253.94 91.5416 1257 87.2165 1257 81.8024H1249ZM1243.09 53.5267L1241.92 61.4408C1241.79 61.4222 1241.63 61.3634 1241.46 61.1816C1241.26 60.9694 1241 60.5242 1241 59.926H1249H1257C1257 52.0235 1250.76 46.5726 1244.26 45.6126L1243.09 53.5267ZM8 54.4932H16C16 58.778 12.4999 62 8.5 62V54V46C3.94959 46 0 49.6579 0 54.4932H8ZM1246 138.777L1241.6 145.458C1241.53 145.415 1241.41 145.315 1241.28 145.1C1241.14 144.868 1241 144.487 1241 143.999H1249H1257C1257 138.713 1254.01 134.475 1250.4 132.097L1246 138.777ZM662.567 10.5495L668.829 15.528C668.745 15.6334 668.376 16 667.616 16V8V0C662.89 0 658.856 2.36195 656.305 5.5709L662.567 10.5495ZM1246.03 263.63L1241.54 270.251C1241.49 270.218 1241.38 270.131 1241.26 269.929C1241.14 269.711 1241 269.347 1241 268.877H1249H1257C1257 263.631 1254.07 259.414 1250.52 257.01L1246.03 263.63ZM594.433 462.451L588.171 457.472C588.255 457.367 588.624 457 589.384 457V465V473C594.11 473 598.144 470.638 600.695 467.429L594.433 462.451ZM1206 10.5H1214C1214 5.03021 1209.65 0 1203.57 0V8V16C1200.21 16 1198 13.2538 1198 10.5H1206Z" fill="white" mask="url(#path-1-outside-1_193_697)"/>
</svg>
