<svg width="1241" height="457" viewBox="0 0 1241 457" fill="none" xmlns="http://www.w3.org/2000/svg">
<path d="M1205 0C1224.88 1.03082e-06 1241 16.1178 1241 36V421C1241 440.882 1224.88 457 1205 457H659.616C657.633 457 655.801 456.002 654.567 454.451C646.598 444.427 634.3 438 620.5 438C606.7 438 594.402 444.427 586.433 454.451C585.199 456.002 583.367 457 581.384 457H44.4932C44.218 457 44 456.775 44 456.5C44 432.476 24.5244 413 0.5 413C0.224752 413 0 412.781 0 412.506V46.4932C0 46.218 0.224744 46 0.5 46C24.5244 46 44 26.5244 44 2.5C44 1.14202 45.0702 0 46.4282 0H581.384C583.367 0 585.199 0.997671 586.433 2.54947C594.402 12.5729 606.7 19 620.5 19C634.3 19 646.598 12.5729 654.567 2.54947C655.801 0.997671 657.633 0 659.616 0H1205Z" fill="white"/>
</svg>
