<svg xmlns="http://www.w3.org/2000/svg" width="24" height="24" fill="none"><path fill="#333" d="m7.8 20.38.06-2.4s3.2-2.67 5.05-4.26l3.8 7.11c.12.21.4.23.56.04l.43-.52c.26-.3.73-1.06.68-1.46l-.93-3.92 1.27-1.26a.99.99 0 1 0-1.4-1.4l-.4.4-.57-2.43c.72-.69 2.57-2.53 2.76-2.72 1.77-1.77 3.07-3.7 2.04-4.73-1.02-1.02-2.96.26-4.73 2.04-.19.19-2.03 2.04-2.72 2.76l-2.32-.55.36-.35a.99.99 0 0 0-1.4-1.4L9.12 6.55 5.09 5.6c-.4-.06-1.15.42-1.46.68l-.52.43a.34.34 0 0 0 .04.56l7 3.9c-1.58 1.85-4.17 5.13-4.17 5.13l-2.38-.12c-.28-.03-.56.06-.78.25l-.54.49a.34.34 0 0 0 .05.56l2.73 1.45 1.43 2.72c.12.2.4.23.57.04l.49-.54c.18-.21.27-.5.24-.77Z"/></svg>
