<svg width="24" height="24" fill="none" xmlns="http://www.w3.org/2000/svg"><path fill-rule="evenodd" clip-rule="evenodd" d="M3.338 1.313a.274.274 0 0 1 .469.041l3.965 8.17 3.966-8.17a.274.274 0 0 1 .468-.04l.27.373a2.74 2.74 0 0 1 .311 2.658l-3.472 8.358 1.005 2.07a2.12 2.12 0 0 1 1.237-.416c1.574 0 2.85 1.881 2.85 4.203 0 2.32-1.276 4.202-2.85 4.202-1.548 0-2.808-1.822-2.848-4.092l-.937-2.254-.874 2.103v.04c0 2.322-1.275 4.203-2.849 4.203-1.573 0-2.849-1.881-2.849-4.202 0-2.322 1.276-4.203 2.85-4.203.424 0 .828.137 1.19.384l.99-2.038-3.473-8.358a2.74 2.74 0 0 1 .31-2.658l.271-.374zM4.843 18.56c0 .804-.224 1.44-.48 1.818-.15.221-.263.298-.314.322-.051-.024-.164-.1-.314-.322-.255-.377-.48-1.014-.48-1.818 0-.805.225-1.442.48-1.819.15-.221.263-.297.314-.322.051.025.164.1.314.322.256.377.48 1.014.48 1.819zm-.824 2.15l.01-.001-.01.002zm.051-.001a.03.03 0 0 1 .01.002l-.01-.002zm.01-4.3l-.01.002a.032.032 0 0 1 .01-.002zm-.052.002l-.01-.002.01.002zm8.323 2.149c0 .804-.224 1.44-.48 1.818-.15.221-.263.298-.314.322-.051-.024-.164-.1-.314-.322-.255-.377-.48-1.014-.48-1.818 0-.805.225-1.442.48-1.819.15-.221.263-.297.314-.322.051.025.164.1.314.322.256.377.48 1.014.48 1.819zm-.824 2.15l.01-.001-.01.002zm.051-.001a.03.03 0 0 1 .01.002l-.01-.002zm.009-4.3l-.009.002a.07.07 0 0 0 .006-.001l.003-.001zm-.05.002l-.01-.002.01.002z" fill="#333"/><path d="M22.481 2.516a.998.998 0 0 0-.998-.997h-4.28v.059a1.15 1.15 0 0 0-.808.906c-.23 1.33-.564 4.21-.564 9.675 0 5.466.335 8.345.564 9.676.077.447.395.778.807.906v.018h.062c.105.027.216.041.33.041h.897l-.003-.041h2.995a.998.998 0 1 0 0-1.995h-3.11c-.022-.517-.046-1.134-.069-1.854h3.18a.998.998 0 1 0 0-1.995h-3.23c-.011-.575-.02-1.192-.028-1.854h3.257a.998.998 0 0 0 0-1.995h-3.272a267.558 267.558 0 0 1 0-1.854h3.272a.998.998 0 1 0 0-1.995h-3.257c.008-.662.018-1.28.029-1.854h3.228a.998.998 0 0 0 0-1.995h-3.177c.022-.722.046-1.339.07-1.854h3.107c.551 0 .998-.447.998-.998z" fill="#333"/></svg>