<svg width="24" height="24" fill="none" xmlns="http://www.w3.org/2000/svg"><path d="M16.549 4.275c.834 0 1.511.677 1.511 1.511V10.8H3.467c-.59 0-1.067.537-1.067 1.2 0 .663.478 1.2 1.067 1.2h17.066c.59 0 1.067-.537 1.067-1.2 0-.663-.478-1.2-1.067-1.2h-.673V5.786a3.311 3.311 0 0 0-3.311-3.311h-.492a2.82 2.82 0 0 0-2.527 1.567 3.179 3.179 0 0 0-3.185 1.007c-.217.251-.115.623.172.789l4.474 2.582c.287.166.66.069.769-.244a3.18 3.18 0 0 0-.67-3.208 1.02 1.02 0 0 1 .967-.693h.492zM3.638 14.4h16.724a5.983 5.983 0 0 1-1.852 4.336l.563 1.127a1.2 1.2 0 1 1-2.146 1.074l-.459-.917a5.988 5.988 0 0 1-2.105.38H9.638c-.741 0-1.451-.134-2.106-.38l-.459.917a1.2 1.2 0 1 1-2.146-1.074l.563-1.127A5.983 5.983 0 0 1 3.638 14.4z" fill="#333"/></svg>