<svg width="24" height="24" fill="none" xmlns="http://www.w3.org/2000/svg"><path d="M12 4.2a1.8 1.8 0 0 1 1.8-1.8h6a1.8 1.8 0 0 1 1.8 1.8v3.6a1.8 1.8 0 0 1-1.8 1.8h-6A1.8 1.8 0 0 1 12 7.8V4.2z" fill="#333"/><path fill-rule="evenodd" clip-rule="evenodd" d="M3.922 7.833l1.35-1.35-1.273-1.272-1.493 1.493a1.5 1.5 0 0 0-.317 1.654l1.939 4.501 1.653-.712-1.859-4.314z" fill="#333"/><path d="M3.972 5.529a1.2 1.2 0 0 1 .225-1.385l1.147-1.147a1.2 1.2 0 0 1 1.385-.225l3.669 1.834a.24.24 0 0 1 .062.385L6.19 9.26a.24.24 0 0 1-.384-.063l-1.834-3.67zM1.2 12.48a.48.48 0 0 1 .48-.48h20.64a.48.48 0 0 1 .48.48v1.44a.48.48 0 0 1-.48.48H1.68a.48.48 0 0 1-.48-.48v-1.44z" fill="#333"/><path d="M3.6 13.68a.48.48 0 0 1 .48-.48h.96a.48.48 0 0 1 .48.48v8.64a.48.48 0 0 1-.48.48h-.96a.48.48 0 0 1-.48-.48v-8.64zM18.48 13.68a.48.48 0 0 1 .48-.48h.96a.48.48 0 0 1 .48.48v8.64a.48.48 0 0 1-.48.48h-.96a.48.48 0 0 1-.48-.48v-8.64zM15.25 9.48a.48.48 0 0 1 .48-.48h2.04a.48.48 0 0 1 .48.48v3.04a.48.48 0 0 1-.48.48h-2.04a.48.48 0 0 1-.48-.48V9.48z" fill="#333"/></svg>