<svg xmlns="http://www.w3.org/2000/svg" width="112" height="112" fill="none"><rect width="112" height="112" fill="#D84D4D" fill-opacity=".15" rx="12"/><rect width="69.65" height="69.65" x="21.18" y="23.74" stroke="#D84D4D" stroke-width="5.16" rx="9.58"/><path fill="#D84D4D" d="M23 44h66V30.05A4.05 4.05 0 0 0 84.95 26h-57.9A4.05 4.05 0 0 0 23 30.05V44Z"/><rect width="7.74" height="7.74" x="34.07" y="16" fill="#D84D4D" rx="1.29"/><rect width="7.74" height="7.74" x="70.19" y="16" fill="#D84D4D" rx="1.29"/><rect width="15.48" height="15.48" x="28.99" y="49.53" fill="#fff" rx="3.87"/><rect width="1.82" height="9.12" x="39.31" y="53.4" fill="#D84D4D" rx=".91" transform="rotate(45 39.3 53.4)"/><rect width="1.82" height="9.12" x="32.86" y="54.69" fill="#D84D4D" rx=".91" transform="rotate(-45 32.86 54.69)"/><rect width="15.48" height="15.48" x="48.62" y="49.53" fill="#fff" rx="3.87"/><rect width="1.82" height="9.12" x="58.94" y="53.4" fill="#D84D4D" rx=".91" transform="rotate(45 58.94 53.4)"/><rect width="1.82" height="9.12" x="52.49" y="54.69" fill="#D84D4D" rx=".91" transform="rotate(-45 52.49 54.69)"/><rect width="15.48" height="15.48" x="68.25" y="49.53" fill="#fff" rx="3.87"/><rect width="1.82" height="9.12" x="78.57" y="53.4" fill="#D84D4D" rx=".91" transform="rotate(45 78.57 53.4)"/><rect width="1.82" height="9.12" x="72.12" y="54.69" fill="#D84D4D" rx=".91" transform="rotate(-45 72.12 54.69)"/><rect width="15.48" height="15.48" x="28.99" y="69.16" fill="#fff" rx="3.87"/><rect width="1.82" height="9.12" x="39.31" y="73.03" fill="#D84D4D" rx=".91" transform="rotate(45 39.3 73.03)"/><rect width="1.82" height="9.12" x="32.86" y="74.32" fill="#D84D4D" rx=".91" transform="rotate(-45 32.86 74.32)"/><rect width="15.48" height="15.48" x="48.62" y="69.16" fill="#fff" rx="3.87"/><rect width="15.48" height="15.48" x="68.25" y="69.16" fill="#fff" rx="3.87"/></svg>