<svg width="19" height="19" viewBox="0 0 16 16" fill="none" xmlns="http://www.w3.org/2000/svg">
<path fill-rule="evenodd" clip-rule="evenodd" d="M16 8C16 3.58172 12.4183 0 8 0C3.58172 0 0 3.58172 0 8C0 12.4183 3.58172 16 8 16C12.4183 16 16 12.4183 16 8ZM2 8C2 4.68629 4.68629 2 8 2C11.3137 2 14 4.68629 14 8C14 11.3137 11.3137 14 8 14C4.68629 14 2 11.3137 2 8Z" fill="#2D3137"/>
<path d="M8 4C8.51284 4 8.93551 4.38604 8.99327 4.88338L9 5V7H11C11.5128 7 11.9355 7.38604 11.9933 7.88338L12 8C12 8.51284 11.614 8.93551 11.1166 8.99327L11 9H8C7.48716 9 7.06449 8.61396 7.00673 8.11662L7 8V5C7 4.44772 7.44772 4 8 4Z" fill="#2D3137"/>
</svg>
