<svg width="13" height="17" viewBox="0 0 13 17" fill="none" xmlns="http://www.w3.org/2000/svg">
<path d="M9.6487 2.51015C9.6487 3.89647 8.52487 5.0203 7.13855 5.0203C5.75223 5.0203 4.6284 3.89647 4.6284 2.51015C4.6284 1.12383 5.75223 0 7.13855 0C8.52487 0 9.6487 1.12383 9.6487 2.51015Z" fill="#2D3137"/>
<path d="M3.99407 5.89126C4.40769 5.61375 4.89453 5.46556 5.39262 5.46556H7.1387C7.15092 5.46556 7.16312 5.46565 7.1753 5.46582H8.45856C8.95666 5.46582 9.44349 5.61401 9.85711 5.89152L12.6069 7.7365C13.0035 8.00258 13.1117 8.53846 12.8494 8.93755C12.6317 9.26879 12.2177 9.41115 11.8423 9.28386L9.64883 8.54008L9.64877 8.93453C9.64875 9.08723 9.56402 9.22733 9.4288 9.29827C7.99471 10.0506 6.28252 10.0506 4.84843 9.2983C4.71317 9.22734 4.62845 9.08719 4.62847 8.93445L4.62856 8.39529L2.00885 9.2836C1.63347 9.41089 1.21949 9.26853 1.00179 8.93729C0.7395 8.5382 0.847683 8.00232 1.24425 7.73624L3.99407 5.89126Z" fill="#2D3137"/>
<path d="M8.01508 12.0051L8.82484 12.9679C8.92851 13.0911 8.9423 13.2667 8.85914 13.4046L8.14861 14.5832C7.85209 15.075 8.05369 15.7154 8.57848 15.9487C8.99294 16.1329 9.47983 16.0002 9.74341 15.6311L10.7348 14.2428C11.4361 13.2606 11.3393 11.9184 10.5042 11.0472L9.8297 10.3434C9.73515 10.2447 9.57904 10.2398 9.47849 10.3324L8.0372 11.6588C7.9384 11.7498 7.92865 11.9023 8.01508 12.0051Z" fill="#2D3137"/>
<path d="M5.45091 12.9679L6.26066 12.0051C6.34709 11.9023 6.33735 11.7498 6.23855 11.6588L4.79946 10.3344C4.69804 10.2411 4.54032 10.247 4.44616 10.3476L3.74101 11.1014C2.91738 11.9818 2.83603 13.3235 3.54725 14.297L4.52845 15.6401C4.79496 16.0048 5.27987 16.1342 5.69269 15.9507C6.21991 15.7164 6.42245 15.073 6.12455 14.5789L5.41661 13.4046C5.33345 13.2667 5.34723 13.0911 5.45091 12.9679Z" fill="#2D3137"/>
</svg>
