<svg xmlns="http://www.w3.org/2000/svg" width="24" height="24" fill="none"><path fill="#333" d="M17.9999 21.6v-8.4l3.1955 2.8294a1.2 1.2 0 0 1 .4045.8984V21.12a.48.48 0 0 1-.48.48h-3.12ZM5.9999 21.6v-8.4l-3.1955 2.8294a1.1998 1.1998 0 0 0-.4045.8984V21.12a.48.48 0 0 0 .48.48h3.12Z"/><path fill="#333" fill-rule="evenodd" d="M11.0999 2.76a.36.36 0 0 1 .36-.36h1.08a.36.36 0 0 1 .36.36v1.1025h1.0275a.36.36 0 0 1 .36.36v1.08a.36.36 0 0 1-.36.36h-1.0275V6.9l3.5485 3.5486c.2251.225.3515.5302.3515.8485V21.12a.48.48 0 0 1-.48.48h-8.64a.48.48 0 0 1-.48-.48v-9.8229c0-.3183.1264-.6235.3515-.8485L11.0999 6.9V5.6625h-1.0275a.36.36 0 0 1-.36-.36v-1.08a.36.36 0 0 1 .36-.36h1.0275V2.76Zm-.9 14.64c0-.9941.8059-1.8 1.8-1.8.9941 0 1.8.8059 1.8 1.8v4.2h-3.6v-4.2Zm1.8-4.5825c.7953 0 1.44-.6447 1.44-1.44 0-.7953-.6447-1.44-1.44-1.44-.7953 0-1.44.6447-1.44 1.44 0 .7953.6447 1.44 1.44 1.44Z" clip-rule="evenodd"/></svg>