<svg width="24" height="24" fill="none" xmlns="http://www.w3.org/2000/svg"><path d="M12.2 6.16c-5.596 0-10.133 4.466-10.133 9.975h20.266c0-5.509-4.536-9.975-10.133-9.975z" fill="#333"/><path fill-rule="evenodd" clip-rule="evenodd" d="M10.656 13.938V3.667h3.04v10.271h-3.04zM.8 19.8c0-.839.68-1.52 1.52-1.52h19.76a1.52 1.52 0 0 1 0 3.04H2.32c-.84 0-1.52-.68-1.52-1.52z" fill="#333"/><path fill-rule="evenodd" clip-rule="evenodd" d="M8.4 3.667c0-.7.567-1.267 1.267-1.267h5.066a1.267 1.267 0 0 1 0 2.533H9.667c-.7 0-1.267-.567-1.267-1.266z" fill="#333"/></svg>