<svg width="24" height="24" fill="none" xmlns="http://www.w3.org/2000/svg"><path fill-rule="evenodd" clip-rule="evenodd" d="M1.2 2.9c0-.745.604-1.35 1.35-1.35h18.9c.745 0 1.35.605 1.35 1.35v8.912a1.35 1.35 0 0 1-1.35 1.35H2.55a1.35 1.35 0 0 1-1.35-1.35V2.9zm2.7 2.194a1.35 1.35 0 1 1 2.7 0 1.35 1.35 0 0 1-2.7 0zm0 4.83c0-.597.483-1.08 1.08-1.08h14.04a1.08 1.08 0 0 1 0 2.16H4.98a1.08 1.08 0 0 1-1.08-1.08z" fill="#333"/><path d="M5.764 16.068a1.08 1.08 0 0 0-1.412-1.634l-.864.747a2.16 2.16 0 0 0-.033 3.239l1.583 1.425-.8.722a1.08 1.08 0 1 0 1.445 1.605l.8-.721a2.16 2.16 0 0 0 0-3.21L4.9 16.814l.864-.747zM12.915 14.545a1.08 1.08 0 0 1-.11 1.523l-.865.747 1.583 1.425a2.16 2.16 0 0 1 0 3.21l-.8.722a1.08 1.08 0 1 1-1.446-1.605l.801-.721-1.583-1.426a2.16 2.16 0 0 1 .033-3.24l.864-.746a1.08 1.08 0 0 1 1.523.11zM19.955 14.545a1.08 1.08 0 0 1-.11 1.523l-.864.747 1.582 1.425a2.16 2.16 0 0 1 0 3.21l-.8.722a1.08 1.08 0 1 1-1.446-1.605l.801-.721-1.583-1.426a2.16 2.16 0 0 1 .033-3.24l.864-.746a1.08 1.08 0 0 1 1.523.11z" fill="#333"/></svg>