<svg width="16" height="15" viewBox="0 0 16 15" fill="none" xmlns="http://www.w3.org/2000/svg">
<path fill-rule="evenodd" clip-rule="evenodd" d="M16 3.33355V14.5002C16 14.7764 15.7739 15.0002 15.4977 15.0002C15.2709 15.0002 15.0707 14.8475 15.0126 14.6282L14.2222 11.6423L1.77778 11.6424L0.987378 14.6282C0.929322 14.8475 0.729139 15.0002 0.502276 15.0002C0.226133 15.0002 0 14.7764 0 14.5002V0.111328H0.888889L1.62849 1.22073C1.72583 1.36674 1.77778 1.53831 1.77778 1.7138V4.22244H14.2222L14.8508 3.5939C15.0175 3.4272 15.2436 3.33355 15.4793 3.33355H16ZM3.55556 5.1365H1.77778V9.37312H3.55556V5.1365ZM6.22222 5.1365H4.44444V9.37312H6.22222V5.1365ZM7.11111 5.1365H8.88889V9.37312H7.11111V5.1365ZM11.5556 5.1365H9.77778V9.37312H11.5556V5.1365ZM12.4444 5.1365H14.2222V9.37312H12.4444V5.1365Z" fill="#2D3137"/>
</svg>
