<svg width="24" height="24" fill="none" xmlns="http://www.w3.org/2000/svg"><path d="M12.55 4.177c0 3.058-.085 3.058-3.058 3.058a3.058 3.058 0 1 1 3.058-3.058z" fill="#333"/><path fill-rule="evenodd" clip-rule="evenodd" d="M8.895 11.182a4.423 4.423 0 1 0 3.677 6.88 4.55 4.55 0 0 0 .504-1.071 5.442 5.442 0 0 0 .137-.495l.005-.02v-.002l.038-.201.87-1.498a1.223 1.223 0 0 1 2.115 1.228l-.67 1.154-.007.03c-.036.144-.09.342-.166.572a6.974 6.974 0 0 1-.792 1.661A6.868 6.868 0 1 1 8.895 8.736h6.702a1.223 1.223 0 0 1 0 2.446H8.895z" fill="#333"/><path fill-rule="evenodd" clip-rule="evenodd" d="M9.492 7.643c.9 0 1.631.73 1.631 1.63v3.89h4.121a2.99 2.99 0 0 1 2.94 2.44l.752 4.016h1.407a1.63 1.63 0 1 1 0 3.262h-2.76a1.63 1.63 0 0 1-1.603-1.33l-.961-5.126H10.85a2.99 2.99 0 0 1-2.99-2.99V9.274c0-.901.73-1.631 1.631-1.631z" fill="#333"/></svg>