<svg width="24" height="24" fill="none" xmlns="http://www.w3.org/2000/svg"><path fill-rule="evenodd" clip-rule="evenodd" d="M4.927 5.412a2.89 2.89 0 1 1 5.754.505l-.493 3.916a.96.96 0 1 1-1.905-.24l.493-3.916a.97.97 0 1 0-1.931-.17l-.012.242a.96.96 0 1 1-1.918-.096l.012-.241zM18.886 19.231a2.842 2.842 0 1 0-.361-5.657l-4.784.654A.96.96 0 0 0 14 16.13l4.784-.654a.922.922 0 1 1 .117 1.835l-.311-.003a.96.96 0 1 0-.016 1.92l.31.003z" fill="#333"/><path d="M2.432 20.858a.6.6 0 0 0 .77.77l8.782-3.196L4.61 14.87l-2.179 5.988zM5.23 13.17l9.114 4.403 1.765-.641a.6.6 0 0 0 .219-.988L8.116 7.732a.6.6 0 0 0-.988.219l-1.899 5.22z" fill="#333"/><path fill-rule="evenodd" clip-rule="evenodd" d="M17.638 5.376a.968.968 0 1 0 1.369-1.369.968.968 0 0 0-1.37 1.37zM16.28 6.734a2.888 2.888 0 1 0 4.084-4.084 2.888 2.888 0 0 0-4.084 4.084z" fill="#333"/><path d="M21.408 11.503a1.2 1.2 0 1 1-1.697-1.697 1.2 1.2 0 0 1 1.697 1.697zM13.898 7.103A1.2 1.2 0 1 1 12.2 5.406a1.2 1.2 0 0 1 1.697 1.697z" fill="#333"/><path fill-rule="evenodd" clip-rule="evenodd" d="M17.748 9.334a.96.96 0 0 1-.291 1.326l-.005.003a.96.96 0 1 1-1.035-1.617l.005-.003a.96.96 0 0 1 1.326.291zm-2.465 1.576a.96.96 0 0 1-.291 1.326l-.01.006a.96.96 0 1 1-1.034-1.617l.01-.007a.96.96 0 0 1 1.325.292zm-2.47 1.58a.96.96 0 0 1-.291 1.325l-.005.003a.96.96 0 1 1-1.034-1.617l.005-.004a.96.96 0 0 1 1.326.292z" fill="#333"/></svg>