<svg width="24" height="24" fill="none" xmlns="http://www.w3.org/2000/svg"><path fill-rule="evenodd" clip-rule="evenodd" d="M21.438 6.306a.43.43 0 0 0 0-.508c-.586-.82-2.919-3.346-9.438-3.346-7.255 0-9.113 2.604-9.507 3.383a.405.405 0 0 0 .031.418C3 6.947 4.963 9.225 10.422 9.6H5.28a.48.48 0 0 0-.48.48v1.44c0 .265.215.48.48.48H16.2a.6.6 0 0 1 0 1.2H5.28a.48.48 0 0 0-.48.48v1.44c0 .265.215.48.48.48h1.318a3 3 0 0 0 .002 6h13.32a.48.48 0 0 0 .48-.48v-1.44a.48.48 0 0 0-.48-.48H6.6a.6.6 0 1 1 0-1.2h13.32a.48.48 0 0 0 .48-.48v-1.44a.48.48 0 0 0-.48-.48h-3.718a3 3 0 0 0-.002-6h-2.623c5.327-.366 7.325-2.543 7.861-3.294z" fill="#333"/></svg>