<svg width="24" height="24" fill="none" xmlns="http://www.w3.org/2000/svg"><path d="M7.272 2.4a2.753 2.753 0 0 0-2.753 2.753v4.103h3.117V7.473c0-1.14.924-2.065 2.065-2.065h4.598c1.14 0 2.065.924 2.065 2.065v1.783h3.117V5.153A2.753 2.753 0 0 0 16.728 2.4H7.272zM19.481 11.126h-3.117v.002H7.636v-.002H4.519v.014a2.753 2.753 0 0 0-2.494 2.74v7.262c0 .456.37.826.826.826h1.34c.457 0 .827-.37.827-.826v-2.167h13.964v2.167c0 .456.37.826.826.826h1.34c.457 0 .827-.37.827-.826V13.88a2.753 2.753 0 0 0-2.494-2.741v-.014z" fill="#333"/></svg>