<svg width="16" height="16" viewBox="0 0 16 16" fill="none" xmlns="http://www.w3.org/2000/svg">
<path d="M12.6918 4.73176V5.25922H14.3574L14.0366 2.16446C13.9735 1.48123 13.4428 0.960938 12.809 0.960938H5.17237C5.0387 0.960938 4.90961 0.98408 4.78853 1.02701C5.56023 1.17567 6 1.91146 6 2.57143V3.52145C6.00874 3.51702 6.01754 3.51269 6.02641 3.50846C6.94107 3.07244 7.92917 2.85443 8.9907 2.85443C10.0522 2.85443 11.0403 3.07244 11.955 3.50844C12.4027 3.72186 12.6918 4.20178 12.6918 4.73176Z" fill="#2D3137"/>
<path d="M2.07867 10.7982C2.016 10.4747 2.00761 10.1461 2.05108 9.82513C2.20775 10.4361 2.71874 11 3.5 11H4.5C5.44968 11 6 10.1668 6 9.42857V8H7.5C8.32843 8 9 7.32843 9 6.5V6.30752H13.3961C13.8639 6.30752 14.2914 6.59409 14.5001 7.04756L15.5046 8.62036C15.9185 9.2684 16.0677 10.0506 15.9215 10.8055L14.9155 15.9996H13.9373L13.3961 13.6581C13.2856 13.4528 13.0827 13.3266 12.8633 13.3266H5.11662C4.89723 13.3266 4.69434 13.4528 4.5838 13.6581L4.04266 15.9996H3.08606L2.07867 10.7982Z" fill="#2D3137"/>
<path d="M4.5 2C4.77614 2 5 2.25584 5 2.57143V5H7.5C7.77614 5 8 5.22386 8 5.5V6.5C8 6.77614 7.77614 7 7.5 7H5V9.42857C5 9.74416 4.77614 10 4.5 10H3.5C3.22386 10 3 9.74416 3 9.42857V7H0.5C0.223858 7 0 6.77614 0 6.5V5.5C0 5.22386 0.223858 5 0.5 5H3V2.57143C3 2.25584 3.22386 2 3.5 2H4.5Z" fill="#2D3137"/>
</svg>
