<svg width="24" height="24" fill="none" xmlns="http://www.w3.org/2000/svg"><path fill-rule="evenodd" clip-rule="evenodd" d="M11.4 10.5a.3.3 0 0 0-.3.3v1.837H9.3V10.8c0-1.16.94-2.1 2.1-2.1h1.2c1.16 0 2.1.94 2.1 2.1v1.837h-1.8V10.8a.3.3 0 0 0-.3-.3h-1.2z" fill="#333"/><path fill-rule="evenodd" clip-rule="evenodd" d="M12 4.8A7.2 7.2 0 0 0 4.8 12v7.2H2.4V12a9.6 9.6 0 1 1 19.2 0v7.2h-2.4V12A7.2 7.2 0 0 0 12 4.8z" fill="#333"/><path d="M1.2 20.4a1.2 1.2 0 0 1 1.2-1.2h19.2a1.2 1.2 0 0 1 0 2.4H2.4a1.2 1.2 0 0 1-1.2-1.2z" fill="#333"/><path d="M6 22.8a1.2 1.2 0 1 1-2.4 0 1.2 1.2 0 0 1 2.4 0zM20.4 22.8a1.2 1.2 0 1 1-2.4 0 1.2 1.2 0 0 1 2.4 0zM13.2 1.2a1.2 1.2 0 1 1-2.4 0 1.2 1.2 0 0 1 2.4 0zM6 13.2A1.2 1.2 0 0 1 7.2 12h9.6a1.2 1.2 0 0 1 1.2 1.2V18a1.2 1.2 0 0 1-1.2 1.2H7.2A1.2 1.2 0 0 1 6 18v-4.8z" fill="#333"/></svg>