<svg width="24" height="24" fill="none" xmlns="http://www.w3.org/2000/svg"><path d="M13.358 16.837v-2.065h1.417a.48.48 0 0 1 .48.48v1.586a.48.48 0 0 1-.48.48h-.937a.48.48 0 0 1-.48-.48z" fill="#333"/><path fill-rule="evenodd" clip-rule="evenodd" d="M5.76 8.785V7.2a5.04 5.04 0 0 1 5.04-5.04h2.4a5.04 5.04 0 0 1 5.04 5.04v1.517c2.846 1.664 3.936 4.55 3.07 7.47C19.71 21.6 19.337 21.6 12.089 21.6c-7.249 0-7.659 0-9.373-5.413-.926-2.925.221-5.743 3.045-7.402zM8.64 7.2a2.16 2.16 0 0 1 2.16-2.16h2.4a2.16 2.16 0 0 1 2.16 2.16v.413c-.971-.219-2.05-.338-3.236-.338-1.276 0-2.44.135-3.484.383V7.2zm1.297 2.945a.72.72 0 0 1 .42.655v7.238a.72.72 0 0 1-1.44 0v-5.666l-.61.526a.72.72 0 1 1-.94-1.09l1.8-1.553a.72.72 0 0 1 .77-.11zm3.9-.027c-1.06 0-1.92.86-1.92 1.92v4.8c0 1.06.86 1.92 1.92 1.92h.938c1.06 0 1.92-.86 1.92-1.92v-1.586c0-1.06-.86-1.92-1.92-1.92h-1.417v-1.295a.48.48 0 0 1 .48-.48h.937a.48.48 0 0 1 .48.48v.038a.72.72 0 1 0 1.44 0v-.037c0-1.06-.86-1.92-1.92-1.92h-.937z" fill="#333"/></svg>