<svg width="24" height="24" fill="none" xmlns="http://www.w3.org/2000/svg"><path fill-rule="evenodd" clip-rule="evenodd" d="M14.35 2.725l-7.188 2.08v6.01l6.599 1.893-.939 2.93h-.747a1.163 1.163 0 0 0 0 2.324h.003l-.664 2.072a1.2 1.2 0 0 0 1.143 1.566h2.617a1.2 1.2 0 0 0 1.143-.834l2.672-8.34a5.4 5.4 0 0 0-3.839-9.923v-.01l-.1.03c-.24.052-.473.12-.7.202zM15.6 7.2a1.8 1.8 0 1 0 3.6 0 1.8 1.8 0 0 0-3.6 0z" fill="#333"/><path d="M6 4.8L3.268 3.434a.6.6 0 0 0-.868.537v7.658a.6.6 0 0 0 .868.537L6 10.8v-6z" fill="#333"/></svg>