<svg width="24" height="24" fill="none" xmlns="http://www.w3.org/2000/svg"><path d="M5.764 3.097a1.08 1.08 0 1 0-1.413-1.634l-.863.747a2.16 2.16 0 0 0-.033 3.239l1.583 1.426-.801.72a1.08 1.08 0 1 0 1.445 1.606l.801-.721a2.16 2.16 0 0 0 0-3.21L4.9 3.843l.864-.747zM12.915 1.574a1.08 1.08 0 0 1-.11 1.523l-.865.747 1.583 1.425a2.16 2.16 0 0 1 0 3.21l-.8.722a1.08 1.08 0 0 1-1.446-1.605l.8-.721-1.582-1.426a2.16 2.16 0 0 1 .033-3.24l.864-.746a1.08 1.08 0 0 1 1.523.11zM19.955 1.574a1.08 1.08 0 0 1-.11 1.523l-.865.747 1.583 1.425a2.16 2.16 0 0 1 0 3.21l-.8.722a1.08 1.08 0 0 1-1.446-1.605l.801-.721-1.583-1.426a2.16 2.16 0 0 1 .033-3.24l.864-.746a1.08 1.08 0 0 1 1.523.11z" fill="#333"/><path fill-rule="evenodd" clip-rule="evenodd" d="M1.2 11.85a1.2 1.2 0 0 1 1.2-1.2h19.2a1.2 1.2 0 0 1 1.2 1.2v8.4a1.2 1.2 0 0 1-1.2 1.2h-1.5v.15a1.2 1.2 0 0 1-1.2 1.2h-.3a1.2 1.2 0 0 1-1.2-1.2v-.15H6.6v.15a1.2 1.2 0 0 1-1.2 1.2h-.3a1.2 1.2 0 0 1-1.2-1.2v-.15H2.4a1.2 1.2 0 0 1-1.2-1.2v-8.4zm10.65 1.5a1.2 1.2 0 0 0-1.2 1.2v3a1.2 1.2 0 0 0 1.2 1.2h.3a1.2 1.2 0 0 0 1.2-1.2v-3a1.2 1.2 0 0 0-1.2-1.2h-.3zm-6.75 0a1.2 1.2 0 0 0-1.2 1.2v3a1.2 1.2 0 0 0 1.2 1.2h.3a1.2 1.2 0 0 0 1.2-1.2v-3a1.2 1.2 0 0 0-1.2-1.2h-.3zm12.3 1.2a1.2 1.2 0 0 1 1.2-1.2h.3a1.2 1.2 0 0 1 1.2 1.2v3a1.2 1.2 0 0 1-1.2 1.2h-.3a1.2 1.2 0 0 1-1.2-1.2v-3z" fill="#333"/></svg>