<svg xmlns="http://www.w3.org/2000/svg" width="24" height="24" fill="none"><path fill="#333" fill-rule="evenodd" d="M3.3109 8.1557a.6.6 0 0 0 .5086.2818H20.182a.6.6 0 0 0 .5089-.2821l.5444-.8716c.1929-.3087.0686-.7167-.2636-.8655L12.0001 2.4 3.0289 6.4181c-.3324.1489-.4565.557-.2634.8658l.5454.8718Z" clip-rule="evenodd"/><path fill="#333" d="M4.8 8.0792h1.8v7.5396H4.8V8.0792ZM9 8.0792h1.8v7.5396H9V8.0792ZM13.2 8.0792H15v7.5396h-1.8V8.0792ZM17.4 8.0792h1.8v7.5396h-1.8V8.0792ZM2.4 19.4798c0-.6628.5373-1.2 1.2-1.2h16.8c.6628 0 1.2.5372 1.2 1.2V21.6H2.4v-2.1202Z"/><path fill="#333" d="M3.6 16.8c0-.6627.5373-1.2 1.2-1.2h14.4c.6628 0 1.2.5373 1.2 1.2v.7219H3.6V16.8Z"/></svg>