<svg width="25" height="20" viewBox="0 0 25 20" xmlns="http://www.w3.org/2000/svg"><title>Group 3</title><g fill="#292F37" fill-rule="evenodd"><path d="M23.552 18.4761h-.909l-.568-1.488c-.088-.233-.311-.387-.56-.387H9.264c-.249 0-.472.154-.561.387l-.567 1.488h-.909v-5.748c0-.311.253-.564.563-.564h15.199c.31 0 .563.253.563.564v5.748zM9.025 5.8861h12.729c.581 0 1.054.473 1.054 1.054v4.024h-1.195c.002-.597.051-1.414.238-1.898.039-.101.035-.213-.01-.311-.045-.098-.129-.174-.23-.21-1.654-.582-3.953-.584-5.717-.003-.112.037-.201.121-.245.229-.045.108-.039.231.014.335.173.333.191 1.169.155 1.858h-1.234c-.027-.593-.015-1.415.171-1.897.039-.101.035-.214-.01-.312-.045-.098-.129-.174-.23-.21-1.676-.589-3.828-.591-5.617-.003-.112.037-.201.121-.245.229-.045.108-.039.231.014.335.173.333.191 1.169.155 1.858h-.851v-4.024c0-.581.473-1.054 1.054-1.054zm7.502 3.302c1.416-.378 3.116-.379 4.455-.003-.137.586-.167 1.284-.169 1.779h-4.196c.026-.515.032-1.226-.09-1.776zm-6.996 0c1.4-.376 3.035-.377 4.359-.002-.127.585-.127 1.279-.105 1.778H9.621c.026-.515.032-1.226-.09-1.776zm14.078 1.894v-4.142c0-1.022-.832-1.854-1.855-1.854H9.025c-1.023 0-1.855.832-1.855 1.854v4.143c-.666.252-1.142.892-1.142 1.645v6.348c0 .332.268.6.599.6H8.55c.249 0 .472-.154.561-.387l.567-1.488h11.423l.567 1.488c.089.233.312.387.561.387h1.923c.331 0 .599-.268.599-.6v-6.348c0-.753-.476-1.393-1.142-1.646z"/><path d="M22.4563 14.4018H8.3223c-.22 0-.4.179-.4.4 0 .221.18.4.4.4h14.134c.221 0 .4-.179.4-.4 0-.221-.179-.4-.4-.4M1.2981 5.0058l.583-3.992h2.351l.582 3.992h-3.516zm3.279-4.792h-3.042c-.198 0-.367.146-.395.342l-.7 4.792c-.017.115.016.232.092.32.077.088.187.138.303.138h1.842v13.1h-.542c-.221 0-.4.18-.4.4 0 .221.179.4.4.4h1.842c.22 0 .4-.179.4-.4 0-.22-.18-.4-.4-.4h-.499v-13.1h1.799c.116 0 .226-.05.302-.138.076-.088.11-.205.093-.32l-.699-4.792c-.029-.196-.197-.342-.396-.342z"/><path d="M4.6975 6.5239c-.03-.04-.07-.07-.12-.09-.151-.06-.33-.02-.441.09-.04.04-.069.08-.089.13-.02.05-.031.1-.031.15 0 .11.04.21.12.29.04.03.081.06.13.08.051.02.101.03.151.03.059 0 .11-.01.16-.03.05-.02.09-.05.12-.08.08-.08.13-.18.13-.29 0-.05-.021-.1-.04-.15-.021-.05-.05-.09-.09-.13M4.4172 8.5342c.22 0 .4-.18.4-.4 0-.22-.18-.4-.4-.4-.22 0-.4.18-.4.4 0 .22.18.4.4.4M4.6975 9.1841c-.101-.11-.28-.15-.431-.09-.049.02-.09.05-.13.09-.04.03-.069.08-.089.13-.02.05-.031.1-.031.15 0 .05.011.1.031.15.02.05.049.1.089.13.04.04.081.07.13.09.051.02.101.03.151.03.11 0 .21-.04.28-.12.04-.03.069-.08.09-.13.019-.05.04-.1.04-.15 0-.05-.021-.1-.04-.15-.021-.05-.05-.1-.09-.13"/></g></svg>
