<svg width="24" height="24" fill="none" xmlns="http://www.w3.org/2000/svg"><path d="M22.913 7.712c-6.157-5.683-15.669-5.683-21.826 0a1.51 1.51 0 0 0-.082 2.14c.57.614 1.532.65 2.148.082 4.991-4.608 12.703-4.608 17.694 0a1.524 1.524 0 0 0 2.148-.082 1.51 1.51 0 0 0-.082-2.14z" fill="#333"/><path d="M5.533 12.44c3.107-3.557 8.522-3.932 12.093-.836.3.259.58.539.84.837a1.51 1.51 0 0 1-.148 2.136 1.524 1.524 0 0 1-2.145-.148 5.546 5.546 0 0 0-8.347 0 1.524 1.524 0 0 1-2.144.148 1.51 1.51 0 0 1-.149-2.136zM11.464 20.329a.76.76 0 0 0 1.072 0l1.659-1.652c.45-.449.41-1.19-.088-1.586l-.117-.093a3.192 3.192 0 0 0-3.98 0l-.117.093a1.064 1.064 0 0 0-.087 1.586l1.658 1.652z" fill="#333"/></svg>