<svg width="24" height="24" fill="none" xmlns="http://www.w3.org/2000/svg"><path d="M15.905 3.6a4.8 4.8 0 0 1 4.774 4.306L21.6 16.8h-2.859v-.005H2.4l.043-.195a9.425 9.425 0 0 1 5.447-6.596 4.293 4.293 0 0 0 1.057 1.73 4.318 4.318 0 0 0 7.336-2.509h1.45l-.12-.9a2.122 2.122 0 0 0-2.103-1.842l-.001-.003H7.44a1.44 1.44 0 0 1 0-2.88h8.465z" fill="#333"/><path d="M9.674 9.645a2.517 2.517 0 0 1-.072-.197 9.434 9.434 0 0 1 2.042-.223h2.814a2.526 2.526 0 0 1-.678 1.236 2.516 2.516 0 0 1-4.106-.816zM21.6 19.92V18.6H2.4v1.32c0 .265.215.48.48.48h18.24a.48.48 0 0 0 .48-.48z" fill="#333"/></svg>