<svg width="24" height="24" fill="none" xmlns="http://www.w3.org/2000/svg"><path fill-rule="evenodd" clip-rule="evenodd" d="M12 21.052c6.047 0 10.948-4.175 10.948-9.326C22.948 6.576 18.047 2.4 12 2.4c-6.047 0-10.948 4.175-10.948 9.326 0 5.15 4.901 9.326 10.948 9.326zM12.97 9.91a.72.72 0 0 0-1.44 0v.576H9.08c.344-.512.677-1.086.977-1.644.103-.19.203-.382.3-.573h6.814a.72.72 0 0 0 0-1.44h-6.118c.18-.392.334-.747.453-1.036a.72.72 0 0 0-1.33-.55c-.172.414-.42.975-.713 1.586H6.617a.72.72 0 0 0 0 1.44h2.112c-.58 1.063-1.173 1.973-1.646 2.405a.72.72 0 0 0 .485 1.252h3.963v3.533a.48.48 0 0 1-.48.48h-.98a.72.72 0 0 0 0 1.44h.98c1.06 0 1.92-.86 1.92-1.92v-3.533h3.514a.72.72 0 1 0 0-1.44h-3.514v-.576zm.832 3.177a.72.72 0 0 1 .993-.223c.68.431 2.273 1.636 3.192 3.063a.72.72 0 1 1-1.21.78c-.756-1.174-2.15-2.244-2.752-2.626a.72.72 0 0 1-.223-.994zm-6.801 3.838a.72.72 0 0 1-.77-1.217c.602-.381 1.995-1.452 2.752-2.626a.72.72 0 0 1 1.21.78c-.92 1.427-2.512 2.632-3.192 3.063z" fill="#333"/><path d="M22.948 21.477c-1.916-2.19-1.995-4.334-1.796-5.132l-5.645 2.994c2.326 2.395 5.93 2.423 7.441 2.138z" fill="#333"/></svg>