<svg width="24" height="24" fill="none" xmlns="http://www.w3.org/2000/svg"><path d="M5.93 1.202v5.96c0 .317.257.577.578.577h.505c.32 0 .578-.26.578-.578V1.202h1.661V7.15c0 .324.263.59.588.59h.486a.59.59 0 0 0 .588-.59V1.202h2.22c.175 2.563.272 4.416.272 4.984 0 2.178-1.406 4.007-3.35 4.687.015.101.042.193.047.297l.394 9.968c.036.914-.357 1.662-.874 1.662H7.22c-.516 0-.91-.748-.873-1.662l.393-9.968c.005-.104.032-.196.047-.297-1.944-.68-3.35-2.509-3.35-4.687 0-.568.097-2.42.271-4.984H5.93zM19.72 1.2a.821.821 0 0 1 .843.823v19.199c.008.872-.368 1.578-.87 1.578h-2.4c-.517 0-.91-.748-.874-1.661l.25-6.367a.818.818 0 0 0-.172-.531c-1.508-1.934-2.35-3.861-1.915-5.46 1.845-6.742 3.26-7.51 5.138-7.58z" fill="#333"/></svg>