<svg width="24" height="24" fill="none" xmlns="http://www.w3.org/2000/svg"><path fill-rule="evenodd" clip-rule="evenodd" d="M2.809 4.85H21.19a.36.36 0 0 1 .282.584l-9.191 11.561a.36.36 0 0 1-.564 0L2.527 5.435a.36.36 0 0 1 .282-.585zM8.393 8.1h7.214a.36.36 0 0 1 .282.584l-3.607 4.537a.36.36 0 0 1-.564 0L8.112 8.684a.36.36 0 0 1 .281-.584z" fill="#333"/><path fill-rule="evenodd" clip-rule="evenodd" d="M12 14.1a1.2 1.2 0 0 1 1.2 1.2v5.175a1.2 1.2 0 1 1-2.4 0V15.3a1.2 1.2 0 0 1 1.2-1.2z" fill="#333"/><path fill-rule="evenodd" clip-rule="evenodd" d="M7.2 20.475a1.2 1.2 0 0 1 1.2-1.2h7.2a1.2 1.2 0 0 1 0 2.4H8.4a1.2 1.2 0 0 1-1.2-1.2zM18.151 2.598a.9.9 0 0 1 .139 1.265l-2.92 3.638a.9.9 0 0 1-1.404-1.127l2.92-3.637a.9.9 0 0 1 1.265-.139z" fill="#333"/></svg>