<svg width="24" height="24" fill="none" xmlns="http://www.w3.org/2000/svg"><path fill-rule="evenodd" clip-rule="evenodd" d="M12 20.4a5.4 5.4 0 1 0 0-10.8 5.4 5.4 0 0 0 0 10.8zm.984-9.35a.6.6 0 0 1-.102.843l-4.29 3.367a.6.6 0 1 1-.742-.944l4.291-3.367a.6.6 0 0 1 .843.101zm1.649 1.137a.6.6 0 0 1-.102.843l-5.355 4.203a.6.6 0 0 1-.74-.944l5.354-4.203a.6.6 0 0 1 .843.101z" fill="#333"/><path fill-rule="evenodd" clip-rule="evenodd" d="M13.286 3.288a1.44 1.44 0 1 0-2.572 0L8.407 7.541a8.277 8.277 0 1 0 7.186 0l-2.307-4.253zm-1.616.754a1.445 1.445 0 0 0 .66 0l1.573 2.9a8.301 8.301 0 0 0-3.806 0l1.573-2.9zM12 21.6a6.6 6.6 0 1 0 0-13.2 6.6 6.6 0 0 0 0 13.2z" fill="#333"/></svg>