<svg xmlns="http://www.w3.org/2000/svg" width="24" height="24" fill="none"><path fill="#333" d="M6.3 11.9483h1.8v8.2267H6.3v-8.2267ZM12.1801 12.7185h1.44v8.1289h-1.44v-8.1289ZM18.7801 12.7185h1.44v8.1289h-1.44v-8.1289Z"/><path fill="#333" d="M2.4 20.28a.48.48 0 0 1 .48-.48h18.24a.48.48 0 0 1 .48.48v.84a.48.48 0 0 1-.48.48H2.88a.48.48 0 0 1-.48-.48v-.84ZM10.8 17.3711a.48.48 0 0 1 .48-.48h9.84a.48.48 0 0 1 .48.48v.84a.48.48 0 0 1-.48.48h-9.84a.48.48 0 0 1-.48-.48v-.84ZM10.8 13.8102a.48.48 0 0 1 .48-.48h9.84a.48.48 0 0 1 .48.48v1.44a.48.48 0 0 1-.48.48h-9.84a.48.48 0 0 1-.48-.48v-1.44Z"/><path fill="#333" fill-rule="evenodd" d="M10.9316 6.2373a3.6514 3.6514 0 0 0 .049-.5844c0-1.3217-.7004-2.4387-1.6722-2.862-.4236-.9628-1.251-1.6257-2.215-1.6257-1.2418 0-2.2679 1.089-2.477 2.5213-.8328.4976-1.41 1.5277-1.41 2.7274 0 .0308.0066.0617.0066.0925-.5005.6363-.813 1.4926-.813 2.4415 0 1.9551 1.3081 3.5402 2.9233 3.5402.151 0 .298-.028.4436-.0546.4329.4288.9797.6951 1.582.6951.478 0 .9202-.171 1.3002-.4499.102.0112.1986.0365.3019.0365 1.6841 0 3.049-1.6538 3.049-3.693 0-1.1185-.4196-2.108-1.0684-2.7849Z" clip-rule="evenodd"/></svg>