<svg width="24" height="24" fill="none" xmlns="http://www.w3.org/2000/svg"><path fill-rule="evenodd" clip-rule="evenodd" d="M19.292 2.737v1.917a3.265 3.265 0 0 0-1.624.709 1 1 0 0 0-.95-.686h-2.854a1 1 0 0 0-1 1v.064a1 1 0 0 0 1 1h2.73c-.104.214-.19.436-.258.662a4.008 4.008 0 0 0-1.068 1.55h-1.404a1 1 0 0 0-1 1v.065a1 1 0 0 0 1 1h.72a4.992 4.992 0 0 0-.3 2.212h-.42a1 1 0 0 0-1 1v.064a1 1 0 0 0 1 1h1.078c.588 1.005 1.536 1.768 2.75 1.94v.272h-3.828a1 1 0 0 0-1 1v.064a1 1 0 0 0 1 1h3.827v1.664h1.42v-5.049a2.216 2.216 0 0 1-.51-.381l-.015.003a2.041 2.041 0 0 1-.37.044c-1.398 0-2.531-1.373-2.531-3.066 0-.822.27-1.564.704-2.115a.359.359 0 0 0-.003-.04c-.002-.013-.003-.027-.003-.04 0-1.04.5-1.932 1.221-2.363.181-1.24 1.07-2.184 2.146-2.184.835 0 1.552.575 1.919 1.409.841.366 1.448 1.334 1.448 2.479 0 .175-.016.342-.043.506.563.586.926 1.443.926 2.412 0 1.767-1.182 3.2-2.641 3.2-.057 0-.112-.01-.167-.019a1.801 1.801 0 0 0-.095-.014c-.162.12-.338.216-.524.284v4.934h2.758c.209 0 .379.17.379.379v.893c0 .21-.17.379-.38.379H.38A.379.379 0 0 1 0 22.506v-.893c0-.21.17-.38.379-.38h1.46V7.547c0-.21.075-.38.167-.38h3.62c.093 0 .167.17.167.38v1.528H4.18a1 1 0 0 0-1 1v.065a1 1 0 0 0 1 1h1.613v2.215H4.18a1 1 0 0 0-1 1v.065a1 1 0 0 0 1 1h1.613v2.214H4.18a1 1 0 0 0-1 1v.066a1 1 0 0 0 1 1h1.613v1.535H7.45V2.737a.5.5 0 0 1 .5-.5h10.843a.5.5 0 0 1 .5.5zm-9.188 1.94a1 1 0 0 0-1 1v.064a1 1 0 0 0 1 1h.437a1 1 0 0 0 1-1v-.064a1 1 0 0 0-1-1h-.437zm0 4.277a1 1 0 0 0-1 1v.064a1 1 0 0 0 1 1h.437a1 1 0 0 0 1-1v-.064a1 1 0 0 0-1-1h-.437zm0 4.276a1 1 0 0 0-1 1v.064a1 1 0 0 0 1 1h.437a1 1 0 0 0 1-1v-.064a1 1 0 0 0-1-1h-.437zm0 4.276a1 1 0 0 0-1 1v.064a1 1 0 0 0 1 1h.437a1 1 0 0 0 1-1v-.064a1 1 0 0 0-1-1h-.437z" fill="#333"/></svg>