<svg width="24" height="24" fill="none" xmlns="http://www.w3.org/2000/svg"><path d="M14.816 9.144c1.648.476 3.469-.825 4.07-2.907.6-2.079-.249-4.15-1.897-4.626-1.649-.476-3.47.825-4.07 2.907-.6 2.079.249 4.15 1.897 4.626zM17.292 10.843c.818-2.005 2.768-3.104 4.355-2.456 1.588.648 2.211 2.795 1.393 4.8-.818 2.006-2.767 3.103-4.355 2.457-1.588-.646-2.21-2.795-1.393-4.8zM9.182 9.144c1.648-.476 2.496-2.547 1.896-4.626-.6-2.079-2.423-3.38-4.069-2.904S4.512 4.16 5.113 6.24c.6 2.079 2.42 3.38 4.069 2.904zM6.708 10.843c.818 2.003.195 4.153-1.393 4.801-1.587.648-3.537-.45-4.355-2.456-.818-2.003-.195-4.153 1.393-4.8 1.587-.65 3.537.452 4.355 2.455zM19.496 19.677c.583 2.506-2.322 3.05-3.601 2.724-1.28-.326-3.89-.38-3.89-.38s-2.616.054-3.896.38c-1.279.328-4.186-.218-3.606-2.724.267-1.15.952-1.75 1.682-2.39.858-.752 1.78-1.559 2.16-3.385.698-3.378 3.663-3.16 3.663-3.16s2.958-.218 3.657 3.16c.377 1.827 1.297 2.634 2.154 3.386.728.64 1.41 1.239 1.677 2.39z" fill="#333"/></svg>