<svg width="24" height="24" fill="none" xmlns="http://www.w3.org/2000/svg"><path d="M15.375 13.35a2.025 2.025 0 1 0 0-4.05 2.025 2.025 0 0 0 0 4.05z" fill="#333"/><path fill-rule="evenodd" clip-rule="evenodd" d="M2.55 3.9A1.35 1.35 0 0 0 1.2 5.25V17.4c0 .746.604 1.35 1.35 1.35H3.9a1.35 1.35 0 1 0 2.7 0h9.45a1.35 1.35 0 1 0 2.7 0h1.35a1.35 1.35 0 0 0 1.35-1.35v-1.35h.675a.675.675 0 0 0 .675-.675v-1.35a.675.675 0 0 0-.675-.675h-.675V9.3h.675a.675.675 0 0 0 .675-.675v-1.35a.675.675 0 0 0-.675-.675h-.675V5.25A1.35 1.35 0 0 0 20.1 3.9H2.55zM3.9 7.275c0-.373.302-.675.675-.675h1.35c.373 0 .675.302.675.675v8.1a.675.675 0 0 1-.675.675h-1.35a.675.675 0 0 1-.675-.675v-8.1zm11.475 8.775a4.725 4.725 0 1 0 0-9.45 4.725 4.725 0 0 0 0 9.45z" fill="#333"/></svg>