<svg xmlns="http://www.w3.org/2000/svg" width="24" height="24" fill="none"><path fill="#333" d="M16.7865 6.6a.6.6 0 0 1 .6-.6H21a.6.6 0 0 1 .6.6v1.68a.6.6 0 0 1-.6.6h-3.6135a.6.6 0 0 1-.6-.6V6.6ZM2.4 6.6A.6.6 0 0 1 3 6h3.5936a.6.6 0 0 1 .6.6v1.68a.6.6 0 0 1-.6.6H3a.6.6 0 0 1-.6-.6V6.6Z"/><path fill="#333" fill-rule="evenodd" d="M5.082 15.2424c-1.2513-2.3016-1.6824-5.0212-1.7068-6.8302l1.7998-.0243c.0218 1.611.4155 4.0213 1.4883 5.9947 1.0542 1.939 2.7052 3.3774 5.305 3.3774 2.6097 0 4.2846-1.423 5.3644-3.3305 1.0989-1.9414 1.5243-4.3114 1.5677-5.8934l1.7994.0494c-.049 1.7845-.5177 4.4641-1.8007 6.7307-1.3021 2.3004-3.4969 4.2438-6.9308 4.2438-3.444 0-5.6164-1.9816-6.8864-4.3176Z" clip-rule="evenodd"/><path fill="#333" d="M10.8 18.48a.48.48 0 0 1 .48-.48h1.44a.48.48 0 0 1 .48.48v3.84a.48.48 0 0 1-.48.48h-1.44a.48.48 0 0 1-.48-.48v-3.84Z"/><path fill="#333" fill-rule="evenodd" d="M6.1625 3.9761a.462.462 0 0 1 .264-.3395C8.171 2.8446 10.0852 2.4 12.0984 2.4c1.9167 0 3.7469.3973 5.4235 1.119a.4619.4619 0 0 1 .2714.339c.1577.8396.2442 1.7269.2442 2.648 0 5.2039-2.7073 9.4231-6.0478 9.4231-3.3405 0-6.049-4.2192-6.049-9.4231 0-.8777.0781-1.7253.2218-2.5299Zm6.475 6.4952a.6.6 0 1 0-1.2 0v2.305a.6.6 0 0 0 1.2 0v-2.305ZM10.8 7.3941c0 .806-.6533 1.4593-1.4593 1.4593-.8059 0-1.4592-.6534-1.4592-1.4593 0-.806.6533-1.4593 1.4592-1.4593.806 0 1.4593.6534 1.4593 1.4593Zm3.8593 1.4593c.8059 0 1.4593-.6534 1.4593-1.4593 0-.806-.6534-1.4593-1.4593-1.4593-.8059 0-1.4593.6534-1.4593 1.4593 0 .806.6534 1.4593 1.4593 1.4593Z" clip-rule="evenodd"/></svg>