<svg xmlns="http://www.w3.org/2000/svg" width="18" height="18" fill="none"><path fill="#2D3137" fill-rule="evenodd" d="M7.2036 0C3.2252 0 0 3.2252 0 7.2036c0 3.9784 3.2252 7.2036 7.2036 7.2036 1.607 0 3.1262-.5613 4.3246-1.4509l4.0014 3.9984a.6.6 0 0 0 .8486 0l.584-.5841a.5998.5998 0 0 0 0-.8485l-4.0021-3.9976c.8884-1.198 1.4471-2.715 1.4471-4.3209C14.4072 3.2252 11.182 0 7.2036 0Zm0 12.3211c2.8263 0 5.1175-2.2912 5.1175-5.1175S10.0299 2.086 7.2036 2.086 2.086 4.3773 2.086 7.2036s2.2912 5.1175 5.1175 5.1175Z" clip-rule="evenodd"/></svg>