<svg width="24" height="24" fill="none" xmlns="http://www.w3.org/2000/svg"><path d="M5.265 7.5a2.16 2.16 0 0 1 2.16-2.16h3.525a2.16 2.16 0 0 1 2.16 2.16v.222a6.078 6.078 0 0 0-4.605 5.303c-.033.33.239.599.57.599h10.95c.331 0 .603-.27.57-.6a6.076 6.076 0 0 0-4.605-5.302V7.5a5.04 5.04 0 0 0-5.04-5.04H7.425a5.04 5.04 0 0 0-5.04 5.04v12.713a1.44 1.44 0 1 0 2.88 0V7.5z" fill="#333"/><path d="M15.788 16.537a1.2 1.2 0 1 1-2.4 0 1.2 1.2 0 0 1 2.4 0zM14.588 21.626a1.2 1.2 0 1 0 0-2.4 1.2 1.2 0 0 0 0 2.4zM19.988 16.537a1.2 1.2 0 1 1-2.4 0 1.2 1.2 0 0 1 2.4 0zM19.725 21.626a1.2 1.2 0 1 0 0-2.4 1.2 1.2 0 0 0 0 2.4zM11.588 16.537a1.2 1.2 0 1 1-2.4 0 1.2 1.2 0 0 1 2.4 0zM9.45 21.626a1.2 1.2 0 1 0 0-2.4 1.2 1.2 0 0 0 0 2.4z" fill="#333"/></svg>