<svg width="24" height="24" fill="none" xmlns="http://www.w3.org/2000/svg"><path d="M7.426 21.424c1.448-.088 3.165-.874 3.197-3.047.013-.877.002-1.633-.009-2.39-.012-.829-.024-1.659-.005-2.651-1.254-.568-2.711-.819-4.127-.788-1.24.027-2.4.268-3.327.665.173 1.107.357 2.22.528 3.26.153.925.296 1.792.414 2.544.36 1.689 1.882 2.496 3.33 2.407zM6.456 11.348c1.393-.03 2.86.185 4.193.704.018-.418.042-.865.073-1.35.02-.296.08-.702.148-1.168.055-.368.115-.774.164-1.192-1.342-.715-2.973-1.031-4.552-.997-1.548.034-2.971.402-3.974.989.098 1.072.265 2.34.46 3.66 1.046-.4 2.258-.619 3.488-.646zM6.456 6.145c1.565-.034 3.223.243 4.68.91.024-.79-.048-1.533-.323-2.06-.75-1.444-2.112-2.648-4.146-2.523S2.603 4.17 2.437 6.061a8.309 8.309 0 0 0-.016.963c1.157-.548 2.584-.847 4.035-.879zM15.849 21.43c-1.44-.173-3.109-1.057-3.015-3.228.038-.877.094-1.63.149-2.387.054-.748.109-1.497.147-2.369.992-.534 2.347-.866 3.813-.898 1.264-.027 2.56.17 3.716.616-.257 1.198-.531 2.413-.786 3.54-.206.915-.4 1.772-.56 2.516-.459 1.665-2.024 2.383-3.464 2.21zM20.909 11.976c-1.279-.464-2.668-.657-3.992-.628-1.332.03-2.643.284-3.745.75.01-.478.013-.995.01-1.564-.002-.296-.038-.705-.08-1.174-.03-.328-.06-.685-.085-1.054 1-.57 2.403-.928 3.926-.96 1.604-.036 3.262.291 4.617 1.03a61.51 61.51 0 0 1-.651 3.6zM21.702 7.103c-1.482-.702-3.182-.992-4.785-.958-1.411.031-2.8.315-3.94.835.016-.83.127-1.614.446-2.149.833-1.397 2.262-2.52 4.285-2.277 2.023.243 3.96 1.93 4.015 3.828.006.208-.001.45-.02.721z" fill="#333"/></svg>