<svg xmlns="http://www.w3.org/2000/svg" fill="none" viewBox="0 0 10 10"><path fill="url(#a)" d="M4.615.482a.4.4 0 0 1 .726 0l1.102 2.372a.4.4 0 0 0 .314.228l2.597.315a.4.4 0 0 1 .224.69L7.662 5.868a.4.4 0 0 0-.12.37l.503 2.567a.4.4 0 0 1-.587.426L5.173 7.96a.4.4 0 0 0-.39 0L2.499 9.23a.4.4 0 0 1-.587-.426l.503-2.567a.4.4 0 0 0-.12-.37L.378 4.088a.4.4 0 0 1 .224-.69L3.2 3.081a.4.4 0 0 0 .315-.228L4.615.482Z"/><defs><linearGradient id="a" x1="4.978" x2="4.978" y1="-.3" y2="10.7" gradientUnits="userSpaceOnUse"><stop stop-color="#FFAF00"/><stop offset="1" stop-color="#F29006"/></linearGradient></defs></svg>