<svg width="24" height="24" fill="none" xmlns="http://www.w3.org/2000/svg"><path d="M7.842 4.8A4.798 4.798 0 0 1 12 2.4c1.777 0 3.328.965 4.158 2.4H7.842zM2.4 6c0 1.992 1.223 3.7 2.96 4.41L6.078 6H2.4z" fill="#333"/><path fill-rule="evenodd" clip-rule="evenodd" d="M5.364 17.962l.29-1.89L7.294 6H19.2a2.4 2.4 0 0 1 2.4 2.4v4.162a2.4 2.4 0 0 1-2.4 2.4h-1.024l.46 3H5.364zM17.076 7.8l.823 5.362H19.2a.6.6 0 0 0 .6-.6V8.4a.6.6 0 0 0-.6-.6h-2.124zM12 8.438c-.673 0-1.219.545-1.219 1.218v4.688a1.219 1.219 0 0 0 2.438 0V9.656c0-.673-.546-1.218-1.219-1.218z" fill="#333"/><path d="M7.596 21.637a2.4 2.4 0 0 1-2.399-2.474h13.606a2.4 2.4 0 0 1-2.4 2.474H7.597z" fill="#333"/></svg>