<svg width="24" height="24" fill="none" xmlns="http://www.w3.org/2000/svg"><path d="M6 2.4a1.2 1.2 0 0 0-1.2 1.2v13.2A1.2 1.2 0 0 0 6 18h2.4a1.2 1.2 0 0 0 1.2-1.2V3.6a1.2 1.2 0 0 0-1.2-1.2H6z" fill="#333"/><path fill-rule="evenodd" clip-rule="evenodd" d="M2.4 7.2c0-.888.483-1.664 1.2-2.079V16.8A2.4 2.4 0 0 0 6 19.2h2.4a2.4 2.4 0 0 0 2.4-2.4v-12h8.4a2.4 2.4 0 0 1 2.4 2.4v12a2.4 2.4 0 0 1-2.4 2.4H4.8a2.4 2.4 0 0 1-2.4-2.4v-12zm11.28 0a.48.48 0 0 0-.48.48v3.84c0 .265.215.48.48.48h5.04a.48.48 0 0 0 .48-.48V7.68a.48.48 0 0 0-.48-.48h-5.04zm-.48 6.48a.48.48 0 0 1 .48-.48h1.44a.48.48 0 0 1 .48.48v1.44a.48.48 0 0 1-.48.48h-1.44a.48.48 0 0 1-.48-.48v-1.44zm4.08-.48a.48.48 0 0 0-.48.48v1.44c0 .265.215.48.48.48h1.44a.48.48 0 0 0 .48-.48v-1.44a.48.48 0 0 0-.48-.48h-1.44zm-4.08 4.08a.48.48 0 0 1 .48-.48h1.44a.48.48 0 0 1 .48.48v1.44a.48.48 0 0 1-.48.48h-1.44a.48.48 0 0 1-.48-.48v-1.44zm4.08-.48a.48.48 0 0 0-.48.48v1.44c0 .265.215.48.48.48h1.44a.48.48 0 0 0 .48-.48v-1.44a.48.48 0 0 0-.48-.48h-1.44z" fill="#333"/></svg>