<svg xmlns="http://www.w3.org/2000/svg" width="24" height="24" fill="none"><path fill="#333" fill-rule="evenodd" d="M10.7442 4.2712c0-.2959.15-.5707.4177-.6967.7182-.338 2.368-.9417 4.9915-.9417 2.6224 0 4.2719.6032 4.9906.9413.2682.1262.4185.4015.4185.698v5.5896c0 3.0396-2.1887 5.4781-5.0418 6.5263-.2148.079-.5116.0802-.7264.0008.2506-1.1723.2408-2.4022-.0893-3.6339l-.1658-.6189c.6754-.1955 1.5003.0154 1.8944.5213.1335.1988.5178.5257.9874.243.3922-.2386.5035-.6998.0858-1.2417-.6973-.9047-2.1474-1.1945-3.3339-.8897l-.6324-2.3601c.2254-.0855.4317-.213.6029-.3857.2197-.2217.5674-.8102.2104-1.1723-.3569-.362-.8104-.3454-1.1572.065a.6322.6322 0 0 1-.0467.0351l-.0927-.3458c-.0931-.3476-.3591-.6206-.7142-.6783-.5229-.085-1.4006-.1724-2.5988-.1012V4.2712Zm8.2688 2.5695c-.279.2312-.7269.1901-.9689.0069-.1405-.194-.5363-.5069-.9955-.2075-.3834.2525-.4826.7731.0114 1.2465.7411.71 2.1546.8134 2.8998.0615.2197-.2217.5674-.8102.2104-1.1723-.3569-.362-.8104-.3455-1.1572.065Z" clip-rule="evenodd"/><path fill="#333" fill-rule="evenodd" d="M2.7536 9.9878c-.226.191-.2997.4953-.2232.781l1.4466 5.3989c.7866 2.9354 3.5405 4.7105 6.5657 4.9986.2285.0217.5159-.0564.7035-.1885 2.4846-1.751 3.9676-4.6729 3.1809-7.609l-1.4467-5.3991c-.0768-.2863-.2932-.5133-.585-.5658-.7816-.1406-2.531-.2963-5.0642.3824-2.534.679-3.9713 1.689-4.5776 2.2015Zm8.8295 2.3545c-.2812-.1144-.7245-.0381-.9342.2574-.2288.4861-.6625.6196-1.101.3622-.4384-.2574-.255-.9158-.1-1.1868.525-.9191 1.9172-1.1851 2.8168-.6911.5997.3293.6386.8579.3336 1.2011-.366.408-.8293.2081-1.0152.0572Zm-5.6218 1.499c.2097-.2955.653-.3718.9341-.2574.186.1509.6492.3508 1.0153-.0572.305-.3432.266-.8718-.3337-1.2011-.8995-.494-2.2916-.228-2.8168.6911-.1549.271-.3384.9294.1001 1.1868.4385.2574.8722.1239 1.101-.3622Zm4.7949 1.678c-.4166.8852-1.7656 1.1572-2.492.6481-.186-.1509-.6492-.3508-1.0152.0572-.305.3432-.2762.8167.282 1.2123 1.2994.9209 3.6476.2698 4.4262-1.093.1549-.271.3384-.9294-.1001-1.1868-.4385-.2574-.8722-.1239-1.1009.3622Z" clip-rule="evenodd"/></svg>