<svg width="24" height="24" fill="none" xmlns="http://www.w3.org/2000/svg"><path fill-rule="evenodd" clip-rule="evenodd" d="M14.607 0c.549 0 .993.59.993 1.318 0 .728-.444 1.318-.993 1.318H13.2V4.8h.6A1.2 1.2 0 0 1 15 6v1.25c1.703.285 3 1.766 3 3.55v12a1.2 1.2 0 0 1-1.2 1.2H7.2A1.2 1.2 0 0 1 6 22.8v-12a3.601 3.601 0 0 1 3-3.55V6a1.2 1.2 0 0 1 1.2-1.2h.6V2.636H8.55a.6.6 0 0 0-.274.065l-1.154.59a.6.6 0 0 1-.837-.33l-.142-.391a.6.6 0 0 1 .178-.664L8.405.153A.805.805 0 0 1 8.87 0h5.737zM8.4 12a1.2 1.2 0 0 1 1.2-1.2h4.8a1.2 1.2 0 0 1 1.2 1.2v2.4a1.2 1.2 0 0 1-1.2 1.2H9.6a1.2 1.2 0 0 1-1.2-1.2V12zm1.2 6a1.2 1.2 0 0 0 0 2.4h4.8a1.2 1.2 0 0 0 0-2.4H9.6z" fill="#333"/></svg>