<svg xmlns="http://www.w3.org/2000/svg" width="24" height="24" fill="none"><path fill="#333" fill-rule="evenodd" d="M4.4024 5.9797c0-.7195.296-1.4282 1.0158-1.8497 1.1313-.6624 3.2622-1.53 6.6632-1.53s5.5319.8676 6.6632 1.53c.7199.4215 1.0158 1.1302 1.0158 1.8497v10.3135c0 1.1046-.8942 1.9986-1.9987 1.9986h-2.1118l1.7499 2.6364a.72.72 0 0 1-1.1998.7963l-.5896-.8882H8.3999a.8874.8874 0 0 1-.0327-.0006l-.5604.8782a.72.72 0 0 1-1.214-.7747l1.6896-2.6474H6.401c-1.1045 0-1.9987-.8954-1.9987-2V5.9797Zm5.5882 12.3121-.475.7445h4.9001l-.4941-.7445h-3.931ZM6.5016 8.1214c-.4593-1.2005.1018-2.5504 1.2767-3.0715a10.612 10.612 0 0 1 8.6063 0c1.1749.5211 1.736 1.871 1.2768 3.0714l-1.2256 3.2038a1.2614 1.2614 0 0 1-1.178.8107H8.9052a1.2614 1.2614 0 0 1-1.178-.8106L6.5016 8.1214Zm1.5797 6.253c-.6181 0-1.1193.5011-1.1193 1.1193 0 .6181.5012 1.1193 1.1193 1.1193h1.601c.6181 0 1.1193-.5012 1.1193-1.1193 0-.6182-.5012-1.1193-1.1193-1.1193h-1.601Zm5.2799 1.1193c0-.6182.5012-1.1193 1.1193-1.1193h1.601c.6181 0 1.1193.5011 1.1193 1.1193 0 .6181-.5012 1.1193-1.1193 1.1193h-1.601c-.6181 0-1.1193-.5012-1.1193-1.1193Z" clip-rule="evenodd"/></svg>