<svg width="24" height="24" fill="none" xmlns="http://www.w3.org/2000/svg"><path d="M2.4 3.6a1.2 1.2 0 0 1 1.2-1.2h16.8a1.2 1.2 0 0 1 1.2 1.2v2.475H2.4V3.6z" fill="#333"/><path fill-rule="evenodd" clip-rule="evenodd" d="M17.4 7.275h4.2V21.12a.48.48 0 0 1-.48.48h-1.44a.48.48 0 0 1-.48-.48v-.72H12V7.275h4.2v.837l-2.775 2.22A.6.6 0 0 0 13.8 11.4h6a.6.6 0 0 0 .375-1.069L17.4 8.111v-.836zm-2.257 10.763a.48.48 0 0 1-.48-.48v-.24a.48.48 0 0 1 .48-.48h3.314a.48.48 0 0 1 .48.48v.24a.48.48 0 0 1-.48.48h-3.315zM2.4 7.275h8.4V20.4h-6v.72a.48.48 0 0 1-.48.48H2.88a.48.48 0 0 1-.48-.48V7.275zm5.955 3.075a.48.48 0 0 0-.48.48v3.315c0 .265.215.48.48.48h.24a.48.48 0 0 0 .48-.48V10.83a.48.48 0 0 0-.48-.48h-.24z" fill="#333"/><path d="M16.8 9.168l1.29 1.032h-2.58l1.29-1.032z" fill="#333"/></svg>