<svg width="24" height="24" fill="none" xmlns="http://www.w3.org/2000/svg"><path d="M13.2 3.12a.72.72 0 0 1 .72-.72h2.16a.72.72 0 0 1 .72.72v1.44a.24.24 0 0 1-.24.24h-3.12a.24.24 0 0 1-.24-.24V3.12zM14.4 20.4H18a1.2 1.2 0 0 0 1.2-1.2V18h-4.8v2.4zM14.4 16.8h4.8v-6h-4.833c.022.197.033.397.033.6v5.4zM14.093 9.6h5.064a4.2 4.2 0 0 0-6.945-2.541 5.413 5.413 0 0 1 1.88 2.541zM7.2 4.32a.72.72 0 0 1 .72-.72h2.16a.72.72 0 0 1 .72.72v1.44a.24.24 0 0 1-.24.24H7.44a.24.24 0 0 1-.24-.24V4.32zM9 7.2a4.2 4.2 0 0 0-4.157 3.6h8.315A4.2 4.2 0 0 0 9 7.2z" fill="#333"/><path fill-rule="evenodd" clip-rule="evenodd" d="M4.8 12v6h8.4v-6H4.8zM9 16.74c.687 0 1.244-.558 1.244-1.245S9 13.33 9 13.33s-1.244 1.478-1.244 2.165.557 1.244 1.244 1.244z" fill="#333"/><path d="M4.8 20.4v-1.2h8.4v1.2a1.2 1.2 0 0 1-1.2 1.2H6a1.2 1.2 0 0 1-1.2-1.2z" fill="#333"/></svg>