<svg viewBox="0 0 20 17" fill="none" xmlns="http://www.w3.org/2000/svg">
    <path d="M10.432 16.197C11.7718 16.197 12.858 15.1108 12.858 13.771C12.858 12.4312 11.7718 11.345 10.432 11.345C9.09214 11.345 8.00598 12.4312 8.00598 13.771C8.00598 15.1108 9.09214 16.197 10.432 16.197Z" fill="#292F37"/>
    <path d="M15.5492 7.92601C15.5152 7.88901 15.4794 7.85601 15.4445 7.82201L15.3417 7.71901C15.3247 7.70001 15.3058 7.68601 15.2841 7.66801C12.3252 4.81801 7.79677 4.93101 4.97274 7.92501L4.64167 8.27701L4.18326 8.76301C3.62486 9.35501 3.62769 10.32 4.18703 10.913C4.74731 11.508 5.65752 11.509 6.21497 10.917L7.0054 10.079C8.80131 8.17601 11.7225 8.17601 13.5175 10.078L14.0881 10.664C14.6408 11.25 15.5426 11.249 16.0981 10.659C16.367 10.375 16.515 9.99601 16.516 9.59301C16.5169 9.19201 16.3707 8.81301 16.1019 8.53001L15.5492 7.92601Z" fill="#292F37"/>
    <path d="M19.3323 4.92702L18.8682 4.42302C18.8663 4.42102 18.8654 4.41802 18.8617 4.41702L18.4952 4.01702C18.4307 3.94802 18.3607 3.88802 18.287 3.83602C13.5781 -0.652985 6.41572 -0.514985 1.85692 4.24702C1.83482 4.26902 1.80995 4.28402 1.78785 4.30802L0.949764 5.21902C0.45244 5.75802 0.455203 6.63502 0.95529 7.17802C1.45446 7.72002 2.26215 7.72402 2.75947 7.18302L3.59755 6.27402C3.60308 6.26602 3.60769 6.25902 3.61321 6.25402C7.29986 2.38702 13.148 2.36302 16.8641 6.17502L17.5236 6.89202C18.02 7.43102 18.8295 7.42902 19.3287 6.88702C19.8269 6.34402 19.8287 5.46602 19.3323 4.92702Z" fill="#292F37"/>
</svg>
