<svg width="24" height="24" viewBox="0 0 24 24" fill="none" xmlns="http://www.w3.org/2000/svg">
<path d="M13.543 13.543C12.286 14.84 12.2 16.457 12.086 20C15.389 20 17.669 19.989 18.846 18.846C19.989 17.669 20 15.28 20 12.086C16.457 12.2 14.84 12.286 13.543 13.543ZM11.914 20C8.611 20 6.331 19.989 5.154 18.846C4.011 17.669 4 15.28 4 12.086C7.543 12.2 9.16 12.286 10.457 13.543C11.714 14.84 11.8 16.457 11.914 20ZM10.457 10.457C9.16 11.714 7.543 11.8 4 11.914C4 8.72 4.011 6.331 5.154 5.154C6.331 4.011 8.617 4 11.914 4C11.8 7.543 11.714 9.16 10.457 10.457ZM12.086 4C12.194 7.543 12.286 9.16 13.543 10.457C14.84 11.714 16.457 11.8 20 11.914C20 8.72 19.989 6.331 18.846 5.154C17.669 4.011 15.389 4 12.086 4Z" fill="#1F52B2"/>
</svg>
