<svg width="9" height="12" viewBox="0 0 9 12" fill="none" xmlns="http://www.w3.org/2000/svg">
<path fill-rule="evenodd" clip-rule="evenodd" d="M4.23356 0.0276805C4.22416 0.0457107 4.21987 0.178629 4.224 0.323047C4.24755 1.1437 3.93358 1.80104 3.17015 2.5294C3.05745 2.63695 2.73161 2.92191 2.4461 3.16264C1.61852 3.8604 1.39619 4.07062 1.04371 4.4887C0.579321 5.03949 0.246311 5.71012 0.0971326 6.39509C0.0210963 6.74412 -0.0202314 7.34311 0.0100228 7.65704C0.207078 9.70075 1.91452 11.2978 4.10434 11.4865C6.06689 11.6557 7.92487 10.5575 8.64451 8.80297C8.793 8.44093 8.86286 8.13923 8.9014 7.69342C8.97435 6.84986 8.82263 6.0306 8.45304 5.27234C8.31832 4.99594 8.1162 4.68367 8.06266 4.66921C7.97858 4.64653 7.94349 4.69656 7.94803 4.83267C7.95749 5.11557 7.79874 5.44033 7.56098 5.62457C7.33533 5.79943 7.09501 5.86489 6.77999 5.83733C6.37302 5.80172 6.04962 5.56198 5.8817 5.17143C5.81951 5.02676 5.81769 5.00894 5.84032 4.76334C5.85854 4.56596 5.88977 4.423 5.97536 4.14552C6.14696 3.58916 6.18494 3.19421 6.11636 2.6794C6.05769 2.23904 5.85968 1.71121 5.60059 1.30459C5.35076 0.912513 4.91038 0.439498 4.50912 0.132233C4.33425 -0.00168758 4.26296 -0.0287321 4.23356 0.0276805ZM3.88561 5.73434C3.71304 5.85069 3.31498 6.18166 3.12329 6.3682C2.48859 6.98584 2.17388 7.6394 2.13716 8.41614C2.12071 8.76413 2.16239 9.00001 2.29357 9.30126C2.54654 9.88223 3.08089 10.3376 3.7312 10.5264C3.99915 10.6041 4.42765 10.6311 4.71656 10.5883C5.36718 10.492 5.92151 10.1458 6.27341 9.61609C6.56208 9.18151 6.6558 8.57733 6.51503 8.05839C6.46549 7.87578 6.43847 7.86688 6.25969 7.97417C5.9819 8.14089 5.67482 8.20882 5.33381 8.17899C4.92923 8.14359 4.63539 8.00113 4.37732 7.71524C4.01866 7.31794 3.93942 6.93307 4.04409 6.0971C4.10713 5.59366 4.10419 5.58696 3.88561 5.73434Z" fill="white"/>
</svg>
