<svg width="24" height="24" viewBox="0 0 24 24" fill="none" xmlns="http://www.w3.org/2000/svg">
<path fill-rule="evenodd" clip-rule="evenodd" d="M9.19731 0.326649C7.56027 0.483366 6.45347 0.771185 5.22052 1.36077C4.21105 1.84349 3.47165 2.35652 2.67355 3.128C0.968781 4.77599 0.143345 6.89636 0.324301 9.16273C0.422009 10.3865 0.691467 11.3758 1.19698 12.3668C1.59075 13.1388 2.0267 13.729 2.70112 14.4031L3.26727 14.9689L3.27985 16.9899L3.29238 19.0108L5.3701 17.8451L7.44781 16.6795L7.94899 16.7388C8.73702 16.832 10.4464 16.8702 11.0244 16.8075C14.5645 16.4236 17.3432 14.3028 18.4002 11.178C18.7055 10.2754 18.792 9.78528 18.8226 8.78569C18.8455 8.03379 18.8352 7.82675 18.7501 7.339C18.3024 4.77272 16.4155 2.44763 13.7664 1.19803C13.0365 0.853765 12.5116 0.671767 11.7965 0.515098C10.9468 0.328879 9.93786 0.255738 9.19731 0.326649ZM8.79101 1.81797C6.79085 2.05821 5.03234 2.86594 3.74911 4.1339C3.14396 4.73183 2.81069 5.17547 2.47745 5.82653C2.01407 6.73187 1.8175 7.5625 1.8162 8.62057C1.81485 9.70028 2.01436 10.584 2.47157 11.523C2.92353 12.4512 3.60768 13.3332 4.37711 13.9797L4.76259 14.3035V15.5743V16.8451L5.97954 16.057C6.64884 15.6236 7.23326 15.2595 7.27824 15.2479C7.32321 15.2363 7.54022 15.2504 7.76046 15.2793C7.98075 15.3081 8.57308 15.3519 9.0768 15.3766C10.9059 15.4663 12.197 15.257 13.481 14.6628C14.1784 14.3401 14.7238 13.9688 15.2922 13.4301C16.2869 12.4874 16.889 11.4133 17.2076 10.0133C17.3584 9.35065 17.3698 7.97711 17.2295 7.38643C16.5863 4.67928 14.2968 2.54212 11.3554 1.90321C10.8332 1.78975 9.41765 1.74269 8.79101 1.81797ZM20.3062 7.20097C20.3248 7.38226 20.3146 7.83239 20.2837 8.20132L20.2275 8.87211L20.4689 9.1743C21.1036 9.96898 21.5704 11.0134 21.7337 12.0041C21.8215 12.5363 21.7985 13.4895 21.6848 14.0381C21.3286 15.7556 20.2885 17.2072 18.6452 18.2797L18.1391 18.6101L18.115 19.8841L18.0909 21.158L16.8442 20.3498L15.5976 19.5417L14.9884 19.6256C14.1893 19.7356 13.0407 19.7375 12.4288 19.6297C11.5495 19.4748 10.7992 19.1674 9.82396 18.5624L9.31782 18.2484L8.28819 18.2645L7.25857 18.2806L7.42053 18.4475C7.50961 18.5392 7.79941 18.7906 8.06453 19.006C9.60483 20.2573 11.1071 20.8556 13.0019 20.9723C13.7005 21.0154 13.974 21.008 14.8916 20.9211L15.4522 20.8679L17.4878 22.084C18.6073 22.7528 19.5427 23.3 19.5663 23.3C19.5908 23.3 19.6093 22.4267 19.6093 21.2697V19.2395L19.8864 19.046C21.268 18.0815 22.4147 16.5805 22.9269 15.0665C23.4228 13.6009 23.4241 12.0452 22.9308 10.5644C22.732 9.96751 22.2717 9.08053 21.8869 8.5527C21.5479 8.08753 20.8021 7.28412 20.4669 7.02286L20.2726 6.87146L20.3062 7.20097ZM4.69028 7.59352C4.1223 7.84804 3.88548 8.51029 4.16501 9.06231C4.44184 9.60892 5.08189 9.819 5.63025 9.54328C6.32969 9.19157 6.44441 8.23898 5.84587 7.75346C5.5325 7.49932 5.04964 7.43244 4.69028 7.59352ZM9.20883 7.56834C8.50159 7.82072 8.26226 8.6987 8.74835 9.25745C9.28437 9.87369 10.2066 9.77219 10.5688 9.0571C10.8456 8.51044 10.6063 7.84691 10.0409 7.59352C9.82246 7.49562 9.4446 7.48419 9.20883 7.56834ZM13.5291 7.63749C13.1703 7.82139 12.9572 8.16504 12.9572 8.55981C12.9572 9.01075 13.16 9.35526 13.5356 9.54252C14.0821 9.81492 14.7612 9.59289 15.0256 9.05534C15.3735 8.34822 14.8384 7.50501 14.0418 7.50501C13.8574 7.50501 13.7166 7.54139 13.5291 7.63749Z" fill="#BCC4F8" stroke="#BCC4F8" stroke-width="0.6"/>
</svg>
