<svg width="17" height="14" viewBox="0 0 17 14" fill="none" xmlns="http://www.w3.org/2000/svg">
<path fill-rule="evenodd" clip-rule="evenodd" d="M0.995757 0.319723C0.763089 0.587529 0.718133 1.0686 0.718133 3.28621V5.93297L1.32874 5.5012C1.6644 5.26364 2.04184 5.06942 2.16748 5.06942C2.32902 5.06942 2.39562 4.81788 2.39562 4.2078C2.39562 2.81755 2.87404 2.53733 5.24735 2.53733C7.36669 2.53733 8.09908 2.85409 8.09908 3.77078C8.09908 4.07879 8.19117 4.19538 8.43458 4.19538C8.67798 4.19538 8.77008 4.07879 8.77008 3.77078C8.77008 2.85409 9.50247 2.53733 11.6218 2.53733C13.9951 2.53733 14.4735 2.81755 14.4735 4.2078C14.4735 4.81788 14.5401 5.06942 14.7017 5.06942C14.8273 5.06942 15.2048 5.26364 15.5404 5.5012L16.151 5.93297V3.25579C16.151 0.884177 16.116 0.545575 15.8442 0.289307C15.5689 0.0297174 14.8065 0 8.40539 0C1.70903 0 1.25644 0.0195785 0.995757 0.319723ZM4.10347 5.15788C1.57432 5.63545 0.31151 6.703 0.102662 8.53953L0 9.44294L8.45303 9.39749L16.9059 9.35221L16.9589 8.6792C16.994 8.23554 16.951 8.04552 16.8331 8.12139C16.7314 8.18694 16.6543 8.09884 16.6543 7.91722C16.6543 7.74153 16.4671 7.31081 16.2384 6.96014C15.7008 6.13558 14.3893 5.46764 12.6884 5.15158C10.9978 4.83763 5.77962 4.84147 4.10347 5.15788ZM0.0894101 8.82779C0.0912554 9.21237 0.125644 9.34907 0.165736 9.13161C0.205828 8.91414 0.204318 8.59949 0.162381 8.43237C0.120444 8.26526 0.0875649 8.44321 0.0894101 8.82779ZM0.0471374 12.0649V13.9846H1.22138H2.39562V13.1455C2.39562 12.684 2.48621 12.2121 2.59692 12.0967C2.88528 11.7962 13.9839 11.7962 14.2722 12.0967C14.383 12.2121 14.4735 12.6875 14.4735 13.1532V14L15.6897 13.9486L16.9059 13.8972L16.953 11.9743L17 10.0514L8.52365 10.0983L0.0471374 10.1451V12.0649ZM0.110546 12.0617C0.110546 13.1674 0.13789 13.6196 0.171104 13.0669C0.204318 12.514 0.204318 11.6093 0.171104 11.0566C0.13789 10.5037 0.110546 10.9561 0.110546 12.0617Z" fill="#BCC4F8"/>
</svg>
