<svg width="24" height="14" viewBox="0 0 24 14" fill="none" xmlns="http://www.w3.org/2000/svg">
<path d="M5.42138 3.92691C5.37875 3.34662 5.19911 2.8948 4.88244 2.57143C4.56882 2.24806 4.16081 2.08638 3.6584 2.08638C3.3052 2.08638 3.00224 2.1639 2.74951 2.31894C2.49679 2.47398 2.30344 2.68439 2.16947 2.95017C2.03549 3.21595 1.96698 3.51938 1.96394 3.86047C1.96394 4.14396 2.00809 4.38981 2.09639 4.59801C2.18774 4.8062 2.31105 4.98339 2.46634 5.12957C2.62163 5.27132 2.79366 5.39092 2.98244 5.48837C3.17123 5.58582 3.36153 5.66777 3.55336 5.73422L4.43028 6.05316C4.78348 6.17276 5.12298 6.33444 5.44878 6.53821C5.77763 6.74197 6.07146 6.99889 6.33027 7.30897C6.59213 7.61905 6.79918 7.99336 6.95143 8.43189C7.10367 8.87043 7.17979 9.38428 7.17979 9.97342C7.17979 10.7708 7.03973 11.4729 6.7596 12.0797C6.47947 12.6822 6.0745 13.1539 5.5447 13.495C5.01794 13.8317 4.38004 14 3.631 14C2.90328 14 2.27147 13.8361 1.73557 13.5083C1.20272 13.1805 0.785575 12.7021 0.484133 12.0731C0.185737 11.4441 0.0243589 10.6777 0 9.77409H1.66706C1.69142 10.2481 1.7919 10.6423 1.9685 10.9568C2.14511 11.2713 2.37499 11.5061 2.65817 11.6611C2.94438 11.8162 3.26409 11.8937 3.6173 11.8937C3.98573 11.8937 4.30848 11.814 4.58557 11.6545C4.86569 11.4906 5.08492 11.2647 5.24326 10.9767C5.40159 10.6844 5.48228 10.3433 5.48532 9.95349C5.48228 9.59911 5.41072 9.30676 5.27066 9.07641C5.1306 8.84164 4.9342 8.64673 4.68148 8.49169C4.4318 8.33223 4.13949 8.19048 3.80456 8.06645L2.74038 7.66777C1.97003 7.37985 1.36105 6.94352 0.913459 6.3588C0.468909 5.76966 0.246634 4.98782 0.246634 4.01329C0.246634 3.21152 0.395832 2.50941 0.694229 1.90698C0.995671 1.30454 1.4052 0.83721 1.92283 0.504983C2.44046 0.168328 3.0266 0 3.68124 0C4.34502 0 4.92659 0.168328 5.42595 0.504983C5.92835 0.83721 6.32266 1.30011 6.60888 1.89369C6.89509 2.48283 7.04277 3.16058 7.05191 3.92691H5.42138Z" fill="#1F52B2"/>
<path d="M8.69042 13.794V0.186047H12.1981C12.9167 0.186047 13.5196 0.380952 14.0068 0.770764C14.497 1.16058 14.8669 1.69657 15.1166 2.37874C15.3693 3.05648 15.4957 3.82724 15.4957 4.69103C15.4957 5.56368 15.3693 6.33887 15.1166 7.01661C14.8639 7.69435 14.4909 8.22813 13.9976 8.61794C13.5044 9.00332 12.8969 9.19601 12.1753 9.19601H9.85052V7.16944H11.9469C12.3671 7.16944 12.7112 7.06312 12.9791 6.8505C13.2471 6.63787 13.445 6.34552 13.5729 5.97342C13.7038 5.60133 13.7693 5.17386 13.7693 4.69103C13.7693 4.2082 13.7038 3.78295 13.5729 3.41528C13.445 3.04762 13.2455 2.7619 12.9745 2.55814C12.7066 2.34994 12.361 2.24585 11.9378 2.24585H10.3849V13.794H8.69042Z" fill="#1F52B2"/>
<path d="M17.1262 13.794H15.3176L18.6106 0.186047H20.7024L24 13.794H22.1914L19.693 2.97674H19.62L17.1262 13.794ZM17.1856 8.45847H22.1183V10.4385H17.1856V8.45847Z" fill="#1F52B2"/>
</svg>
