<svg width="24" height="24" viewBox="0 0 24 24" fill="none" xmlns="http://www.w3.org/2000/svg">
<g clip-path="url(#clip0_135_3472)">
<path d="M12 19C11.4167 19 10.9236 18.801 10.5208 18.4029C10.1181 18.0049 9.91667 17.5176 9.91667 16.9412C9.91667 16.3647 10.1181 15.8775 10.5208 15.4794C10.9236 15.0814 11.4167 14.8824 12 14.8824C12.5833 14.8824 13.0764 15.0814 13.4792 15.4794C13.8819 15.8775 14.0833 16.3647 14.0833 16.9412C14.0833 17.5176 13.8819 18.0049 13.4792 18.4029C13.0764 18.801 12.5833 19 12 19ZM7.29167 14.3471L5.54167 12.5765C6.36111 11.7667 7.32292 11.125 8.42708 10.6515C9.53125 10.1779 10.7222 9.94118 12 9.94118C13.2778 9.94118 14.4688 10.1814 15.5729 10.6618C16.6771 11.1422 17.6389 11.7941 18.4583 12.6176L16.7083 14.3471C16.0972 13.7431 15.3889 13.2696 14.5833 12.9265C13.7778 12.5833 12.9167 12.4118 12 12.4118C11.0833 12.4118 10.2222 12.5833 9.41667 12.9265C8.61111 13.2696 7.90278 13.7431 7.29167 14.3471ZM3.75 10.8471L2 9.11765C3.27778 7.82745 4.77083 6.81863 6.47917 6.09118C8.1875 5.36373 10.0278 5 12 5C13.9722 5 15.8125 5.36373 17.5208 6.09118C19.2292 6.81863 20.7222 7.82745 22 9.11765L20.25 10.8471C19.1806 9.7902 17.941 8.96324 16.5312 8.36618C15.1215 7.76912 13.6111 7.47059 12 7.47059C10.3889 7.47059 8.87847 7.76912 7.46875 8.36618C6.05903 8.96324 4.81944 9.7902 3.75 10.8471Z" fill="#1F52B2"/>
</g>
<defs>
<clipPath id="clip0_135_3472">
<rect width="24" height="24" fill="white"/>
</clipPath>
</defs>
</svg>
