<svg width="24" height="24" viewBox="0 0 24 24" fill="none" xmlns="http://www.w3.org/2000/svg">
<path fill-rule="evenodd" clip-rule="evenodd" d="M7.82065 4.34748C6.31413 5.09376 4.90165 5.8602 4.68207 6.05086C3.82723 6.79265 4.45997 8.34436 5.61725 8.34436C5.89208 8.34436 7.14043 7.84027 8.3913 7.22416C9.64217 6.60804 10.7444 6.10709 10.841 6.11112C11.1601 6.12389 12.3069 8.18462 12.072 8.32307C11.9476 8.39633 10.4548 9.26292 8.7547 10.2487C7.05438 11.2345 5.66085 12.1004 5.65788 12.173C5.64761 12.4149 6.80558 12.8252 7.49812 12.8252C7.87384 12.8252 8.59605 12.6175 9.10302 12.3636L10.0247 11.9021L10.9271 12.3636C12.0672 12.947 12.9581 12.9477 14.1188 12.3666C14.9773 11.9366 15.0805 11.9301 15.7612 12.2635C16.4336 12.5928 16.5087 12.5904 16.7762 12.2312C17.44 11.3404 17.13 10.4564 14.9643 7.06352C13.8088 5.2535 12.679 3.59112 12.4534 3.36977C11.7611 2.69025 10.725 2.90869 7.82065 4.34748ZM17.7324 6.31074C16.2622 7.75401 17.2681 10.1367 19.3478 10.1367C20.6825 10.1367 21.6304 9.20624 21.6304 7.89628C21.6304 5.85505 19.2029 4.8677 17.7324 6.31074ZM4.20454 13.152C3.97332 13.3241 3.38258 13.5313 2.89204 13.6129C2.21845 13.7245 2 13.8656 2 14.1891C2 14.7235 3.00823 14.7716 4.17578 14.2928C4.86696 14.0094 5.06783 14.0094 5.759 14.2928C6.19429 14.4714 6.9681 14.6175 7.47826 14.6175C7.98842 14.6175 8.76223 14.4714 9.19752 14.2928C9.8887 14.0094 10.0896 14.0094 10.7807 14.2928C11.7915 14.7073 13.2085 14.7073 14.2193 14.2928C14.9104 14.0094 15.1113 14.0094 15.8025 14.2928C16.8132 14.7073 18.2303 14.7073 19.241 14.2928C19.9322 14.0094 20.133 14.0094 20.8242 14.2928C21.9858 14.7692 23 14.7232 23 14.1943C23 13.8826 22.7745 13.7296 22.144 13.6138C21.6733 13.5271 21.0057 13.2925 20.6603 13.0924C20.0732 12.7521 19.9849 12.7562 19.2953 13.1561C18.8614 13.4077 18.1317 13.5835 17.5217 13.5835C16.9118 13.5835 16.1821 13.4077 15.7482 13.1561C15.0227 12.7353 14.999 12.7353 14.2736 13.1561C13.3128 13.713 11.6872 13.713 10.7264 13.1561C10.001 12.7353 9.97726 12.7353 9.25185 13.1561C8.32283 13.6947 6.60105 13.7186 5.80123 13.2042C5.09316 12.749 4.76127 12.738 4.20454 13.152ZM4.20454 15.8405C3.97332 16.0126 3.38258 16.2198 2.89204 16.3014C2.21845 16.4129 2 16.5541 2 16.8776C2 17.4119 3.00823 17.4601 4.17578 16.9813C4.86696 16.6979 5.06783 16.6979 5.759 16.9813C6.19429 17.1599 6.9681 17.306 7.47826 17.306C7.98842 17.306 8.76223 17.1599 9.19752 16.9813C9.8887 16.6979 10.0896 16.6979 10.7807 16.9813C11.7915 17.3958 13.2085 17.3958 14.2193 16.9813C14.9104 16.6979 15.1113 16.6979 15.8025 16.9813C16.8132 17.3958 18.2303 17.3958 19.241 16.9813C19.9322 16.6979 20.133 16.6979 20.8242 16.9813C21.9858 17.4576 23 17.4117 23 16.8828C23 16.5711 22.7745 16.4181 22.144 16.3023C21.6733 16.2156 21.0057 15.981 20.6603 15.7809C20.0732 15.4406 19.9849 15.4446 19.2953 15.8446C18.3346 16.4015 16.7089 16.4015 15.7482 15.8446C15.0227 15.4238 14.999 15.4238 14.2736 15.8446C13.8397 16.0961 13.1099 16.272 12.5 16.272C11.8901 16.272 11.1603 16.0961 10.7264 15.8446C10.001 15.4238 9.97726 15.4238 9.25185 15.8446C8.32283 16.3831 6.60105 16.4071 5.80123 15.8927C5.09316 15.4375 4.76127 15.4265 4.20454 15.8405ZM4.20454 18.529C3.97332 18.7011 3.38258 18.9083 2.89204 18.9899C2.21845 19.1014 2 19.2426 2 19.5661C2 20.1004 3.00823 20.1486 4.17578 19.6698C4.86696 19.3864 5.06783 19.3864 5.759 19.6698C6.19429 19.8484 6.9681 19.9944 7.47826 19.9944C7.98842 19.9944 8.76223 19.8484 9.19752 19.6698C9.8887 19.3864 10.0896 19.3864 10.7807 19.6698C11.7915 20.0843 13.2085 20.0843 14.2193 19.6698C14.9104 19.3864 15.1113 19.3864 15.8025 19.6698C16.8132 20.0843 18.2303 20.0843 19.241 19.6698C19.9322 19.3864 20.133 19.3864 20.8242 19.6698C21.9858 20.1461 23 20.1002 23 19.5712C23 19.2596 22.7745 19.1066 22.144 18.9907C21.6733 18.904 21.0057 18.6695 20.6603 18.4694C20.0732 18.1291 19.9849 18.1331 19.2953 18.533C18.3346 19.09 16.7089 19.09 15.7482 18.533C15.0227 18.1123 14.999 18.1123 14.2736 18.533C13.8397 18.7846 13.1099 18.9605 12.5 18.9605C11.8901 18.9605 11.1603 18.7846 10.7264 18.533C10.001 18.1123 9.97726 18.1123 9.25185 18.533C8.32283 19.0716 6.60105 19.0956 5.80123 18.5812C5.09316 18.126 4.76127 18.115 4.20454 18.529Z" fill="#1F52B2"/>
</svg>
