<svg width="24" height="24" viewBox="0 0 24 24" fill="none" xmlns="http://www.w3.org/2000/svg">
<path fill-rule="evenodd" clip-rule="evenodd" d="M6.14954 4.39275C5.82213 4.73175 5.77022 5.775 5.77022 12C5.77022 19.9218 5.78446 20 7.21894 20C8.47764 20 8.66766 19.522 8.66766 16.3573V13.5H12.048H15.4284V16.3573C15.4284 19.522 15.6184 20 16.8771 20C18.3116 20 18.3258 19.9218 18.3258 12C18.3258 4.07825 18.3116 4 16.8771 4C15.6184 4 15.4284 4.478 15.4284 7.64275V10.5H12.048H8.66766V7.64275C8.66766 4.478 8.47764 4 7.21894 4C6.83962 4 6.3584 4.17675 6.14954 4.39275ZM2.76918 6.39275C2.44853 6.725 2.38986 7.593 2.38986 12C2.38986 17.8135 2.43912 18 3.97645 18H4.8044V12V6H3.97645C3.52131 6 2.97804 6.17675 2.76918 6.39275ZM19.2916 12V18H20.1196C21.6569 18 21.7062 17.8135 21.7062 12C21.7062 6.1865 21.6569 6 20.1196 6H19.2916V12ZM0.0733485 10.8465C0.00260242 11.037 -0.0210601 11.6838 0.02047 12.284C0.0885601 13.2655 0.162686 13.383 0.760044 13.454C1.41994 13.5328 1.42404 13.5235 1.42404 12.0165C1.42404 10.5605 1.39966 10.5 0.812922 10.5C0.476577 10.5 0.143853 10.656 0.0733485 10.8465ZM22.672 12C22.672 13.525 22.6756 13.5328 23.336 13.454C23.9705 13.3785 24 13.3142 24 12C24 10.6858 23.9705 10.6215 23.336 10.546C22.6756 10.4672 22.672 10.475 22.672 12Z" fill="#1F52B2"/>
</svg>
