<svg width="24" height="24" viewBox="0 0 24 24" fill="none" xmlns="http://www.w3.org/2000/svg">
<path fill-rule="evenodd" clip-rule="evenodd" d="M12.7797 1.53652C12.1774 2.14214 11.6894 3.15359 11.6894 3.79587C11.6894 4.33523 11.6449 4.32093 10.8661 3.53142C10.1696 2.8255 8.8287 2.39651 8.46705 2.76367C8.16174 3.07363 8.48371 3.3995 9.09532 3.3995C9.40163 3.3995 9.89679 3.59507 10.1959 3.83393L10.7399 4.26836L9.66627 4.60551C8.03636 5.11768 6.57647 6.00487 5.69704 7.01793C4.7212 8.14237 4.3659 8.81143 3.9618 10.2863C3.71422 11.19 3.50274 11.5322 2.96334 11.9012C1.73714 12.74 1.7306 14.3269 2.95025 15.0376C3.3119 15.2483 3.66105 15.7055 3.85586 16.2235C4.95728 19.1517 8.06533 21 11.8877 21C15.7102 21 18.8182 19.1517 19.9196 16.2235C20.1081 15.7226 20.464 15.2481 20.7967 15.0544C21.1046 14.8749 21.5025 14.431 21.6809 14.0679C22.0334 13.3505 22.11 12.7761 21.8295 12.9521C21.7326 13.0127 21.6077 12.8844 21.5517 12.6669C21.4958 12.4494 21.1377 12.0846 20.7564 11.8561C20.2283 11.5399 20.0309 11.2623 19.9294 10.6929C19.7193 9.51655 18.9609 8.01589 18.0525 6.97886C17.0691 5.85663 14.7677 4.61558 13.374 4.45607C12.8525 4.39645 12.4033 4.22929 12.3442 4.0726C12.1853 3.65206 12.692 2.56025 13.3318 1.94496C13.6452 1.64326 13.845 1.30349 13.7757 1.1897C13.5795 0.867251 13.3742 0.938749 12.7797 1.53652ZM9.5639 5.29149C6.84349 6.19177 4.71486 8.65393 4.41173 11.2514C4.31016 12.1223 4.23378 12.2613 3.85646 12.2613C3.29008 12.2613 2.76218 12.8611 2.76218 13.5047C2.76218 14.0546 3.30714 14.6781 3.78782 14.6781C3.96815 14.6781 4.18676 15.0129 4.33515 15.5158C4.88288 17.3715 5.99323 18.5685 8.11849 19.5944C9.34628 20.1869 9.5268 20.2167 11.8877 20.2167C14.2487 20.2167 14.4292 20.1869 15.657 19.5944C17.7823 18.5685 18.8926 17.3715 19.4403 15.5158C19.6032 14.9635 19.8014 14.6781 20.022 14.6781C20.4973 14.6781 21.0133 14.0308 21.0133 13.4347C21.0133 12.8397 20.4569 12.2613 19.8847 12.2613C19.5493 12.2613 19.462 12.0935 19.3652 11.2631C19.1023 9.00981 17.3555 6.7126 15.1051 5.66087C13.7327 5.0194 10.9476 4.8337 9.5639 5.29149ZM8.01037 11.9501C7.74256 12.222 7.52335 12.5432 7.52335 12.6641C7.52335 12.7849 7.74256 13.1062 8.01037 13.3781C8.27819 13.65 8.59461 13.8725 8.71364 13.8725C8.83267 13.8725 9.14909 13.65 9.4169 13.3781C9.68472 13.1062 9.90393 12.7849 9.90393 12.6641C9.90393 12.5432 9.68472 12.222 9.4169 11.9501C9.14909 11.6782 8.83267 11.4557 8.71364 11.4557C8.59461 11.4557 8.27819 11.6782 8.01037 11.9501ZM14.3586 11.9501C14.0908 12.222 13.8716 12.5432 13.8716 12.6641C13.8716 12.7849 14.0908 13.1062 14.3586 13.3781C14.6264 13.65 14.9428 13.8725 15.0619 13.8725C15.3428 13.8725 16.2521 12.9493 16.2521 12.6641C16.2521 12.3789 15.3428 11.4557 15.0619 11.4557C14.9428 11.4557 14.6264 11.6782 14.3586 11.9501ZM2 13.4697C2 13.7466 2.04503 13.86 2.09998 13.7215C2.15513 13.5831 2.15513 13.3565 2.09998 13.2179C2.04503 13.0796 2 13.1928 2 13.4697ZM9.21792 16.6785C9.03859 16.9729 9.87715 17.4627 10.996 17.7171C11.8415 17.9091 12.2081 17.8931 13.1173 17.6249C14.3263 17.268 14.9268 16.7816 14.4078 16.5792C14.2417 16.5145 13.8343 16.6042 13.5026 16.7784C12.7549 17.1709 10.9659 17.179 10.3007 16.7929C9.71785 16.4545 9.37623 16.4185 9.21792 16.6785Z" fill="#1F52B2" stroke="#1F52B2"/>
</svg>
