<svg width="24" height="24" viewBox="0 0 24 24" fill="none" xmlns="http://www.w3.org/2000/svg">
  <path d="M4 17.5H20" stroke="#1F52B2" stroke-width="1.8" stroke-linecap="round"/>
  <path d="M6.5 11H14.5V13.8C14.5 15.1 13.4 16.2 12.1 16.2H8.9C7.6 16.2 6.5 15.1 6.5 13.8V11Z" stroke="#1F52B2" stroke-width="1.8" stroke-linejoin="round"/>
  <path d="M14.5 12.1H16.1C16.9 12.1 17.5 12.7 17.5 13.5C17.5 14.3 16.9 14.9 16.1 14.9H14.5" stroke="#1F52B2" stroke-width="1.8" stroke-linecap="round"/>
  <path d="M8.2 9.2C8.2 8.2 9 7.7 9 6.8C9 6.1 8.5 5.5 7.9 5.1" stroke="#1F52B2" stroke-width="1.8" stroke-linecap="round"/>
  <path d="M11.5 9.2C11.5 8.2 12.3 7.7 12.3 6.8C12.3 6.1 11.8 5.5 11.2 5.1" stroke="#1F52B2" stroke-width="1.8" stroke-linecap="round"/>
</svg>
