<svg width="24" height="24" viewBox="0 0 24 24" fill="none" xmlns="http://www.w3.org/2000/svg">
  <circle cx="12.9" cy="4.1" r="1.8" fill="#1F52B2"/>
  <path d="M11.8 7.2L12.1 12.3H16.2" stroke="#1F52B2" stroke-width="1.8" stroke-linecap="round" stroke-linejoin="round"/>
  <path d="M12.1 9.4H16.6" stroke="#1F52B2" stroke-width="1.8" stroke-linecap="round"/>
  <path d="M16.1 12.2L18.8 18.2" stroke="#1F52B2" stroke-width="1.8" stroke-linecap="round"/>
  <path d="M18.8 18.2L21 17.4" stroke="#1F52B2" stroke-width="1.8" stroke-linecap="round"/>
  <path d="M10.4 14.3C9.9 15.8 8.6 16.9 7 16.9C4.7 16.9 2.9 15.1 2.9 12.9C2.9 10.6 4.7 8.8 7 8.8" stroke="#1F52B2" stroke-width="1.8" stroke-linecap="round"/>
  <path d="M7 7.7C9 7.7 10.7 9.1 11.1 11.1" stroke="#1F52B2" stroke-width="1.8" stroke-linecap="round"/>
  <path d="M7 19.2C3.6 19.2 0.8 16.4 0.8 12.9C0.8 10.5 2.2 8.4 4.3 7.3" stroke="#1F52B2" stroke-width="1.8" stroke-linecap="round"/>
</svg>
