<svg width="22" height="20" viewBox="0 0 22 20" fill="none" xmlns="http://www.w3.org/2000/svg">
<path d="M10.5833 4.83333C10.5833 3.81667 10.1795 2.84165 9.46058 2.12276C8.74169 1.40387 7.76666 1 6.75 1H1V15.375H7.70833C8.47083 15.375 9.2021 15.6779 9.74127 16.2171C10.2804 16.7562 10.5833 17.4875 10.5833 18.25M10.5833 4.83333V18.25M10.5833 4.83333C10.5833 3.81667 10.9872 2.84165 11.7061 2.12276C12.425 1.40387 13.4 1 14.4167 1H20.1667V15.375H13.4583C12.6958 15.375 11.9646 15.6779 11.4254 16.2171C10.8862 16.7562 10.5833 17.4875 10.5833 18.25" stroke="#1F52B2" stroke-width="2" stroke-linecap="round" stroke-linejoin="round"/>
</svg>
