<svg width="24" height="24" viewBox="0 0 24 24" fill="none" xmlns="http://www.w3.org/2000/svg">
  <path d="M12 12C12.6188 12 13.1484 11.7846 13.5891 11.3538C14.0298 10.9229 14.25 10.405 14.25 9.8C14.25 9.195 14.0298 8.67708 13.5891 8.24625C13.1484 7.81542 12.6188 7.6 12 7.6C11.3812 7.6 10.8516 7.81542 10.4109 8.24625C9.97024 8.67708 9.75 9.195 9.75 9.8C9.75 10.405 9.97024 10.9229 10.4109 11.3538C10.8516 11.7846 11.3812 12 12 12ZM12 23C8.98125 20.4883 6.72656 18.1554 5.23594 16.0013C3.74531 13.8471 3 11.8533 3 10.02C3 7.27 3.90469 5.07917 5.71406 3.4475C7.52344 1.81583 9.61875 1 12 1C14.3812 1 16.4766 1.81583 18.2859 3.4475C20.0953 5.07917 21 7.27 21 10.02C21 11.8533 20.2547 13.8471 18.7641 16.0013C17.2734 18.1554 15.0187 20.4883 12 23Z" fill="#1F52B2"/>
</svg>
