<svg width="24" height="24" viewBox="0 0 24 24" fill="none" xmlns="http://www.w3.org/2000/svg">
<g clip-path="url(#clip0_110_96)">
<path d="M11.9999 12C12.6186 12 13.1483 11.7846 13.589 11.3538C14.0296 10.9229 14.2499 10.405 14.2499 9.8C14.2499 9.195 14.0296 8.67708 13.589 8.24625C13.1483 7.81542 12.6186 7.6 11.9999 7.6C11.3811 7.6 10.8515 7.81542 10.4108 8.24625C9.9702 8.67708 9.74989 9.195 9.74989 9.8C9.74989 10.405 9.9702 10.9229 10.4108 11.3538C10.8515 11.7846 11.3811 12 11.9999 12ZM11.9999 23C8.98114 20.4883 6.72645 18.1554 5.23583 16.0013C3.7452 13.8471 2.99989 11.8533 2.99989 10.02C2.99989 7.27 3.90458 5.07917 5.71395 3.4475C7.52333 1.81583 9.61864 1 11.9999 1C14.3811 1 16.4765 1.81583 18.2858 3.4475C20.0952 5.07917 20.9999 7.27 20.9999 10.02C20.9999 11.8533 20.2546 13.8471 18.764 16.0013C17.2733 18.1554 15.0186 20.4883 11.9999 23Z" fill="#1F52B2" stroke="white" stroke-width="2"/>
</g>
<defs>
<clipPath id="clip0_110_96">
<rect width="24" height="24" fill="white"/>
</clipPath>
</defs>
</svg>
