<svg width="306" height="172" viewBox="0 0 306 172" fill="none" xmlns="http://www.w3.org/2000/svg">
<mask id="path-1-inside-1_394_12" fill="white">
<path fill-rule="evenodd" clip-rule="evenodd" d="M203.824 0.182362C192.767 1.024 182.214 3.83316 173.216 8.3298C171.453 9.21112 166.967 11.8322 163.247 14.1541C159.528 16.4765 153.954 19.9056 150.861 21.7747C146.675 24.3046 144.49 25.9146 142.314 28.0733C140.705 29.6684 139.39 31.1491 139.39 31.3643C139.39 31.5794 140.493 31.3486 141.842 30.8515C145.041 29.6722 149.504 28.4929 151.925 28.1873L153.854 27.9435L151.887 29.9923C150.804 31.119 148.003 33.7576 145.662 35.8559C140.941 40.0863 138.512 42.8405 137.204 45.4474C136.205 47.4394 135.375 51.5804 135.874 52.0871C136.067 52.2828 136.887 51.8776 137.825 51.1237C141.115 48.4802 146.512 46.7137 151.191 46.75L153.854 46.7706L151.43 48.9437C143.023 56.4796 138.611 61.7236 135.639 67.7131C133.421 72.1831 131.235 79.9486 131.558 82.2106C131.674 83.018 131.862 82.8783 133.33 80.9001C138.83 73.4886 146.487 65.9093 152.915 61.5145C156.496 59.0667 162.465 55.8859 163.479 55.8859C163.703 55.8859 162.812 56.6989 161.5 57.6924C157.703 60.5676 149.642 69.0248 145.948 74.0083C144.081 76.5263 140.714 81.5911 138.466 85.2632C126.932 104.096 121.855 110.99 112.547 120.46C107.99 125.096 100.868 130.709 95.2432 134.097C94.2134 134.717 95.5633 133.148 99.5309 129.113C115.461 112.913 123.969 99.9297 122.999 93.2992C122.744 91.5553 122.506 91.2493 119.316 88.5626C118.236 87.6538 117.129 86.2041 116.412 84.763L115.254 82.4331L114.385 84.7802C113.091 88.2738 111.127 91.1345 107.507 94.7975C104.136 98.2072 96.97 103.958 96.0909 103.958C95.814 103.958 94.8495 103.194 93.9478 102.261L92.3078 100.564L94.4189 97.9439C95.5803 96.5029 97.2875 93.767 98.2129 91.8647C99.5805 89.0537 100.107 88.3311 101.023 88.0064C101.761 87.7454 102.418 87.0751 102.924 86.069C103.889 84.148 103.893 83.7371 102.945 83.7371C102.532 83.7371 102.194 83.6475 102.194 83.538C102.194 83.2358 105.023 77.5862 106.898 74.1437L108.561 71.0908L107.35 71.3559C106.684 71.5021 105.479 71.961 104.672 72.3757L103.205 73.13L103.43 70.7077C103.553 69.3754 103.904 67.678 104.21 66.9356C104.89 65.2878 107.385 61.8346 110.162 58.6981L112.231 56.3602L120.898 64.9017L129.564 73.4436L130.344 71.3273C131.915 67.0634 132.006 67.2393 124.313 59.7023C120.566 56.0309 116.751 52.039 115.836 50.8319C113.427 47.6534 112.449 47.7835 108.261 51.8399C107.155 52.9112 104.534 55.7592 102.437 58.1693C100.341 60.5794 95.4119 65.9017 91.4857 69.9966C87.5592 74.0914 82.6276 79.2874 80.5262 81.5434C78.4252 83.7993 76.5275 85.6447 76.3096 85.6447C75.7791 85.6447 71.2029 81.6803 67.2072 77.759C63.4316 74.0544 62.433 73.7706 59.8886 75.6801C58.2847 76.8842 44.5866 90.8884 28.7293 107.536C19.8673 116.84 14.1982 122.365 6.38712 129.31C2.07131 133.147 0 135.336 0 136.06C0 137.017 1.69747 137.735 4.75239 138.071C13.1714 138.995 49.7076 151.306 60.7569 156.942L64.2176 158.706L60.2336 161.949C55.2835 165.978 49.8135 171.303 50.1152 171.799C50.4222 172.304 51.4317 172.036 61.0534 168.896C65.5995 167.412 70.1644 165.944 71.1976 165.632C72.2308 165.321 76.7112 163.953 81.154 162.593C92.1932 159.214 102.652 156.418 107.83 155.462C110.206 155.024 114.323 154.138 116.978 153.494C122.619 152.126 123.61 152.266 123.61 154.427C123.61 156.992 122.021 160.658 117.969 167.446L117.079 168.937L118.559 168.733C119.374 168.621 122.83 167.402 126.24 166.024C132.011 163.691 134.074 162.831 143.522 158.817C160.507 151.601 176.639 145.162 177.737 145.162C178.015 145.162 179.198 145.842 180.364 146.673C183.382 148.823 187.994 151.079 192.498 152.61C196.354 153.92 201.918 155.047 202.352 154.606C202.477 154.479 201.82 152.946 200.893 151.2C197.94 145.635 194.948 136.913 195.495 135.463C195.647 135.063 196.494 135.727 198.451 137.779C206.601 146.327 215.707 152.281 229.748 158.245C234.67 160.335 240.725 162.002 244.381 162.274C246.355 162.42 247.971 162.434 247.971 162.305C247.971 162.176 247.324 161.873 246.533 161.633C243.18 160.613 236.114 154.468 232.386 149.331C229.45 145.285 227.306 140.262 227.306 137.428C227.306 136.348 227.352 136.375 228.981 138.405C236.501 147.779 249.932 155.189 274.133 163.315C278.475 164.772 284.039 165.875 284.039 165.278C284.039 165.162 282.925 164.435 281.563 163.661C275.443 160.186 268.62 152.264 266.943 146.688C266.67 145.781 266.691 145.765 267.364 146.361C268.715 147.556 276.075 151.986 280.139 154.05C285.41 156.725 292.135 159.307 297.573 160.741C301.619 161.808 304.703 162.427 304.703 162.17C304.703 162.109 303.647 161.407 302.355 160.61C291.716 154.05 280.049 143.913 274.257 136.197C271.797 132.92 268.795 127.704 269.157 127.336C269.251 127.241 270.243 127.85 271.362 128.689C281.72 136.459 297.431 141.634 305.267 139.857C306.356 139.609 306.331 139.585 304.515 139.116C301.876 138.436 297.216 136.089 293.244 133.439C275.616 121.679 260.058 98.7619 256.815 79.7765C255.947 74.6931 256.038 71.5688 257.096 70.1122C262.414 62.7919 276.014 58.6787 285.918 61.3955C288.929 62.2215 290.043 63.6221 291.273 68.1214C291.819 70.1198 292.458 72.2617 292.694 72.8816L293.122 74.0083L294.369 72.5551C296.18 70.4449 298.129 66.4648 299.268 62.5485C301.118 56.1896 300.506 48.4653 297.703 42.7962C293.592 34.4825 285.911 28.4342 274.867 24.8131L271.092 23.5755L269.998 21.3943C264.377 10.1836 239.816 0.919467 213.405 0.0476858C210.409 -0.0515102 206.097 0.00915076 203.824 0.182362ZM213.781 10.7353C213.057 10.8059 210.521 11.0447 208.145 11.2656C203.311 11.7154 192.065 13.4662 191.315 13.8859C191.048 14.0355 192.401 14.3697 194.321 14.6284C199.445 15.3189 202.952 16.1087 207.487 17.5939C209.709 18.3211 211.526 18.9506 211.526 18.9926C211.526 19.0346 207.596 19.0708 202.791 19.0727C193.223 19.0773 191.119 19.3249 183.121 21.3886C172.108 24.2302 162.808 28.8645 154.471 35.6656C151.078 38.4331 147.597 41.7696 148.103 41.7696C148.312 41.7696 157.289 37.8403 162.496 35.4702C168.712 32.6405 180.686 28.752 188.232 27.1118C190.815 26.5502 194.45 25.7555 196.31 25.3457C203.478 23.7666 209.613 23.0799 216.584 23.0776C224.483 23.0745 229.571 23.6354 242.711 25.9573C247.98 26.8882 252.86 27.7482 253.554 27.8676C254.722 28.0687 254.801 28.1705 254.596 29.2106C253.929 32.5954 250.614 37.1138 247.182 39.3133C245.426 40.4388 241.052 42.1518 239.942 42.1488C239.285 42.1465 239.463 41.8661 240.931 40.5884C241.915 39.7318 243.207 38.3126 243.802 37.4347C245.049 35.5938 246.193 32.9945 245.756 32.9945C245.592 32.9945 244.459 33.8819 243.239 34.9666C237.723 39.8688 232.012 40.3133 227.66 36.1795C225.55 34.1749 224.893 32.5233 225.145 29.8542L225.326 27.9473L223.663 28.1373C221.507 28.3842 220.168 29.6177 220.168 31.3563C220.168 33.1055 221.097 35.2268 222.515 36.7144C223.165 37.3965 223.621 37.9719 223.529 37.9936C223.437 38.015 215.545 38.1493 205.992 38.2912C194.21 38.4667 188.49 38.6842 188.21 38.9684C187.683 39.5041 192.555 41.3274 197.773 42.5463L201.49 43.4151L195.863 45.378C186.941 48.4897 182.28 51.1222 178.928 54.942C176.753 57.4193 176.552 57.8988 177.806 57.6199C178.271 57.5166 181.188 56.8359 184.287 56.1072C187.387 55.3785 191.344 54.5143 193.08 54.1866C197.089 53.4301 205.553 52.3637 205.774 52.5877C205.866 52.6811 205.296 52.9676 204.507 53.2244C203.718 53.4816 201.216 54.4625 198.946 55.4044C186.058 60.753 176.385 69.2381 170.426 80.4217C168.664 83.7295 165.933 91.3485 166.134 92.3973C166.265 93.0814 167.74 91.9292 175.27 85.2651C182.711 78.6793 186.551 76.012 194.148 72.1541C200.148 69.1065 208.982 65.7361 213.217 64.8784C214.059 64.7079 213.775 64.9776 212.09 65.9455C201.151 72.2304 193.076 80.0501 188.98 88.3242C185.119 96.121 184.288 99.4849 184.319 107.201C184.339 112.362 184.441 113.231 185.359 116.056C185.919 117.779 186.51 119.272 186.672 119.374C186.834 119.476 187.518 117.722 188.192 115.478C190.356 108.267 195.254 98.8 200.671 91.3573C211.032 77.1211 223.122 67.3389 237.167 61.8289C245.56 58.536 252.537 56.971 266.753 55.1938C271.401 54.6128 275.023 54.0241 274.803 53.8864C273.739 53.2183 268.763 52.7517 260.672 52.5613C250.902 52.3313 245.849 52.6685 236.001 54.2076C232.622 54.736 229.78 55.092 229.688 54.9981C229.378 54.6837 236.093 52.382 241.074 51.0951C251.781 48.3291 264.621 47.2734 273.519 48.4275C282.462 49.587 287.971 51.9326 292.001 56.2964L294.139 58.6119L294.397 57.2136C294.539 56.4445 294.544 54.6723 294.409 53.2755C293.199 40.8314 283.052 32.2303 266.85 29.916L263.751 29.4731V27.9786C263.751 24.688 261.217 21.3428 256.424 18.3063C249.972 14.2178 240.995 11.7677 229.185 10.8715C224.437 10.511 216.766 10.4434 213.781 10.7353ZM232.218 30.1846C231.209 31.4871 231.236 32.0602 232.362 33.2025C233.449 34.307 234.449 34.3928 235.498 33.4714C236.769 32.3555 236.871 31.2269 235.8 30.1396C234.567 28.8874 233.209 28.9046 232.218 30.1846ZM264.784 36.0772C263.859 36.6243 263.964 37.2764 265.159 38.4087C267.38 40.5117 268.574 40.665 273.268 39.4484C274.956 39.0108 276.396 38.5934 276.467 38.5209C276.539 38.4484 275.937 38.047 275.13 37.6285C271.938 35.975 266.368 35.1398 264.784 36.0772ZM237.693 65.3962C226.69 71.0091 216.37 84.7421 212.749 98.5883C211.494 103.386 211.323 112.569 212.413 116.548C213.076 118.966 215.518 124.178 215.988 124.179C216.117 124.179 216.167 123.272 216.099 122.162C215.973 120.109 217.341 111.279 218.667 105.586C219.906 100.272 221.928 95.3789 226.957 85.5318C232.258 75.1502 234.72 71.306 240.387 64.5656C241.154 63.6537 241.04 63.6888 237.693 65.3962ZM239.163 77.7098C237.185 79.9848 234.8 84.6925 233.888 88.1246C232.94 91.6915 232.735 99.2506 233.47 103.526C235.454 115.069 242.99 126.714 252.776 133.36C254.321 134.41 255.653 135.199 255.735 135.115C255.818 135.031 253.907 131.635 251.489 127.568C244.602 115.985 242.557 111.081 240.963 102.331C240.456 99.5452 240.336 96.8901 240.391 89.6507C240.429 84.6146 240.608 79.4641 240.79 78.205C240.971 76.946 241.075 75.8648 241.021 75.8022C240.966 75.74 240.13 76.5984 239.163 77.7098ZM59.8965 83.2102C57.1865 86.1846 54.2886 90.3226 51.6451 94.9921C50.4571 97.0904 49.2364 99.1934 48.9329 99.6657C48.2802 100.68 48.3002 100.685 50.2978 99.969C52.7358 99.0954 56.7161 96.5727 59.1425 94.3629L61.3645 92.3397L61.1011 95.192C60.9561 96.7608 60.7351 99.375 60.61 101.001C60.4849 102.627 60.2798 103.956 60.1543 103.954C60.0288 103.952 59.5734 103.326 59.1425 102.563L58.3584 101.175L57.3357 104.506C56.5786 106.972 56.1744 107.784 55.7802 107.63C55.4556 107.503 54.1722 108.496 52.4912 110.173C49.605 113.053 46.5884 115.103 46.5884 114.185C46.5884 113.908 46.7458 113.125 46.9378 112.444C47.1302 111.764 47.1723 111.208 47.0317 111.21C46.5279 111.216 40.045 117.319 38.4411 119.298C36.8574 121.252 35.6706 123.392 35.1216 125.282C34.888 126.087 35.7296 125.731 42.3196 122.237C55.4293 115.285 53.562 115.974 59.2661 115.992C62.5108 116.003 64.3931 116.162 64.6764 116.45C65.3673 117.152 65.5086 123.954 64.9097 127.708C64.617 129.544 64.4893 131.046 64.626 131.046C64.7628 131.046 67.2271 128.638 70.1024 125.695C77.6065 118.015 79.3104 117.39 83.7382 120.694C86.2832 122.594 89.2593 124.56 89.5891 124.56C89.6906 124.56 88.8561 122.801 87.7354 120.65C86.6146 118.498 85.4488 115.657 85.1448 114.334L84.5925 111.929L85.5277 111.568C87.5039 110.805 89.9855 111.384 92.0865 113.099C93.5044 114.256 97.9341 116.22 100.292 116.738C101.581 117.021 101.579 117.018 99.3524 114.939C98.1257 113.794 95.3466 111.261 93.1768 109.31C91.0071 107.36 87.2995 104.027 84.9378 101.904C78.3843 96.013 68.9475 87.4436 65.2542 84.0294L61.9408 80.9665L59.8965 83.2102Z"/>
</mask>
<path fill-rule="evenodd" clip-rule="evenodd" d="M203.824 0.182362C192.767 1.024 182.214 3.83316 173.216 8.3298C171.453 9.21112 166.967 11.8322 163.247 14.1541C159.528 16.4765 153.954 19.9056 150.861 21.7747C146.675 24.3046 144.49 25.9146 142.314 28.0733C140.705 29.6684 139.39 31.1491 139.39 31.3643C139.39 31.5794 140.493 31.3486 141.842 30.8515C145.041 29.6722 149.504 28.4929 151.925 28.1873L153.854 27.9435L151.887 29.9923C150.804 31.119 148.003 33.7576 145.662 35.8559C140.941 40.0863 138.512 42.8405 137.204 45.4474C136.205 47.4394 135.375 51.5804 135.874 52.0871C136.067 52.2828 136.887 51.8776 137.825 51.1237C141.115 48.4802 146.512 46.7137 151.191 46.75L153.854 46.7706L151.43 48.9437C143.023 56.4796 138.611 61.7236 135.639 67.7131C133.421 72.1831 131.235 79.9486 131.558 82.2106C131.674 83.018 131.862 82.8783 133.33 80.9001C138.83 73.4886 146.487 65.9093 152.915 61.5145C156.496 59.0667 162.465 55.8859 163.479 55.8859C163.703 55.8859 162.812 56.6989 161.5 57.6924C157.703 60.5676 149.642 69.0248 145.948 74.0083C144.081 76.5263 140.714 81.5911 138.466 85.2632C126.932 104.096 121.855 110.99 112.547 120.46C107.99 125.096 100.868 130.709 95.2432 134.097C94.2134 134.717 95.5633 133.148 99.5309 129.113C115.461 112.913 123.969 99.9297 122.999 93.2992C122.744 91.5553 122.506 91.2493 119.316 88.5626C118.236 87.6538 117.129 86.2041 116.412 84.763L115.254 82.4331L114.385 84.7802C113.091 88.2738 111.127 91.1345 107.507 94.7975C104.136 98.2072 96.97 103.958 96.0909 103.958C95.814 103.958 94.8495 103.194 93.9478 102.261L92.3078 100.564L94.4189 97.9439C95.5803 96.5029 97.2875 93.767 98.2129 91.8647C99.5805 89.0537 100.107 88.3311 101.023 88.0064C101.761 87.7454 102.418 87.0751 102.924 86.069C103.889 84.148 103.893 83.7371 102.945 83.7371C102.532 83.7371 102.194 83.6475 102.194 83.538C102.194 83.2358 105.023 77.5862 106.898 74.1437L108.561 71.0908L107.35 71.3559C106.684 71.5021 105.479 71.961 104.672 72.3757L103.205 73.13L103.43 70.7077C103.553 69.3754 103.904 67.678 104.21 66.9356C104.89 65.2878 107.385 61.8346 110.162 58.6981L112.231 56.3602L120.898 64.9017L129.564 73.4436L130.344 71.3273C131.915 67.0634 132.006 67.2393 124.313 59.7023C120.566 56.0309 116.751 52.039 115.836 50.8319C113.427 47.6534 112.449 47.7835 108.261 51.8399C107.155 52.9112 104.534 55.7592 102.437 58.1693C100.341 60.5794 95.4119 65.9017 91.4857 69.9966C87.5592 74.0914 82.6276 79.2874 80.5262 81.5434C78.4252 83.7993 76.5275 85.6447 76.3096 85.6447C75.7791 85.6447 71.2029 81.6803 67.2072 77.759C63.4316 74.0544 62.433 73.7706 59.8886 75.6801C58.2847 76.8842 44.5866 90.8884 28.7293 107.536C19.8673 116.84 14.1982 122.365 6.38712 129.31C2.07131 133.147 0 135.336 0 136.06C0 137.017 1.69747 137.735 4.75239 138.071C13.1714 138.995 49.7076 151.306 60.7569 156.942L64.2176 158.706L60.2336 161.949C55.2835 165.978 49.8135 171.303 50.1152 171.799C50.4222 172.304 51.4317 172.036 61.0534 168.896C65.5995 167.412 70.1644 165.944 71.1976 165.632C72.2308 165.321 76.7112 163.953 81.154 162.593C92.1932 159.214 102.652 156.418 107.83 155.462C110.206 155.024 114.323 154.138 116.978 153.494C122.619 152.126 123.61 152.266 123.61 154.427C123.61 156.992 122.021 160.658 117.969 167.446L117.079 168.937L118.559 168.733C119.374 168.621 122.83 167.402 126.24 166.024C132.011 163.691 134.074 162.831 143.522 158.817C160.507 151.601 176.639 145.162 177.737 145.162C178.015 145.162 179.198 145.842 180.364 146.673C183.382 148.823 187.994 151.079 192.498 152.61C196.354 153.92 201.918 155.047 202.352 154.606C202.477 154.479 201.82 152.946 200.893 151.2C197.94 145.635 194.948 136.913 195.495 135.463C195.647 135.063 196.494 135.727 198.451 137.779C206.601 146.327 215.707 152.281 229.748 158.245C234.67 160.335 240.725 162.002 244.381 162.274C246.355 162.42 247.971 162.434 247.971 162.305C247.971 162.176 247.324 161.873 246.533 161.633C243.18 160.613 236.114 154.468 232.386 149.331C229.45 145.285 227.306 140.262 227.306 137.428C227.306 136.348 227.352 136.375 228.981 138.405C236.501 147.779 249.932 155.189 274.133 163.315C278.475 164.772 284.039 165.875 284.039 165.278C284.039 165.162 282.925 164.435 281.563 163.661C275.443 160.186 268.62 152.264 266.943 146.688C266.67 145.781 266.691 145.765 267.364 146.361C268.715 147.556 276.075 151.986 280.139 154.05C285.41 156.725 292.135 159.307 297.573 160.741C301.619 161.808 304.703 162.427 304.703 162.17C304.703 162.109 303.647 161.407 302.355 160.61C291.716 154.05 280.049 143.913 274.257 136.197C271.797 132.92 268.795 127.704 269.157 127.336C269.251 127.241 270.243 127.85 271.362 128.689C281.72 136.459 297.431 141.634 305.267 139.857C306.356 139.609 306.331 139.585 304.515 139.116C301.876 138.436 297.216 136.089 293.244 133.439C275.616 121.679 260.058 98.7619 256.815 79.7765C255.947 74.6931 256.038 71.5688 257.096 70.1122C262.414 62.7919 276.014 58.6787 285.918 61.3955C288.929 62.2215 290.043 63.6221 291.273 68.1214C291.819 70.1198 292.458 72.2617 292.694 72.8816L293.122 74.0083L294.369 72.5551C296.18 70.4449 298.129 66.4648 299.268 62.5485C301.118 56.1896 300.506 48.4653 297.703 42.7962C293.592 34.4825 285.911 28.4342 274.867 24.8131L271.092 23.5755L269.998 21.3943C264.377 10.1836 239.816 0.919467 213.405 0.0476858C210.409 -0.0515102 206.097 0.00915076 203.824 0.182362ZM213.781 10.7353C213.057 10.8059 210.521 11.0447 208.145 11.2656C203.311 11.7154 192.065 13.4662 191.315 13.8859C191.048 14.0355 192.401 14.3697 194.321 14.6284C199.445 15.3189 202.952 16.1087 207.487 17.5939C209.709 18.3211 211.526 18.9506 211.526 18.9926C211.526 19.0346 207.596 19.0708 202.791 19.0727C193.223 19.0773 191.119 19.3249 183.121 21.3886C172.108 24.2302 162.808 28.8645 154.471 35.6656C151.078 38.4331 147.597 41.7696 148.103 41.7696C148.312 41.7696 157.289 37.8403 162.496 35.4702C168.712 32.6405 180.686 28.752 188.232 27.1118C190.815 26.5502 194.45 25.7555 196.31 25.3457C203.478 23.7666 209.613 23.0799 216.584 23.0776C224.483 23.0745 229.571 23.6354 242.711 25.9573C247.98 26.8882 252.86 27.7482 253.554 27.8676C254.722 28.0687 254.801 28.1705 254.596 29.2106C253.929 32.5954 250.614 37.1138 247.182 39.3133C245.426 40.4388 241.052 42.1518 239.942 42.1488C239.285 42.1465 239.463 41.8661 240.931 40.5884C241.915 39.7318 243.207 38.3126 243.802 37.4347C245.049 35.5938 246.193 32.9945 245.756 32.9945C245.592 32.9945 244.459 33.8819 243.239 34.9666C237.723 39.8688 232.012 40.3133 227.66 36.1795C225.55 34.1749 224.893 32.5233 225.145 29.8542L225.326 27.9473L223.663 28.1373C221.507 28.3842 220.168 29.6177 220.168 31.3563C220.168 33.1055 221.097 35.2268 222.515 36.7144C223.165 37.3965 223.621 37.9719 223.529 37.9936C223.437 38.015 215.545 38.1493 205.992 38.2912C194.21 38.4667 188.49 38.6842 188.21 38.9684C187.683 39.5041 192.555 41.3274 197.773 42.5463L201.49 43.4151L195.863 45.378C186.941 48.4897 182.28 51.1222 178.928 54.942C176.753 57.4193 176.552 57.8988 177.806 57.6199C178.271 57.5166 181.188 56.8359 184.287 56.1072C187.387 55.3785 191.344 54.5143 193.08 54.1866C197.089 53.4301 205.553 52.3637 205.774 52.5877C205.866 52.6811 205.296 52.9676 204.507 53.2244C203.718 53.4816 201.216 54.4625 198.946 55.4044C186.058 60.753 176.385 69.2381 170.426 80.4217C168.664 83.7295 165.933 91.3485 166.134 92.3973C166.265 93.0814 167.74 91.9292 175.27 85.2651C182.711 78.6793 186.551 76.012 194.148 72.1541C200.148 69.1065 208.982 65.7361 213.217 64.8784C214.059 64.7079 213.775 64.9776 212.09 65.9455C201.151 72.2304 193.076 80.0501 188.98 88.3242C185.119 96.121 184.288 99.4849 184.319 107.201C184.339 112.362 184.441 113.231 185.359 116.056C185.919 117.779 186.51 119.272 186.672 119.374C186.834 119.476 187.518 117.722 188.192 115.478C190.356 108.267 195.254 98.8 200.671 91.3573C211.032 77.1211 223.122 67.3389 237.167 61.8289C245.56 58.536 252.537 56.971 266.753 55.1938C271.401 54.6128 275.023 54.0241 274.803 53.8864C273.739 53.2183 268.763 52.7517 260.672 52.5613C250.902 52.3313 245.849 52.6685 236.001 54.2076C232.622 54.736 229.78 55.092 229.688 54.9981C229.378 54.6837 236.093 52.382 241.074 51.0951C251.781 48.3291 264.621 47.2734 273.519 48.4275C282.462 49.587 287.971 51.9326 292.001 56.2964L294.139 58.6119L294.397 57.2136C294.539 56.4445 294.544 54.6723 294.409 53.2755C293.199 40.8314 283.052 32.2303 266.85 29.916L263.751 29.4731V27.9786C263.751 24.688 261.217 21.3428 256.424 18.3063C249.972 14.2178 240.995 11.7677 229.185 10.8715C224.437 10.511 216.766 10.4434 213.781 10.7353ZM232.218 30.1846C231.209 31.4871 231.236 32.0602 232.362 33.2025C233.449 34.307 234.449 34.3928 235.498 33.4714C236.769 32.3555 236.871 31.2269 235.8 30.1396C234.567 28.8874 233.209 28.9046 232.218 30.1846ZM264.784 36.0772C263.859 36.6243 263.964 37.2764 265.159 38.4087C267.38 40.5117 268.574 40.665 273.268 39.4484C274.956 39.0108 276.396 38.5934 276.467 38.5209C276.539 38.4484 275.937 38.047 275.13 37.6285C271.938 35.975 266.368 35.1398 264.784 36.0772ZM237.693 65.3962C226.69 71.0091 216.37 84.7421 212.749 98.5883C211.494 103.386 211.323 112.569 212.413 116.548C213.076 118.966 215.518 124.178 215.988 124.179C216.117 124.179 216.167 123.272 216.099 122.162C215.973 120.109 217.341 111.279 218.667 105.586C219.906 100.272 221.928 95.3789 226.957 85.5318C232.258 75.1502 234.72 71.306 240.387 64.5656C241.154 63.6537 241.04 63.6888 237.693 65.3962ZM239.163 77.7098C237.185 79.9848 234.8 84.6925 233.888 88.1246C232.94 91.6915 232.735 99.2506 233.47 103.526C235.454 115.069 242.99 126.714 252.776 133.36C254.321 134.41 255.653 135.199 255.735 135.115C255.818 135.031 253.907 131.635 251.489 127.568C244.602 115.985 242.557 111.081 240.963 102.331C240.456 99.5452 240.336 96.8901 240.391 89.6507C240.429 84.6146 240.608 79.4641 240.79 78.205C240.971 76.946 241.075 75.8648 241.021 75.8022C240.966 75.74 240.13 76.5984 239.163 77.7098ZM59.8965 83.2102C57.1865 86.1846 54.2886 90.3226 51.6451 94.9921C50.4571 97.0904 49.2364 99.1934 48.9329 99.6657C48.2802 100.68 48.3002 100.685 50.2978 99.969C52.7358 99.0954 56.7161 96.5727 59.1425 94.3629L61.3645 92.3397L61.1011 95.192C60.9561 96.7608 60.7351 99.375 60.61 101.001C60.4849 102.627 60.2798 103.956 60.1543 103.954C60.0288 103.952 59.5734 103.326 59.1425 102.563L58.3584 101.175L57.3357 104.506C56.5786 106.972 56.1744 107.784 55.7802 107.63C55.4556 107.503 54.1722 108.496 52.4912 110.173C49.605 113.053 46.5884 115.103 46.5884 114.185C46.5884 113.908 46.7458 113.125 46.9378 112.444C47.1302 111.764 47.1723 111.208 47.0317 111.21C46.5279 111.216 40.045 117.319 38.4411 119.298C36.8574 121.252 35.6706 123.392 35.1216 125.282C34.888 126.087 35.7296 125.731 42.3196 122.237C55.4293 115.285 53.562 115.974 59.2661 115.992C62.5108 116.003 64.3931 116.162 64.6764 116.45C65.3673 117.152 65.5086 123.954 64.9097 127.708C64.617 129.544 64.4893 131.046 64.626 131.046C64.7628 131.046 67.2271 128.638 70.1024 125.695C77.6065 118.015 79.3104 117.39 83.7382 120.694C86.2832 122.594 89.2593 124.56 89.5891 124.56C89.6906 124.56 88.8561 122.801 87.7354 120.65C86.6146 118.498 85.4488 115.657 85.1448 114.334L84.5925 111.929L85.5277 111.568C87.5039 110.805 89.9855 111.384 92.0865 113.099C93.5044 114.256 97.9341 116.22 100.292 116.738C101.581 117.021 101.579 117.018 99.3524 114.939C98.1257 113.794 95.3466 111.261 93.1768 109.31C91.0071 107.36 87.2995 104.027 84.9378 101.904C78.3843 96.013 68.9475 87.4436 65.2542 84.0294L61.9408 80.9665L59.8965 83.2102Z" fill="white" stroke="white" mask="url(#path-1-inside-1_394_12)"/>
</svg>
