<svg width="50" height="37" viewBox="0 0 50 37" fill="none" xmlns="http://www.w3.org/2000/svg">
<path d="M8.19531 30.5C8.93294 30.5 9.53618 30.6076 9.99316 30.873C10.4624 31.1455 10.7505 31.569 10.8838 32.1348L10.957 32.4424H10.1475L10.0947 32.2617C9.99241 31.9096 9.80305 31.6739 9.51074 31.5186C9.20657 31.357 8.77244 31.2725 8.1709 31.2725C7.49907 31.2725 7.0501 31.3775 6.77734 31.54C6.52329 31.6914 6.41313 31.896 6.41309 32.168C6.41309 32.3025 6.43991 32.402 6.48828 32.4824C6.5373 32.5638 6.61952 32.6445 6.75781 32.7227C7.04496 32.8848 7.52581 33.01 8.28906 33.1221C9.21641 33.2585 9.88143 33.4326 10.3164 33.71C10.5399 33.8525 10.7087 34.0258 10.8193 34.2393C10.9293 34.4515 10.9736 34.6865 10.9736 34.9395C10.9736 35.5073 10.7501 35.9681 10.2764 36.2725C9.82215 36.5641 9.16337 36.6963 8.31934 36.6963C7.55327 36.6963 6.93659 36.5859 6.46973 36.3193C5.99073 36.0458 5.69536 35.6225 5.54883 35.0586L5.46777 34.7461H6.27734L6.33398 34.918C6.45149 35.2733 6.64982 35.5112 6.95605 35.668C7.2745 35.831 7.72879 35.915 8.36914 35.915C9.07145 35.915 9.53286 35.8099 9.81152 35.6426C10.069 35.4879 10.1846 35.2732 10.1846 34.9717C10.1845 34.8208 10.1554 34.7048 10.1016 34.6094C10.0475 34.5137 9.9583 34.4204 9.81055 34.332C9.50418 34.1488 8.9842 34.0054 8.14453 33.8896H8.14355C7.29501 33.7692 6.67173 33.6138 6.25879 33.3574C6.04671 33.2257 5.88346 33.0636 5.77539 32.8613C5.66776 32.6597 5.62405 32.4348 5.62402 32.1924C5.62402 31.6539 5.84247 31.2101 6.30078 30.915C6.7409 30.6317 7.37856 30.5 8.19531 30.5ZM26.3818 30.4922C27.4376 30.4922 28.2517 30.7108 28.7979 31.2402C29.3458 31.7715 29.5732 32.5657 29.5732 33.5938C29.5732 34.6182 29.3455 35.4122 28.7979 35.9443C28.2519 36.4748 27.4382 36.6962 26.3818 36.6963C25.3255 36.6963 24.5128 36.4752 23.9688 35.9443C23.4233 35.412 23.1982 34.6176 23.1982 33.5938C23.1983 32.5664 23.4232 31.7726 23.9688 31.2412C24.513 30.7112 25.3259 30.4922 26.3818 30.4922ZM30.7324 35.5791C30.8763 35.5792 31.0314 35.6144 31.1475 35.7314C31.263 35.8482 31.2959 36.0021 31.2959 36.1416C31.2959 36.2825 31.2638 36.4395 31.1416 36.5557C31.0222 36.6691 30.8664 36.6962 30.7324 36.6963C30.5953 36.6963 30.433 36.6719 30.3125 36.5527C30.1911 36.4326 30.168 36.2718 30.168 36.1416C30.168 36.0124 30.1927 35.8551 30.3076 35.7344C30.4249 35.6115 30.5856 35.5791 30.7324 35.5791ZM39.418 30.54V33.9785C39.418 34.7135 39.5902 35.1775 39.9033 35.4648C40.2214 35.7566 40.7376 35.915 41.5391 35.915C42.3498 35.915 42.866 35.7561 43.1816 35.4648C43.4922 35.1781 43.6602 34.7147 43.6602 33.9785V30.54H44.458V34.0107C44.458 34.8939 44.2521 35.5861 43.7461 36.0498C43.2453 36.5087 42.5011 36.6963 41.5391 36.6963C40.5888 36.6963 39.8481 36.508 39.3467 36.0498C38.8401 35.5867 38.6289 34.8953 38.6289 34.0107V30.54H39.418ZM12.6748 30.54V33.1514H13.7227L16.1357 30.6182L16.209 30.54H17.2803L16.877 30.9629L14.4316 33.5273L17.0576 36.2236L17.4707 36.6475H16.3936L16.3193 36.5732L13.7246 33.9238H12.6748V36.6475H11.8857V30.54H12.6748ZM22.8438 30.54V31.3125H18.5977V33.208H22.4307V33.9805H18.5977V36.6475H17.8076V30.54H22.8438ZM35.3994 30.54C36.0753 30.54 36.6154 30.6561 36.9873 30.958C37.3716 31.2701 37.5244 31.7371 37.5244 32.3125C37.5244 32.7567 37.4341 33.1391 37.2109 33.4375C37.1144 33.5666 36.9962 33.6719 36.8613 33.7598C36.9907 33.8392 37.1039 33.9359 37.1982 34.0537C37.4242 34.3362 37.5166 34.7013 37.5166 35.124V36.6475H36.7275V35.1162C36.7275 34.7356 36.6271 34.5224 36.4629 34.3926C36.2843 34.2516 35.9768 34.1641 35.4658 34.1641H33.0879V36.6475H32.2988V30.54H35.3994ZM26.3818 31.2725C25.4838 31.2725 24.9015 31.4603 24.54 31.8115C24.1803 32.1612 23.9873 32.7231 23.9873 33.5938C23.9873 34.4603 24.1799 35.0231 24.54 35.374C24.9017 35.7262 25.4845 35.915 26.3818 35.915C27.2792 35.915 27.8637 35.7258 28.2275 35.373C28.5896 35.0219 28.7832 34.4596 28.7832 33.5938C28.7832 32.7238 28.5892 32.1624 28.2275 31.8125C27.8639 31.4608 27.2797 31.2725 26.3818 31.2725ZM33.0879 33.3926H35.3906C35.9286 33.3926 36.2569 33.2957 36.4492 33.1396C36.6291 32.9937 36.7353 32.7573 36.7354 32.3525C36.7354 31.943 36.6283 31.7071 36.4492 31.5625C36.2572 31.4076 35.9293 31.3125 35.3906 31.3125H33.0879V33.3926Z" fill="#1F52B2" stroke="#1F52B2" stroke-width="0.5"/>
<mask id="path-2-inside-1_114_2603" fill="white">
<path fill-rule="evenodd" clip-rule="evenodd" d="M33.3046 0.0294167C31.4979 0.165181 29.7735 0.618324 28.3033 1.34367C28.0152 1.48584 27.2822 1.90864 26.6744 2.28319C26.0666 2.6578 25.1559 3.21095 24.6505 3.51245C23.9665 3.92055 23.6095 4.18026 23.2539 4.52847C22.9911 4.78578 22.7761 5.02463 22.7761 5.05934C22.7761 5.09405 22.9564 5.05682 23.1768 4.97662C23.6996 4.7864 24.4287 4.59617 24.8244 4.54687L25.1396 4.50754L24.8181 4.83803C24.6412 5.01977 24.1835 5.4454 23.8009 5.78389C23.0295 6.46628 22.6327 6.91056 22.419 7.33108C22.2557 7.6524 22.1201 8.32039 22.2016 8.40212C22.2331 8.43369 22.3671 8.36833 22.5204 8.24672C23.058 7.82029 23.9399 7.53534 24.7044 7.54119L25.1396 7.54451L24.7435 7.89506C23.3697 9.11066 22.6489 9.95657 22.1632 10.9227C21.8007 11.6438 21.4436 12.8964 21.4964 13.2613C21.5153 13.3915 21.5462 13.369 21.786 13.0499C22.6846 11.8544 23.9357 10.6318 24.9861 9.92285C25.5712 9.52799 26.5466 9.0149 26.7123 9.0149C26.7488 9.0149 26.6032 9.14605 26.3889 9.30631C25.7684 9.7701 24.4513 11.1343 23.8477 11.9382C23.5427 12.3444 22.9925 13.1614 22.6251 13.7537C20.7405 16.7917 19.911 17.9037 18.3901 19.4312C17.6454 20.1791 16.4817 21.0845 15.5626 21.631C15.3943 21.731 15.6149 21.4779 16.2632 20.8271C18.8662 18.2139 20.2563 16.1196 20.0979 15.05C20.0563 14.7687 20.0174 14.7193 19.496 14.286C19.3196 14.1394 19.1386 13.9055 19.0216 13.673L18.8323 13.2972L18.6903 13.6758C18.479 14.2394 18.158 14.7008 17.5665 15.2917C17.0157 15.8417 15.8448 16.7693 15.7011 16.7693C15.6559 16.7693 15.4983 16.6462 15.3509 16.4957L15.083 16.2219L15.4279 15.7992C15.6177 15.5668 15.8966 15.1255 16.0479 14.8186C16.2713 14.3652 16.3573 14.2486 16.5071 14.1962C16.6276 14.1541 16.735 14.046 16.8176 13.8837C16.9753 13.5738 16.9759 13.5076 16.8211 13.5076C16.7536 13.5076 16.6984 13.4931 16.6984 13.4754C16.6984 13.4267 17.1606 12.5154 17.467 11.9601L17.7387 11.4676L17.5408 11.5104C17.432 11.5339 17.2351 11.608 17.1033 11.6749L16.8636 11.7965L16.9003 11.4058C16.9204 11.1909 16.9778 10.9171 17.0278 10.7973C17.139 10.5315 17.5466 9.97448 18.0003 9.46854L18.3385 9.0914L19.7545 10.4692L21.1706 11.8471L21.298 11.5057C21.5548 10.8179 21.5697 10.8463 20.3126 9.63052C19.7003 9.03829 19.077 8.39436 18.9275 8.19964C18.5339 7.68692 18.3741 7.70791 17.6897 8.36224C17.509 8.53505 17.0808 8.99447 16.7381 9.38324C16.3955 9.77201 15.5902 10.6305 14.9486 11.2911C14.3071 11.9516 13.5012 12.7898 13.1579 13.1537C12.8146 13.5176 12.5045 13.8153 12.4689 13.8153C12.3822 13.8153 11.6345 13.1758 10.9816 12.5432C10.3646 11.9456 10.2015 11.8999 9.78573 12.2079C9.52365 12.4021 7.28539 14.6611 4.69433 17.3466C3.2463 18.8473 2.31997 19.7386 1.04365 20.8588C0.338449 21.4778 0 21.8309 0 21.9477C0 22.1021 0.277365 22.2179 0.776535 22.272C2.15218 22.4212 8.12215 24.407 9.9276 25.3161L10.4931 25.6008L9.84208 26.1239C9.03326 26.7738 8.13947 27.6328 8.18876 27.7128C8.23892 27.7941 8.40388 27.7509 9.97604 27.2445C10.7189 27.0051 11.4648 26.7683 11.6336 26.718C11.8024 26.6677 12.5345 26.4471 13.2605 26.2277C15.0642 25.6826 16.7733 25.2317 17.6192 25.0775C18.0075 25.0068 18.6802 24.8639 19.1141 24.76C20.0358 24.5394 20.1976 24.5618 20.1976 24.9105C20.1976 25.3243 19.9381 25.9156 19.2759 27.0106L19.1305 27.2511L19.3724 27.2182C19.5055 27.2001 20.0703 27.0035 20.6274 26.7812C21.5703 26.4049 21.9074 26.2661 23.4514 25.6186C26.2266 24.4545 28.8626 23.416 29.042 23.416C29.0875 23.416 29.2807 23.5257 29.4713 23.6597C29.9644 24.0065 30.718 24.3705 31.454 24.6173C32.0839 24.8287 32.9931 25.0105 33.0641 24.9393C33.0845 24.9189 32.9772 24.6716 32.8256 24.3899C32.3431 23.4923 31.8542 22.0853 31.9437 21.8513C31.9684 21.7868 32.1069 21.894 32.4266 22.225C33.7583 23.6038 35.2462 24.5643 37.5406 25.5263C38.3448 25.8634 39.3342 26.1324 39.9315 26.1762C40.2541 26.1998 40.5181 26.2021 40.5181 26.1813C40.5181 26.1605 40.4124 26.1117 40.2832 26.0728C39.7353 25.9083 38.5807 24.9171 37.9715 24.0884C37.4918 23.4358 37.1416 22.6255 37.1416 22.1683C37.1416 21.9941 37.149 21.9985 37.4152 22.326C38.6439 23.8381 40.8386 25.0334 44.793 26.3441C45.5025 26.5793 46.4116 26.7571 46.4116 26.6608C46.4116 26.6422 46.2296 26.5248 46.0071 26.4C45.007 25.8394 43.8921 24.5616 43.6182 23.6622C43.5736 23.5158 43.5769 23.5132 43.6869 23.6093C43.9076 23.8021 45.1103 24.5166 45.7744 24.8496C46.6356 25.2812 47.7344 25.6976 48.623 25.929C49.2841 26.1011 49.7881 26.2009 49.7881 26.1595C49.7881 26.1496 49.6155 26.0363 49.4044 25.9078C47.6661 24.8497 45.7596 23.2144 44.8132 21.9697C44.4113 21.4411 43.9208 20.5998 43.9799 20.5405C43.9953 20.5251 44.1574 20.6233 44.3401 20.7587C46.0328 22.0121 48.5999 22.8469 49.8802 22.5601C50.0582 22.5202 50.0541 22.5162 49.7574 22.4407C49.3261 22.331 48.5648 21.9524 47.9157 21.5249C45.0352 19.6279 42.4932 15.9312 41.9633 12.8687C41.8213 12.0487 41.8362 11.5447 42.0091 11.3097C42.8781 10.1289 45.1004 9.4654 46.7186 9.90365C47.2105 10.0369 47.3927 10.2628 47.5936 10.9886C47.6828 11.311 47.7873 11.6565 47.8257 11.7565L47.8957 11.9382L48.0995 11.7038C48.3955 11.3634 48.7138 10.7214 48.9 10.0896C49.2023 9.06389 49.1022 7.81789 48.6442 6.90342C47.9725 5.56233 46.7175 4.58669 44.9129 4.00258L44.2961 3.80294L44.1174 3.45109C43.1989 1.64271 39.1856 0.148318 34.8701 0.00769215C34.3805 -0.00830907 33.676 0.0014761 33.3046 0.0294167ZM34.9315 1.7317C34.8133 1.74309 34.3989 1.78161 34.0106 1.81725C33.2207 1.88981 31.3832 2.17223 31.2607 2.23992C31.217 2.26405 31.438 2.31796 31.7518 2.35969C32.5891 2.47108 33.162 2.59847 33.9032 2.83806C34.2662 2.95536 34.5631 3.05691 34.5631 3.06368C34.5631 3.07045 33.9209 3.0763 33.1358 3.0766C31.5724 3.07734 31.2286 3.11728 29.9217 3.45017C28.1222 3.90854 26.6027 4.65611 25.2403 5.75318C24.6859 6.19961 24.1172 6.73781 24.1999 6.73781C24.234 6.73781 25.7008 6.10397 26.5516 5.72167C27.5673 5.2652 29.5238 4.63795 30.7569 4.37338C31.179 4.28279 31.7729 4.15459 32.0768 4.0885C33.248 3.83377 34.2505 3.72299 35.3895 3.72262C36.6802 3.72213 37.5116 3.8126 39.6586 4.18715C40.5196 4.33731 41.3169 4.47603 41.4305 4.4953C41.6212 4.52773 41.6341 4.54416 41.6006 4.71193C41.4917 5.25794 40.95 5.9868 40.3893 6.34159C40.1023 6.52314 39.3876 6.79947 39.2062 6.79898C39.0989 6.79861 39.128 6.75338 39.3678 6.54727C39.5286 6.4091 39.7398 6.18016 39.8369 6.03855C40.0408 5.74161 40.2276 5.32231 40.1562 5.32231C40.1293 5.32231 39.9443 5.46546 39.7449 5.64043C38.8437 6.4312 37.9105 6.50289 37.1993 5.83607C36.8545 5.51273 36.7472 5.24631 36.7884 4.81575L36.8179 4.50816L36.5462 4.53881C36.1939 4.57863 35.9751 4.77759 35.9751 5.05805C35.9751 5.34022 36.127 5.6824 36.3586 5.92236C36.4648 6.0324 36.5394 6.12521 36.5243 6.12871C36.5093 6.13216 35.2198 6.15382 33.6589 6.17672C31.7336 6.20503 30.7991 6.24011 30.7533 6.28596C30.6671 6.37236 31.4632 6.66648 32.3158 6.86311L32.9232 7.00324L32.0037 7.31988C30.546 7.82183 29.7843 8.24648 29.2365 8.86265C28.8812 9.26225 28.8484 9.33961 29.0533 9.29462C29.1292 9.27794 29.6058 9.16814 30.1123 9.0506C30.6188 8.93305 31.2653 8.79365 31.5491 8.74079C32.204 8.61875 33.5871 8.44674 33.6232 8.48286C33.6382 8.49794 33.545 8.54416 33.4162 8.58558C33.2873 8.62706 32.8784 8.78529 32.5075 8.93724C30.4016 9.80001 28.8211 11.1687 27.8475 12.9727C27.5595 13.5063 27.1133 14.7353 27.1461 14.9045C27.1674 15.0149 27.4086 14.829 28.6389 13.754C29.8547 12.6917 30.4822 12.2614 31.7236 11.6391C32.704 11.1475 34.1475 10.6038 34.8394 10.4655C34.977 10.438 34.9305 10.4815 34.6552 10.6376C32.8679 11.6514 31.5483 12.9128 30.879 14.2475C30.2482 15.5052 30.1125 16.0478 30.1174 17.2925C30.1208 18.1251 30.1374 18.2651 30.2874 18.7209C30.3789 18.9988 30.4754 19.2396 30.5019 19.2561C30.5285 19.2725 30.6403 18.9897 30.7503 18.6277C31.104 17.4645 31.9043 15.9373 32.7894 14.7368C34.4823 12.4403 36.4579 10.8624 38.7527 9.97356C40.1241 9.44238 41.2642 9.18993 43.5871 8.90326C44.3465 8.80953 44.9385 8.71457 44.9025 8.69236C44.7286 8.58459 43.9156 8.50933 42.5934 8.47862C40.997 8.44151 40.1713 8.49591 38.5623 8.74417C38.0101 8.82941 37.5458 8.88683 37.5308 8.87169C37.4801 8.82098 38.5773 8.44969 39.3912 8.2421C41.1407 7.79592 43.2387 7.62563 44.6927 7.81179C46.1539 7.99882 47.0541 8.37719 47.7125 9.08112L48.0619 9.45463L48.1042 9.22907C48.1274 9.105 48.1282 8.81913 48.106 8.59382C47.9083 6.58647 46.2503 5.19904 43.603 4.82572L43.0965 4.75427V4.51321C43.0965 3.9824 42.6825 3.44279 41.8994 2.95296C40.8451 2.29347 39.3782 1.89824 37.4485 1.75367C36.6728 1.69551 35.4194 1.68462 34.9315 1.7317ZM37.9441 4.86905C37.7792 5.07916 37.7837 5.17159 37.9676 5.35585C38.1452 5.53402 38.3086 5.54787 38.48 5.39924C38.6877 5.21923 38.7045 5.03718 38.5295 4.86179C38.328 4.6598 38.1061 4.66257 37.9441 4.86905ZM43.2653 5.81958C43.1142 5.90783 43.1314 6.01301 43.3267 6.19567C43.6895 6.5349 43.8847 6.55964 44.6517 6.36338C44.9275 6.29279 45.1627 6.22546 45.1744 6.21377C45.1861 6.20207 45.0878 6.13733 44.9558 6.06982C44.4343 5.80309 43.5243 5.66837 43.2653 5.81958ZM38.8388 10.549C37.0409 11.4544 35.3545 13.6697 34.7628 15.9032C34.5579 16.677 34.5299 18.1584 34.7081 18.8003C34.8164 19.1903 35.2153 20.0311 35.2921 20.0312C35.3132 20.0312 35.3214 19.8848 35.3103 19.7058C35.2896 19.3747 35.5132 17.9503 35.7299 17.0319C35.9323 16.1748 36.2627 15.3855 37.0844 13.7971C37.9506 12.1224 38.353 11.5023 39.2789 10.415C39.4042 10.2679 39.3856 10.2736 38.8388 10.549ZM39.079 12.5353C38.7557 12.9023 38.366 13.6617 38.2169 14.2153C38.0621 14.7907 38.0286 16.01 38.1487 16.6997C38.4729 18.5617 39.7043 20.4401 41.3033 21.5122C41.5558 21.6815 41.7733 21.8089 41.7868 21.7953C41.8004 21.7818 41.4881 21.2339 41.093 20.5778C39.9676 18.7094 39.6334 17.9184 39.3731 16.5069C39.2901 16.0575 39.2705 15.6293 39.2795 14.4615C39.2857 13.6491 39.3151 12.8183 39.3448 12.6152C39.3744 12.4121 39.3914 12.2377 39.3825 12.2276C39.3736 12.2175 39.237 12.356 39.079 12.5353ZM9.78702 13.4226C9.3442 13.9024 8.87069 14.5698 8.43875 15.3231C8.24463 15.6616 8.04517 16.0008 7.99557 16.077C7.88893 16.2406 7.89218 16.2414 8.2186 16.1259C8.61697 15.985 9.26734 15.5781 9.66381 15.2216L10.0269 14.8952L9.98384 15.3553C9.96014 15.6084 9.92404 16.0301 9.9036 16.2924C9.88315 16.5547 9.84964 16.7691 9.82913 16.7687C9.80863 16.7684 9.73422 16.6674 9.66381 16.5443L9.53568 16.3205L9.36858 16.8578C9.24487 17.2556 9.17882 17.3865 9.11442 17.3617C9.06137 17.3413 8.85166 17.5013 8.577 17.7719C8.10539 18.2365 7.61249 18.5672 7.61249 18.4191C7.61249 18.3744 7.63821 18.248 7.66958 18.1382C7.70101 18.0285 7.70789 17.9389 7.68493 17.9392C7.6026 17.9401 6.5433 18.9246 6.28122 19.2438C6.02246 19.559 5.82852 19.9042 5.73883 20.209C5.70065 20.339 5.83816 20.2816 6.91496 19.7179C9.05708 18.5966 8.75196 18.7076 9.684 18.7106C10.2142 18.7123 10.5217 18.738 10.568 18.7844C10.6809 18.8976 10.704 19.9949 10.6062 20.6004C10.5583 20.8966 10.5375 21.1389 10.5598 21.1389C10.5822 21.1389 10.9848 20.7505 11.4546 20.2758C12.6808 19.0368 12.9592 18.936 13.6827 19.4691C14.0986 19.7755 14.5848 20.0927 14.6387 20.0927C14.6553 20.0927 14.519 19.8088 14.3358 19.4619C14.1527 19.1149 13.9622 18.6564 13.9126 18.4431L13.8223 18.0552L13.9751 17.9969C14.298 17.8738 14.7035 17.9672 15.0468 18.2439C15.2785 18.4305 16.0023 18.7474 16.3875 18.8309C16.5982 18.8766 16.5979 18.876 16.2341 18.5407C16.0336 18.356 15.5795 17.9474 15.225 17.6327C14.8704 17.3181 14.2646 16.7804 13.8787 16.438C12.8079 15.4878 11.2659 14.1054 10.6625 13.5547L10.121 13.0606L9.78702 13.4226Z"/>
</mask>
<path fill-rule="evenodd" clip-rule="evenodd" d="M33.3046 0.0294167C31.4979 0.165181 29.7735 0.618324 28.3033 1.34367C28.0152 1.48584 27.2822 1.90864 26.6744 2.28319C26.0666 2.6578 25.1559 3.21095 24.6505 3.51245C23.9665 3.92055 23.6095 4.18026 23.2539 4.52847C22.9911 4.78578 22.7761 5.02463 22.7761 5.05934C22.7761 5.09405 22.9564 5.05682 23.1768 4.97662C23.6996 4.7864 24.4287 4.59617 24.8244 4.54687L25.1396 4.50754L24.8181 4.83803C24.6412 5.01977 24.1835 5.4454 23.8009 5.78389C23.0295 6.46628 22.6327 6.91056 22.419 7.33108C22.2557 7.6524 22.1201 8.32039 22.2016 8.40212C22.2331 8.43369 22.3671 8.36833 22.5204 8.24672C23.058 7.82029 23.9399 7.53534 24.7044 7.54119L25.1396 7.54451L24.7435 7.89506C23.3697 9.11066 22.6489 9.95657 22.1632 10.9227C21.8007 11.6438 21.4436 12.8964 21.4964 13.2613C21.5153 13.3915 21.5462 13.369 21.786 13.0499C22.6846 11.8544 23.9357 10.6318 24.9861 9.92285C25.5712 9.52799 26.5466 9.0149 26.7123 9.0149C26.7488 9.0149 26.6032 9.14605 26.3889 9.30631C25.7684 9.7701 24.4513 11.1343 23.8477 11.9382C23.5427 12.3444 22.9925 13.1614 22.6251 13.7537C20.7405 16.7917 19.911 17.9037 18.3901 19.4312C17.6454 20.1791 16.4817 21.0845 15.5626 21.631C15.3943 21.731 15.6149 21.4779 16.2632 20.8271C18.8662 18.2139 20.2563 16.1196 20.0979 15.05C20.0563 14.7687 20.0174 14.7193 19.496 14.286C19.3196 14.1394 19.1386 13.9055 19.0216 13.673L18.8323 13.2972L18.6903 13.6758C18.479 14.2394 18.158 14.7008 17.5665 15.2917C17.0157 15.8417 15.8448 16.7693 15.7011 16.7693C15.6559 16.7693 15.4983 16.6462 15.3509 16.4957L15.083 16.2219L15.4279 15.7992C15.6177 15.5668 15.8966 15.1255 16.0479 14.8186C16.2713 14.3652 16.3573 14.2486 16.5071 14.1962C16.6276 14.1541 16.735 14.046 16.8176 13.8837C16.9753 13.5738 16.9759 13.5076 16.8211 13.5076C16.7536 13.5076 16.6984 13.4931 16.6984 13.4754C16.6984 13.4267 17.1606 12.5154 17.467 11.9601L17.7387 11.4676L17.5408 11.5104C17.432 11.5339 17.2351 11.608 17.1033 11.6749L16.8636 11.7965L16.9003 11.4058C16.9204 11.1909 16.9778 10.9171 17.0278 10.7973C17.139 10.5315 17.5466 9.97448 18.0003 9.46854L18.3385 9.0914L19.7545 10.4692L21.1706 11.8471L21.298 11.5057C21.5548 10.8179 21.5697 10.8463 20.3126 9.63052C19.7003 9.03829 19.077 8.39436 18.9275 8.19964C18.5339 7.68692 18.3741 7.70791 17.6897 8.36224C17.509 8.53505 17.0808 8.99447 16.7381 9.38324C16.3955 9.77201 15.5902 10.6305 14.9486 11.2911C14.3071 11.9516 13.5012 12.7898 13.1579 13.1537C12.8146 13.5176 12.5045 13.8153 12.4689 13.8153C12.3822 13.8153 11.6345 13.1758 10.9816 12.5432C10.3646 11.9456 10.2015 11.8999 9.78573 12.2079C9.52365 12.4021 7.28539 14.6611 4.69433 17.3466C3.2463 18.8473 2.31997 19.7386 1.04365 20.8588C0.338449 21.4778 0 21.8309 0 21.9477C0 22.1021 0.277365 22.2179 0.776535 22.272C2.15218 22.4212 8.12215 24.407 9.9276 25.3161L10.4931 25.6008L9.84208 26.1239C9.03326 26.7738 8.13947 27.6328 8.18876 27.7128C8.23892 27.7941 8.40388 27.7509 9.97604 27.2445C10.7189 27.0051 11.4648 26.7683 11.6336 26.718C11.8024 26.6677 12.5345 26.4471 13.2605 26.2277C15.0642 25.6826 16.7733 25.2317 17.6192 25.0775C18.0075 25.0068 18.6802 24.8639 19.1141 24.76C20.0358 24.5394 20.1976 24.5618 20.1976 24.9105C20.1976 25.3243 19.9381 25.9156 19.2759 27.0106L19.1305 27.2511L19.3724 27.2182C19.5055 27.2001 20.0703 27.0035 20.6274 26.7812C21.5703 26.4049 21.9074 26.2661 23.4514 25.6186C26.2266 24.4545 28.8626 23.416 29.042 23.416C29.0875 23.416 29.2807 23.5257 29.4713 23.6597C29.9644 24.0065 30.718 24.3705 31.454 24.6173C32.0839 24.8287 32.9931 25.0105 33.0641 24.9393C33.0845 24.9189 32.9772 24.6716 32.8256 24.3899C32.3431 23.4923 31.8542 22.0853 31.9437 21.8513C31.9684 21.7868 32.1069 21.894 32.4266 22.225C33.7583 23.6038 35.2462 24.5643 37.5406 25.5263C38.3448 25.8634 39.3342 26.1324 39.9315 26.1762C40.2541 26.1998 40.5181 26.2021 40.5181 26.1813C40.5181 26.1605 40.4124 26.1117 40.2832 26.0728C39.7353 25.9083 38.5807 24.9171 37.9715 24.0884C37.4918 23.4358 37.1416 22.6255 37.1416 22.1683C37.1416 21.9941 37.149 21.9985 37.4152 22.326C38.6439 23.8381 40.8386 25.0334 44.793 26.3441C45.5025 26.5793 46.4116 26.7571 46.4116 26.6608C46.4116 26.6422 46.2296 26.5248 46.0071 26.4C45.007 25.8394 43.8921 24.5616 43.6182 23.6622C43.5736 23.5158 43.5769 23.5132 43.6869 23.6093C43.9076 23.8021 45.1103 24.5166 45.7744 24.8496C46.6356 25.2812 47.7344 25.6976 48.623 25.929C49.2841 26.1011 49.7881 26.2009 49.7881 26.1595C49.7881 26.1496 49.6155 26.0363 49.4044 25.9078C47.6661 24.8497 45.7596 23.2144 44.8132 21.9697C44.4113 21.4411 43.9208 20.5998 43.9799 20.5405C43.9953 20.5251 44.1574 20.6233 44.3401 20.7587C46.0328 22.0121 48.5999 22.8469 49.8802 22.5601C50.0582 22.5202 50.0541 22.5162 49.7574 22.4407C49.3261 22.331 48.5648 21.9524 47.9157 21.5249C45.0352 19.6279 42.4932 15.9312 41.9633 12.8687C41.8213 12.0487 41.8362 11.5447 42.0091 11.3097C42.8781 10.1289 45.1004 9.4654 46.7186 9.90365C47.2105 10.0369 47.3927 10.2628 47.5936 10.9886C47.6828 11.311 47.7873 11.6565 47.8257 11.7565L47.8957 11.9382L48.0995 11.7038C48.3955 11.3634 48.7138 10.7214 48.9 10.0896C49.2023 9.06389 49.1022 7.81789 48.6442 6.90342C47.9725 5.56233 46.7175 4.58669 44.9129 4.00258L44.2961 3.80294L44.1174 3.45109C43.1989 1.64271 39.1856 0.148318 34.8701 0.00769215C34.3805 -0.00830907 33.676 0.0014761 33.3046 0.0294167ZM34.9315 1.7317C34.8133 1.74309 34.3989 1.78161 34.0106 1.81725C33.2207 1.88981 31.3832 2.17223 31.2607 2.23992C31.217 2.26405 31.438 2.31796 31.7518 2.35969C32.5891 2.47108 33.162 2.59847 33.9032 2.83806C34.2662 2.95536 34.5631 3.05691 34.5631 3.06368C34.5631 3.07045 33.9209 3.0763 33.1358 3.0766C31.5724 3.07734 31.2286 3.11728 29.9217 3.45017C28.1222 3.90854 26.6027 4.65611 25.2403 5.75318C24.6859 6.19961 24.1172 6.73781 24.1999 6.73781C24.234 6.73781 25.7008 6.10397 26.5516 5.72167C27.5673 5.2652 29.5238 4.63795 30.7569 4.37338C31.179 4.28279 31.7729 4.15459 32.0768 4.0885C33.248 3.83377 34.2505 3.72299 35.3895 3.72262C36.6802 3.72213 37.5116 3.8126 39.6586 4.18715C40.5196 4.33731 41.3169 4.47603 41.4305 4.4953C41.6212 4.52773 41.6341 4.54416 41.6006 4.71193C41.4917 5.25794 40.95 5.9868 40.3893 6.34159C40.1023 6.52314 39.3876 6.79947 39.2062 6.79898C39.0989 6.79861 39.128 6.75338 39.3678 6.54727C39.5286 6.4091 39.7398 6.18016 39.8369 6.03855C40.0408 5.74161 40.2276 5.32231 40.1562 5.32231C40.1293 5.32231 39.9443 5.46546 39.7449 5.64043C38.8437 6.4312 37.9105 6.50289 37.1993 5.83607C36.8545 5.51273 36.7472 5.24631 36.7884 4.81575L36.8179 4.50816L36.5462 4.53881C36.1939 4.57863 35.9751 4.77759 35.9751 5.05805C35.9751 5.34022 36.127 5.6824 36.3586 5.92236C36.4648 6.0324 36.5394 6.12521 36.5243 6.12871C36.5093 6.13216 35.2198 6.15382 33.6589 6.17672C31.7336 6.20503 30.7991 6.24011 30.7533 6.28596C30.6671 6.37236 31.4632 6.66648 32.3158 6.86311L32.9232 7.00324L32.0037 7.31988C30.546 7.82183 29.7843 8.24648 29.2365 8.86265C28.8812 9.26225 28.8484 9.33961 29.0533 9.29462C29.1292 9.27794 29.6058 9.16814 30.1123 9.0506C30.6188 8.93305 31.2653 8.79365 31.5491 8.74079C32.204 8.61875 33.5871 8.44674 33.6232 8.48286C33.6382 8.49794 33.545 8.54416 33.4162 8.58558C33.2873 8.62706 32.8784 8.78529 32.5075 8.93724C30.4016 9.80001 28.8211 11.1687 27.8475 12.9727C27.5595 13.5063 27.1133 14.7353 27.1461 14.9045C27.1674 15.0149 27.4086 14.829 28.6389 13.754C29.8547 12.6917 30.4822 12.2614 31.7236 11.6391C32.704 11.1475 34.1475 10.6038 34.8394 10.4655C34.977 10.438 34.9305 10.4815 34.6552 10.6376C32.8679 11.6514 31.5483 12.9128 30.879 14.2475C30.2482 15.5052 30.1125 16.0478 30.1174 17.2925C30.1208 18.1251 30.1374 18.2651 30.2874 18.7209C30.3789 18.9988 30.4754 19.2396 30.5019 19.2561C30.5285 19.2725 30.6403 18.9897 30.7503 18.6277C31.104 17.4645 31.9043 15.9373 32.7894 14.7368C34.4823 12.4403 36.4579 10.8624 38.7527 9.97356C40.1241 9.44238 41.2642 9.18993 43.5871 8.90326C44.3465 8.80953 44.9385 8.71457 44.9025 8.69236C44.7286 8.58459 43.9156 8.50933 42.5934 8.47862C40.997 8.44151 40.1713 8.49591 38.5623 8.74417C38.0101 8.82941 37.5458 8.88683 37.5308 8.87169C37.4801 8.82098 38.5773 8.44969 39.3912 8.2421C41.1407 7.79592 43.2387 7.62563 44.6927 7.81179C46.1539 7.99882 47.0541 8.37719 47.7125 9.08112L48.0619 9.45463L48.1042 9.22907C48.1274 9.105 48.1282 8.81913 48.106 8.59382C47.9083 6.58647 46.2503 5.19904 43.603 4.82572L43.0965 4.75427V4.51321C43.0965 3.9824 42.6825 3.44279 41.8994 2.95296C40.8451 2.29347 39.3782 1.89824 37.4485 1.75367C36.6728 1.69551 35.4194 1.68462 34.9315 1.7317ZM37.9441 4.86905C37.7792 5.07916 37.7837 5.17159 37.9676 5.35585C38.1452 5.53402 38.3086 5.54787 38.48 5.39924C38.6877 5.21923 38.7045 5.03718 38.5295 4.86179C38.328 4.6598 38.1061 4.66257 37.9441 4.86905ZM43.2653 5.81958C43.1142 5.90783 43.1314 6.01301 43.3267 6.19567C43.6895 6.5349 43.8847 6.55964 44.6517 6.36338C44.9275 6.29279 45.1627 6.22546 45.1744 6.21377C45.1861 6.20207 45.0878 6.13733 44.9558 6.06982C44.4343 5.80309 43.5243 5.66837 43.2653 5.81958ZM38.8388 10.549C37.0409 11.4544 35.3545 13.6697 34.7628 15.9032C34.5579 16.677 34.5299 18.1584 34.7081 18.8003C34.8164 19.1903 35.2153 20.0311 35.2921 20.0312C35.3132 20.0312 35.3214 19.8848 35.3103 19.7058C35.2896 19.3747 35.5132 17.9503 35.7299 17.0319C35.9323 16.1748 36.2627 15.3855 37.0844 13.7971C37.9506 12.1224 38.353 11.5023 39.2789 10.415C39.4042 10.2679 39.3856 10.2736 38.8388 10.549ZM39.079 12.5353C38.7557 12.9023 38.366 13.6617 38.2169 14.2153C38.0621 14.7907 38.0286 16.01 38.1487 16.6997C38.4729 18.5617 39.7043 20.4401 41.3033 21.5122C41.5558 21.6815 41.7733 21.8089 41.7868 21.7953C41.8004 21.7818 41.4881 21.2339 41.093 20.5778C39.9676 18.7094 39.6334 17.9184 39.3731 16.5069C39.2901 16.0575 39.2705 15.6293 39.2795 14.4615C39.2857 13.6491 39.3151 12.8183 39.3448 12.6152C39.3744 12.4121 39.3914 12.2377 39.3825 12.2276C39.3736 12.2175 39.237 12.356 39.079 12.5353ZM9.78702 13.4226C9.3442 13.9024 8.87069 14.5698 8.43875 15.3231C8.24463 15.6616 8.04517 16.0008 7.99557 16.077C7.88893 16.2406 7.89218 16.2414 8.2186 16.1259C8.61697 15.985 9.26734 15.5781 9.66381 15.2216L10.0269 14.8952L9.98384 15.3553C9.96014 15.6084 9.92404 16.0301 9.9036 16.2924C9.88315 16.5547 9.84964 16.7691 9.82913 16.7687C9.80863 16.7684 9.73422 16.6674 9.66381 16.5443L9.53568 16.3205L9.36858 16.8578C9.24487 17.2556 9.17882 17.3865 9.11442 17.3617C9.06137 17.3413 8.85166 17.5013 8.577 17.7719C8.10539 18.2365 7.61249 18.5672 7.61249 18.4191C7.61249 18.3744 7.63821 18.248 7.66958 18.1382C7.70101 18.0285 7.70789 17.9389 7.68493 17.9392C7.6026 17.9401 6.5433 18.9246 6.28122 19.2438C6.02246 19.559 5.82852 19.9042 5.73883 20.209C5.70065 20.339 5.83816 20.2816 6.91496 19.7179C9.05708 18.5966 8.75196 18.7076 9.684 18.7106C10.2142 18.7123 10.5217 18.738 10.568 18.7844C10.6809 18.8976 10.704 19.9949 10.6062 20.6004C10.5583 20.8966 10.5375 21.1389 10.5598 21.1389C10.5822 21.1389 10.9848 20.7505 11.4546 20.2758C12.6808 19.0368 12.9592 18.936 13.6827 19.4691C14.0986 19.7755 14.5848 20.0927 14.6387 20.0927C14.6553 20.0927 14.519 19.8088 14.3358 19.4619C14.1527 19.1149 13.9622 18.6564 13.9126 18.4431L13.8223 18.0552L13.9751 17.9969C14.298 17.8738 14.7035 17.9672 15.0468 18.2439C15.2785 18.4305 16.0023 18.7474 16.3875 18.8309C16.5982 18.8766 16.5979 18.876 16.2341 18.5407C16.0336 18.356 15.5795 17.9474 15.225 17.6327C14.8704 17.3181 14.2646 16.7804 13.8787 16.438C12.8079 15.4878 11.2659 14.1054 10.6625 13.5547L10.121 13.0606L9.78702 13.4226Z" fill="#1F52B2" stroke="#1F52B2" mask="url(#path-2-inside-1_114_2603)"/>
</svg>
