<svg width="138" height="23" viewBox="0 0 138 23" fill="none" xmlns="http://www.w3.org/2000/svg">
<path d="M10.002 0.627731C12.5726 0.627776 14.6336 1.00448 16.1777 1.89922C17.7515 2.8112 18.7262 4.22494 19.1797 6.14629L19.3535 6.88457H17.0713L16.9453 6.45195C16.5665 5.15012 15.8529 4.26099 14.7539 3.67851C13.6267 3.08117 12.0485 2.783 9.91406 2.783C7.53313 2.78304 5.89674 3.1522 4.875 3.75957C3.89821 4.34032 3.45898 5.14904 3.45898 6.2C3.45898 6.71123 3.56421 7.11157 3.76562 7.44511C3.96843 7.78081 4.29602 8.09347 4.8125 8.38457C5.73885 8.90664 7.18417 9.31298 9.3291 9.66972L10.292 9.82011L11.4678 10.0057C14.1067 10.4542 16.0168 11.0178 17.3066 11.8387C18.0581 12.317 18.6141 12.8914 18.9766 13.5896C19.3375 14.285 19.4853 15.0632 19.4854 15.9187C19.4854 17.8276 18.7393 19.3496 17.1621 20.3602C15.6325 21.3402 13.3825 21.7996 10.4365 21.7996C7.7652 21.7996 5.65453 21.4173 4.0752 20.5174C2.46672 19.6008 1.47081 18.1836 0.97168 16.2674L0.776367 15.5154H3.06055L3.19629 15.9275C3.62996 17.2369 4.3733 18.1306 5.52051 18.7166C6.69682 19.3174 8.3427 19.617 10.6113 19.617C13.0984 19.617 14.7821 19.2467 15.8262 18.6209C16.8192 18.0256 17.2695 17.1795 17.2695 16.0311C17.2695 15.4646 17.1608 15.0082 16.9424 14.6228C16.7238 14.2372 16.3718 13.8808 15.8203 13.5516C14.6914 12.8777 12.8154 12.369 9.86133 11.9627H9.85938C6.8797 11.5408 4.74285 11.0027 3.3457 10.1375C2.63292 9.69599 2.09622 9.15954 1.74316 8.4998C1.39124 7.84191 1.24316 7.10098 1.24316 6.28398C1.24324 4.48144 1.97253 3.01917 3.49707 2.03984C4.9778 1.0888 7.15387 0.627731 10.002 0.627731ZM73.9092 0.600388C77.5892 0.600407 80.3615 1.36262 82.2051 3.14629C84.0532 4.9344 84.8447 7.62857 84.8447 11.2C84.8447 14.758 84.0533 17.4517 82.2061 19.243C80.3629 21.03 77.5905 21.7996 73.9092 21.7996C70.2279 21.7996 67.4621 21.03 65.626 19.242C63.7862 17.4503 63.002 14.7567 63.002 11.2C63.002 7.63015 63.7857 4.93579 65.626 3.14726C67.4626 1.36263 70.2292 0.600388 73.9092 0.600388ZM89.1973 18.4373C89.662 18.4373 90.1206 18.55 90.457 18.8885C90.7928 19.2264 90.9004 19.682 90.9004 20.1326C90.9004 20.5908 90.7957 21.0533 90.4443 21.3865C90.1 21.7127 89.6383 21.7996 89.1973 21.7996C88.7394 21.7996 88.2634 21.7179 87.9189 21.3777C87.572 21.0351 87.4941 20.565 87.4941 20.1326C87.4941 19.7071 87.5748 19.2437 87.9062 18.8963C88.2431 18.5433 88.7159 18.4373 89.1973 18.4373ZM119.442 0.768356V12.5486C119.442 15.1629 120.055 16.8808 121.236 17.9627C122.43 19.0559 124.33 19.617 127.175 19.617C130.05 19.617 131.948 19.055 133.134 17.9637C134.307 16.8832 134.907 15.1665 134.907 12.5486V0.768356H137.152V12.6609C137.152 15.7205 136.437 18.0547 134.74 19.6062C133.056 21.1462 130.528 21.7996 127.175 21.7996C123.863 21.7996 121.344 21.1457 119.657 19.6072C117.958 18.057 117.227 15.7237 117.227 12.6609V0.768356H119.442ZM25.4648 0.768356V9.92558H29.543L38.1055 0.953903L38.2832 0.768356H41.2783L40.3096 1.783L31.5342 10.9705L40.9434 20.6121L41.9375 21.6316H38.9268L38.75 21.452L29.5488 12.0809H25.4648V21.6316H23.249V0.768356H25.4648ZM61.1992 0.768356V2.92363H46.2764V10.1228H59.7471V12.2771H46.2764V21.6316H44.0596V0.768356H61.1992ZM105.599 0.768356C107.952 0.768377 109.771 1.17184 111.003 2.16972C112.265 3.19228 112.789 4.73491 112.789 6.70586C112.789 8.22865 112.476 9.50287 111.74 10.4852C111.332 11.0305 110.81 11.4598 110.185 11.7898C110.791 12.0882 111.3 12.4818 111.703 12.9842C112.445 13.9092 112.76 15.1205 112.76 16.5652V21.6316H110.544V16.5369C110.544 15.1544 110.177 14.3116 109.51 13.785C108.807 13.2309 107.648 12.9237 105.831 12.9236H97.1982V21.6316H94.9814V0.768356H105.599ZM73.9092 2.783C70.7224 2.783 68.5883 3.44625 67.2422 4.75175C65.9003 6.05316 65.2188 8.11313 65.2188 11.2C65.2188 14.272 65.9005 16.3321 67.2432 17.6375C68.5898 18.9466 70.7238 19.617 73.9092 19.617C77.0944 19.617 79.2366 18.9467 80.5908 17.6365C81.9403 16.3307 82.6289 14.2704 82.6289 11.2C82.6289 8.11463 81.9396 6.0546 80.5908 4.75273C79.2371 3.44642 77.0955 2.78302 73.9092 2.783ZM97.1982 10.7684H105.569C107.482 10.7684 108.713 10.4285 109.464 9.82109C110.184 9.23808 110.573 8.31394 110.573 6.84648C110.573 5.3634 110.183 4.44089 109.465 3.86211C108.715 3.25815 107.484 2.92363 105.569 2.92363H97.1982V10.7684Z" fill="white" stroke="white" stroke-width="1.2"/>
</svg>
