<svg width="19" height="17" viewBox="0 0 19 17" fill="none" xmlns="http://www.w3.org/2000/svg">
<path d="M16.0163 2.4877C15.6253 2.09531 15.1611 1.78404 14.6502 1.57168C14.1393 1.35931 13.5917 1.25 13.0387 1.25C12.4857 1.25 11.9381 1.35931 11.4272 1.57168C10.9163 1.78404 10.4521 2.09531 10.0612 2.4877L9.2498 3.30166L8.43843 2.4877C7.64874 1.69548 6.57768 1.25041 5.46089 1.25041C4.34409 1.25041 3.27303 1.69548 2.48334 2.4877C1.69365 3.27993 1.25 4.35441 1.25 5.47479C1.25 6.59516 1.69365 7.66965 2.48334 8.46187L9.2498 15.25L16.0163 8.46187C16.4074 8.06967 16.7177 7.604 16.9294 7.09146C17.141 6.57893 17.25 6.02958 17.25 5.47479C17.25 4.92 17.141 4.37064 16.9294 3.85811C16.7177 3.34558 16.4074 2.8799 16.0163 2.4877Z" stroke="#BCC4F8" stroke-width="2.5" stroke-linecap="round" stroke-linejoin="round"/>
</svg>
