<svg width="24" height="24" viewBox="0 0 24 24" fill="none" xmlns="http://www.w3.org/2000/svg">
<path d="M19.0001 5.49598L16.4701 18.416C16.4701 18.416 16.1151 19.313 15.1421 18.883L11.5151 16.067L11.5411 16.088L9.23106 18.221C9.23106 18.221 9.05106 18.36 8.85306 18.273L9.32006 14.242C9.32006 14.242 15.7971 8.34498 16.0631 8.09398C16.3281 7.84398 16.2391 7.78998 16.2391 7.78998C16.2571 7.48498 15.7611 7.78998 15.7611 7.78998L7.18006 13.31L3.60606 12.092C3.60606 12.092 3.05806 11.894 3.00406 11.464C2.95006 11.034 3.62406 10.801 3.62406 10.801L17.8321 5.15498C17.8321 5.15498 19.0001 4.63598 19.0001 5.49598Z" fill="#1F52B2"/>
</svg>
