<svg width="18" height="17" viewBox="0 0 18 17" fill="none" xmlns="http://www.w3.org/2000/svg">
<path fill-rule="evenodd" clip-rule="evenodd" d="M8.4389 0.231895C8.28237 0.386104 8.20352 1.22962 8.20352 2.75008C8.20352 4.60427 8.14781 5.05762 7.90928 5.14767C7.74746 5.20893 7.25922 5.6992 6.82415 6.23739L6.03345 7.21579L6.66703 7.85968C7.09014 8.28985 7.36574 8.43922 7.49696 8.30994C7.86221 7.95012 8.53443 8.11322 9.17606 8.7175L9.81454 9.31849L10.8622 8.29931C12.0578 7.13598 12.0576 7.1323 10.6615 5.71717C10.1727 5.22169 9.77276 4.78051 9.77276 4.73683C9.77276 4.69316 10.4756 4.2972 11.3346 3.85699C12.9352 3.03666 13.3465 2.54582 12.8891 2.0028C12.6005 1.66017 9.32141 0 8.93322 0C8.79081 0 8.56837 0.104353 8.4389 0.231895ZM2.43321 11.6999C1.18526 13.2458 0.105818 14.7398 0.0344176 15.02C-0.125253 15.6471 0.285889 16.4264 0.951642 16.7584C1.31414 16.9391 3.3367 17 8.98814 17C17.1066 17 17.2428 16.9843 17.8059 15.9957C18.0358 15.5922 18.056 15.352 17.8954 14.9325C17.677 14.363 13.3632 8.88929 13.1325 8.88929C13.059 8.88929 12.3856 9.49802 11.6362 10.242C10.1103 11.7569 9.56641 11.9238 8.79453 11.1143C8.41831 10.7197 8.21058 10.6532 7.63251 10.7416C6.98637 10.8405 6.84847 10.7688 5.95518 9.86924C5.41968 9.33028 4.91889 8.88929 4.842 8.88929C4.7651 8.88929 3.68115 10.1541 2.43321 11.6999Z" fill="#1F52B2"/>
</svg>
