<svg width="24" height="24" viewBox="0 0 24 24" fill="none" xmlns="http://www.w3.org/2000/svg">
<path fill-rule="evenodd" clip-rule="evenodd" d="M5.125 5.125C4 6.249 4 8.06 4 11.68V12.32C4 15.94 4 17.75 5.125 18.875C6.25 20 8.06 20 11.68 20H12.32C15.94 20 17.75 20 18.875 18.875C20 17.75 20 15.94 20 12.32V11.68C20 8.06 20 6.25 18.875 5.125C17.75 4 15.94 4 12.32 4H11.68C8.06 4 6.25 4 5.125 5.125ZM6.7 8.867C6.787 13.027 8.867 15.527 12.513 15.527H12.72V13.147C14.06 13.28 15.073 14.26 15.48 15.527H17.373C16.853 13.633 15.487 12.587 14.633 12.187C15.487 11.693 16.687 10.493 16.973 8.867H15.253C14.88 10.187 13.773 11.387 12.72 11.5V8.867H11V13.48C9.933 13.213 8.587 11.92 8.527 8.867H6.7Z" fill="#1F52B2"/>
</svg>
